u2194_random 3.ufo
<glyph name="exclam" format="1">
  <advance width="314"/>
  <unicode hex="0021"/>
  <outline>
    <contour>
      <point x="157" y="-106" type="curve" smooth="yes"/>
      <point x="215" y="-106"/>
      <point x="264" y="-57"/>
      <point x="264" y="1" type="curve" smooth="yes"/>
      <point x="264" y="18" type="line" smooth="yes"/>
      <point x="264" y="56"/>
      <point x="243" y="91"/>
      <point x="211" y="109" type="curve"/>
      <point x="243" y="128"/>
      <point x="264" y="163"/>
      <point x="264" y="201" type="curve" smooth="yes"/>
      <point x="264" y="801" type="line" smooth="yes"/>
      <point x="264" y="859"/>
      <point x="215" y="908"/>
      <point x="157" y="908" type="curve" smooth="yes"/>
      <point x="99" y="908"/>
      <point x="50" y="859"/>
      <point x="50" y="801" type="curve" smooth="yes"/>
      <point x="50" y="201" type="line" smooth="yes"/>
      <point x="50" y="163"/>
      <point x="71" y="128"/>
      <point x="103" y="110" type="curve"/>
      <point x="71" y="91"/>
      <point x="50" y="56"/>
      <point x="50" y="18" type="curve" smooth="yes"/>
      <point x="50" y="1" type="line" smooth="yes"/>
      <point x="50" y="-57"/>
      <point x="99" y="-106"/>
    </contour>
  </outline>
</glyph>
<glyph name="numbersign" format="1">
  <advance width="992"/>
  <unicode hex="0023"/>
  <outline>
    <contour>
      <point x="638" y="-36" type="curve" smooth="yes"/>
      <point x="660" y="53" type="line"/>
      <point x="696" y="53" type="line" smooth="yes"/>
      <point x="775" y="53"/>
      <point x="842" y="120"/>
      <point x="842" y="199" type="curve" smooth="yes"/>
      <point x="842" y="266"/>
      <point x="794" y="324"/>
      <point x="732" y="340" type="curve"/>
      <point x="760" y="453" type="line"/>
      <point x="796" y="453" type="line" smooth="yes"/>
      <point x="875" y="453"/>
      <point x="942" y="520"/>
      <point x="942" y="599" type="curve" smooth="yes"/>
      <point x="942" y="666"/>
      <point x="894" y="724"/>
      <point x="832" y="740" type="curve"/>
      <point x="838" y="764" type="line" smooth="yes"/>
      <point x="857" y="840"/>
      <point x="808" y="922"/>
      <point x="731" y="941" type="curve" smooth="yes"/>
      <point x="682" y="953"/>
      <point x="631" y="937"/>
      <point x="596" y="904" type="curve"/>
      <point x="578" y="922"/>
      <point x="556" y="934"/>
      <point x="531" y="941" type="curve" smooth="yes"/>
      <point x="455" y="960"/>
      <point x="373" y="911"/>
      <point x="354" y="834" type="curve" smooth="yes"/>
      <point x="332" y="745" type="line"/>
      <point x="290" y="745" type="line" smooth="yes"/>
      <point x="211" y="745"/>
      <point x="144" y="678"/>
      <point x="144" y="599" type="curve" smooth="yes"/>
      <point x="144" y="530"/>
      <point x="195" y="471"/>
      <point x="260" y="456" type="curve"/>
      <point x="232" y="345" type="line"/>
      <point x="196" y="345" type="line" smooth="yes"/>
      <point x="117" y="345"/>
      <point x="50" y="278"/>
      <point x="50" y="199" type="curve" smooth="yes"/>
      <point x="50" y="132"/>
      <point x="98" y="74"/>
      <point x="160" y="58" type="curve"/>
      <point x="154" y="34" type="line" smooth="yes"/>
      <point x="135" y="-42"/>
      <point x="184" y="-124"/>
      <point x="261" y="-143" type="curve" smooth="yes"/>
      <point x="310" y="-155"/>
      <point x="361" y="-139"/>
      <point x="396" y="-106" type="curve"/>
      <point x="414" y="-124"/>
      <point x="436" y="-136"/>
      <point x="461" y="-143" type="curve" smooth="yes"/>
      <point x="537" y="-162"/>
      <point x="619" y="-113"/>
    </contour>
  </outline>
</glyph>
<glyph name="dollar" format="1">
  <advance width="873"/>
  <unicode hex="0024"/>
  <outline>
    <contour>
      <point x="598" y="-69" type="line" smooth="yes"/>
      <point x="688" y="-104"/>
      <point x="758" y="-2"/>
      <point x="692" y="69" type="curve" smooth="yes"/>
      <point x="523" y="253" type="line"/>
      <point x="523" y="541" type="line"/>
      <point x="618" y="639" type="line"/>
      <point x="661" y="558" type="line" smooth="yes"/>
      <point x="683" y="517"/>
      <point x="737" y="501"/>
      <point x="778" y="523" type="curve" smooth="yes"/>
      <point x="819" y="545"/>
      <point x="835" y="599"/>
      <point x="813" y="640" type="curve" smooth="yes"/>
      <point x="714" y="824" type="line" smooth="yes"/>
      <point x="685" y="879"/>
      <point x="620" y="888"/>
      <point x="576" y="843" type="curve" smooth="yes"/>
      <point x="523" y="788" type="line"/>
      <point x="523" y="799" type="line" smooth="yes"/>
      <point x="523" y="845"/>
      <point x="483" y="885"/>
      <point x="437" y="885" type="curve" smooth="yes"/>
      <point x="391" y="885"/>
      <point x="351" y="845"/>
      <point x="351" y="799" type="curve" smooth="yes"/>
      <point x="351" y="611" type="line"/>
      <point x="207" y="462" type="line" smooth="yes"/>
      <point x="176" y="430"/>
      <point x="175" y="377"/>
      <point x="205" y="344" type="curve" smooth="yes"/>
      <point x="318" y="222" type="line"/>
      <point x="167" y="279" type="line" smooth="yes"/>
      <point x="123" y="296"/>
      <point x="72" y="273"/>
      <point x="56" y="230" type="curve" smooth="yes"/>
      <point x="39" y="186"/>
      <point x="62" y="135"/>
      <point x="105" y="119" type="curve" smooth="yes"/>
      <point x="351" y="25" type="line"/>
      <point x="351" y="-1" type="line" smooth="yes"/>
      <point x="351" y="-47"/>
      <point x="391" y="-87"/>
      <point x="437" y="-87" type="curve" smooth="yes"/>
      <point x="470" y="-87"/>
      <point x="500" y="-66"/>
      <point x="514" y="-38" type="curve"/>
    </contour>
  </outline>
</glyph>
<glyph name="percent" format="1">
  <advance width="837"/>
  <unicode hex="0025"/>
  <outline>
    <contour>
      <point x="319" y="868" type="curve" smooth="yes"/>
      <point x="282" y="868"/>
      <point x="250" y="836"/>
      <point x="250" y="799" type="curve" smooth="yes"/>
      <point x="250" y="789" type="line" smooth="yes"/>
      <point x="250" y="752"/>
      <point x="282" y="720"/>
      <point x="319" y="720" type="curve" smooth="yes"/>
      <point x="356" y="720"/>
      <point x="388" y="752"/>
      <point x="388" y="789" type="curve" smooth="yes"/>
      <point x="388" y="799" type="line" smooth="yes"/>
      <point x="388" y="836"/>
      <point x="356" y="868"/>
    </contour>
    <contour>
      <point x="174" y="-42" type="curve" smooth="yes"/>
      <point x="774" y="758" type="line" smooth="yes"/>
      <point x="797" y="787"/>
      <point x="790" y="832"/>
      <point x="760" y="854" type="curve" smooth="yes"/>
      <point x="731" y="877"/>
      <point x="686" y="870"/>
      <point x="664" y="840" type="curve" smooth="yes"/>
      <point x="64" y="40" type="line" smooth="yes"/>
      <point x="41" y="11"/>
      <point x="48" y="-34"/>
      <point x="78" y="-56" type="curve" smooth="yes"/>
      <point x="107" y="-79"/>
      <point x="152" y="-72"/>
    </contour>
    <contour>
      <point x="519" y="-70" type="curve" smooth="yes"/>
      <point x="556" y="-70"/>
      <point x="588" y="-38"/>
      <point x="588" y="-1" type="curve" smooth="yes"/>
      <point x="588" y="9" type="line" smooth="yes"/>
      <point x="588" y="46"/>
      <point x="556" y="78"/>
      <point x="519" y="78" type="curve" smooth="yes"/>
      <point x="482" y="78"/>
      <point x="450" y="46"/>
      <point x="450" y="9" type="curve" smooth="yes"/>
      <point x="450" y="-1" type="line" smooth="yes"/>
      <point x="450" y="-38"/>
      <point x="482" y="-70"/>
    </contour>
  </outline>
</glyph>
<glyph name="ampersand" format="1">
  <advance width="885"/>
  <unicode hex="0026"/>
  <outline>
    <contour>
      <point x="797" y="-77" type="curve" smooth="yes"/>
      <point x="839" y="-46"/>
      <point x="848" y="17"/>
      <point x="816" y="60" type="curve" smooth="yes"/>
      <point x="696" y="220" type="line"/>
      <point x="792" y="317" type="line"/>
      <point x="806" y="331" type="line" smooth="yes"/>
      <point x="844" y="368"/>
      <point x="844" y="432"/>
      <point x="806" y="469" type="curve" smooth="yes"/>
      <point x="785" y="490"/>
      <point x="756" y="500"/>
      <point x="727" y="497" type="curve"/>
      <point x="732" y="527"/>
      <point x="720" y="561"/>
      <point x="690" y="586" type="curve" smooth="yes"/>
      <point x="431" y="807" type="line" smooth="yes"/>
      <point x="365" y="863"/>
      <point x="278" y="828"/>
      <point x="270" y="742" type="curve" smooth="yes"/>
      <point x="245" y="473" type="line"/>
      <point x="236" y="465"/>
      <point x="228" y="455"/>
      <point x="223" y="447" type="curve" smooth="yes"/>
      <point x="64" y="146" type="line" smooth="yes"/>
      <point x="23" y="69"/>
      <point x="77" y="-9"/>
      <point x="163" y="3" type="curve" smooth="yes"/>
      <point x="495" y="46" type="line" smooth="yes"/>
      <point x="513" y="49"/>
      <point x="538" y="61"/>
      <point x="551" y="74" type="curve" smooth="yes"/>
      <point x="557" y="80" type="line"/>
      <point x="660" y="-58" type="line" smooth="yes"/>
      <point x="691" y="-100"/>
      <point x="754" y="-109"/>
    </contour>
    <contour>
      <point x="577" y="379" type="line"/>
      <point x="570" y="388" type="line"/>
      <point x="596" y="397" type="line"/>
    </contour>
    <contour>
      <point x="326" y="222" type="line"/>
      <point x="373" y="310" type="line"/>
      <point x="376" y="311"/>
      <point x="378" y="313"/>
      <point x="381" y="314" type="curve"/>
      <point x="438" y="238" type="line"/>
      <point x="436" y="236" type="line"/>
    </contour>
  </outline>
</glyph>
<glyph name="asterisk" format="1">
  <advance width="684"/>
  <unicode hex="002A"/>
  <outline>
    <contour>
      <point x="277" y="249" type="curve" smooth="yes"/>
      <point x="345" y="345" type="line"/>
      <point x="418" y="247" type="line" smooth="yes"/>
      <point x="448" y="207"/>
      <point x="507" y="199"/>
      <point x="547" y="228" type="curve" smooth="yes"/>
      <point x="587" y="258"/>
      <point x="595" y="317"/>
      <point x="566" y="357" type="curve" smooth="yes"/>
      <point x="526" y="410" type="line"/>
      <point x="542" y="410" type="line" smooth="yes"/>
      <point x="592" y="410"/>
      <point x="634" y="452"/>
      <point x="634" y="502" type="curve" smooth="yes"/>
      <point x="634" y="552"/>
      <point x="592" y="594"/>
      <point x="542" y="594" type="curve" smooth="yes"/>
      <point x="366" y="594" type="line"/>
      <point x="409" y="639" type="line" smooth="yes"/>
      <point x="443" y="675"/>
      <point x="441" y="734"/>
      <point x="405" y="769" type="curve" smooth="yes"/>
      <point x="369" y="803"/>
      <point x="310" y="801"/>
      <point x="275" y="765" type="curve" smooth="yes"/>
      <point x="105" y="586" type="line"/>
      <point x="73" y="571"/>
      <point x="50" y="538"/>
      <point x="50" y="502" type="curve" smooth="yes"/>
      <point x="50" y="452"/>
      <point x="92" y="410"/>
      <point x="142" y="410" type="curve" smooth="yes"/>
      <point x="152" y="410" type="line" smooth="yes"/>
      <point x="157" y="410"/>
      <point x="161" y="411"/>
      <point x="166" y="412" type="curve"/>
      <point x="132" y="363" type="line"/>
      <point x="127" y="355" type="line" smooth="yes"/>
      <point x="98" y="314"/>
      <point x="109" y="255"/>
      <point x="149" y="227" type="curve" smooth="yes"/>
      <point x="190" y="198"/>
      <point x="249" y="209"/>
    </contour>
  </outline>
</glyph>
<glyph name="plus" format="1">
  <advance width="736"/>
  <unicode hex="002B"/>
  <outline>
    <contour>
      <point x="368" y="4" type="curve" smooth="yes"/>
      <point x="432" y="4"/>
      <point x="486" y="58"/>
      <point x="486" y="122" type="curve" smooth="yes"/>
      <point x="486" y="204" type="line"/>
      <point x="568" y="204" type="line" smooth="yes"/>
      <point x="632" y="204"/>
      <point x="686" y="258"/>
      <point x="686" y="322" type="curve" smooth="yes"/>
      <point x="686" y="386"/>
      <point x="632" y="440"/>
      <point x="568" y="440" type="curve" smooth="yes"/>
      <point x="486" y="440" type="line"/>
      <point x="486" y="522" type="line" smooth="yes"/>
      <point x="486" y="586"/>
      <point x="432" y="640"/>
      <point x="368" y="640" type="curve" smooth="yes"/>
      <point x="304" y="640"/>
      <point x="250" y="586"/>
      <point x="250" y="522" type="curve" smooth="yes"/>
      <point x="250" y="440" type="line"/>
      <point x="168" y="440" type="line" smooth="yes"/>
      <point x="104" y="440"/>
      <point x="50" y="386"/>
      <point x="50" y="322" type="curve" smooth="yes"/>
      <point x="50" y="258"/>
      <point x="104" y="204"/>
      <point x="168" y="204" type="curve" smooth="yes"/>
      <point x="250" y="204" type="line"/>
      <point x="250" y="122" type="line" smooth="yes"/>
      <point x="250" y="58"/>
      <point x="304" y="4"/>
    </contour>
  </outline>
</glyph>
<glyph name="comma" format="1">
  <advance width="469"/>
  <unicode hex="002C"/>
  <outline>
    <contour>
      <point x="344" y="263" type="curve" smooth="yes"/>
      <point x="279" y="295"/>
      <point x="196" y="268"/>
      <point x="163" y="202" type="curve" smooth="yes"/>
      <point x="63" y="2" type="line" smooth="yes"/>
      <point x="31" y="-63"/>
      <point x="58" y="-146"/>
      <point x="124" y="-179" type="curve" smooth="yes"/>
      <point x="189" y="-211"/>
      <point x="272" y="-184"/>
      <point x="305" y="-118" type="curve" smooth="yes"/>
      <point x="405" y="82" type="line" smooth="yes"/>
      <point x="437" y="147"/>
      <point x="410" y="230"/>
    </contour>
  </outline>
</glyph>
<glyph name="hyphen" format="1">
  <advance width="538"/>
  <unicode hex="002D"/>
  <outline>
    <contour>
      <point x="50" y="296" type="curve" smooth="yes"/>
      <point x="50" y="232"/>
      <point x="105" y="177"/>
      <point x="169" y="177" type="curve" smooth="yes"/>
      <point x="369" y="177" type="line" smooth="yes"/>
      <point x="433" y="177"/>
      <point x="488" y="232"/>
      <point x="488" y="296" type="curve" smooth="yes"/>
      <point x="488" y="360"/>
      <point x="433" y="415"/>
      <point x="369" y="415" type="curve" smooth="yes"/>
      <point x="169" y="415" type="line" smooth="yes"/>
      <point x="105" y="415"/>
      <point x="50" y="360"/>
    </contour>
  </outline>
</glyph>
<glyph name="period" format="1">
  <advance width="324"/>
  <unicode hex="002E"/>
  <outline>
    <contour>
      <point x="162" y="122" type="curve" smooth="yes"/>
      <point x="102" y="122"/>
      <point x="50" y="70"/>
      <point x="50" y="10" type="curve" smooth="yes"/>
      <point x="50" y="0" type="line" smooth="yes"/>
      <point x="50" y="-60"/>
      <point x="102" y="-112"/>
      <point x="162" y="-112" type="curve" smooth="yes"/>
      <point x="222" y="-112"/>
      <point x="274" y="-60"/>
      <point x="274" y="0" type="curve" smooth="yes"/>
      <point x="274" y="10" type="line" smooth="yes"/>
      <point x="274" y="70"/>
      <point x="222" y="122"/>
    </contour>
  </outline>
</glyph>
<glyph name="slash" format="1">
  <advance width="885"/>
  <unicode hex="002F"/>
  <outline>
    <contour>
      <point x="217" y="-54" type="curve" smooth="yes"/>
      <point x="817" y="746" type="line" smooth="yes"/>
      <point x="848" y="786"/>
      <point x="839" y="846"/>
      <point x="799" y="876" type="curve" smooth="yes"/>
      <point x="759" y="907"/>
      <point x="699" y="898"/>
      <point x="669" y="858" type="curve" smooth="yes"/>
      <point x="69" y="58" type="line" smooth="yes"/>
      <point x="38" y="18"/>
      <point x="47" y="-42"/>
      <point x="87" y="-72" type="curve" smooth="yes"/>
      <point x="127" y="-103"/>
      <point x="187" y="-94"/>
    </contour>
  </outline>
</glyph>
<glyph name="zero" format="1">
  <advance width="1010"/>
  <unicode hex="0030"/>
  <outline>
    <contour>
      <point x="405" y="-153" type="curve" smooth="yes"/>
      <point x="587" y="-153" type="line"/>
      <point x="646" y="-152" type="line" smooth="yes"/>
      <point x="652" y="-151"/>
      <point x="663" y="-150"/>
      <point x="669" y="-149" type="curve" smooth="yes"/>
      <point x="726" y="-139" type="line" smooth="yes"/>
      <point x="738" y="-137"/>
      <point x="756" y="-131"/>
      <point x="766" y="-126" type="curve" smooth="yes"/>
      <point x="816" y="-101" type="line" smooth="yes"/>
      <point x="832" y="-94"/>
      <point x="854" y="-77"/>
      <point x="866" y="-64" type="curve" smooth="yes"/>
      <point x="901" y="-23" type="line" smooth="yes"/>
      <point x="913" y="-9"/>
      <point x="927" y="16"/>
      <point x="932" y="33" type="curve" smooth="yes"/>
      <point x="950" y="88" type="line" smooth="yes"/>
      <point x="953" y="98"/>
      <point x="956" y="116"/>
      <point x="957" y="127" type="curve" smooth="yes"/>
      <point x="960" y="187" type="line"/>
      <point x="960" y="252" type="line"/>
      <point x="960" y="552" type="line"/>
      <point x="960" y="612" type="line" smooth="yes"/>
      <point x="960" y="619"/>
      <point x="958" y="632"/>
      <point x="957" y="639" type="curve" smooth="yes"/>
      <point x="947" y="694" type="line" smooth="yes"/>
      <point x="945" y="704"/>
      <point x="940" y="720"/>
      <point x="935" y="730" type="curve" smooth="yes"/>
      <point x="910" y="785" type="line" smooth="yes"/>
      <point x="905" y="796"/>
      <point x="894" y="812"/>
      <point x="886" y="823" type="curve"/>
      <point x="878" y="834"/>
      <point x="869" y="845"/>
      <point x="858" y="854" type="curve"/>
      <point x="844" y="868" type="line" smooth="yes"/>
      <point x="835" y="878"/>
      <point x="817" y="892"/>
      <point x="805" y="899" type="curve" smooth="yes"/>
      <point x="758" y="925" type="line" smooth="yes"/>
      <point x="748" y="930"/>
      <point x="731" y="937"/>
      <point x="720" y="940" type="curve" smooth="yes"/>
      <point x="675" y="950" type="line" smooth="yes"/>
      <point x="667" y="952"/>
      <point x="653" y="954"/>
      <point x="645" y="955" type="curve" smooth="yes"/>
      <point x="589" y="957" type="line"/>
      <point x="523" y="957" type="line"/>
      <point x="403" y="957" type="line"/>
      <point x="343" y="954" type="line" smooth="yes"/>
      <point x="336" y="953"/>
      <point x="324" y="951"/>
      <point x="316" y="950" type="curve" smooth="yes"/>
      <point x="264" y="937" type="line" smooth="yes"/>
      <point x="252" y="934"/>
      <point x="233" y="927"/>
      <point x="222" y="920" type="curve" smooth="yes"/>
      <point x="176" y="894" type="line" smooth="yes"/>
      <point x="161" y="885"/>
      <point x="140" y="866"/>
      <point x="130" y="852" type="curve" smooth="yes"/>
      <point x="98" y="809" type="line" smooth="yes"/>
      <point x="88" y="796"/>
      <point x="76" y="772"/>
      <point x="72" y="756" type="curve" smooth="yes"/>
      <point x="57" y="700" type="line" smooth="yes"/>
      <point x="55" y="691"/>
      <point x="53" y="676"/>
      <point x="52" y="666" type="curve" smooth="yes"/>
      <point x="50" y="608" type="line"/>
      <point x="50" y="542" type="line"/>
      <point x="50" y="242" type="line"/>
      <point x="50" y="181" type="line" smooth="yes"/>
      <point x="50" y="177"/>
      <point x="51" y="170"/>
      <point x="51" y="166" type="curve" smooth="yes"/>
      <point x="56" y="111" type="line" smooth="yes"/>
      <point x="58" y="99"/>
      <point x="62" y="80"/>
      <point x="67" y="69" type="curve" smooth="yes"/>
      <point x="89" y="14" type="line" smooth="yes"/>
      <point x="94" y="0"/>
      <point x="107" y="-20"/>
      <point x="119" y="-33" type="curve"/>
      <point x="127" y="-46"/>
      <point x="138" y="-58"/>
      <point x="151" y="-68" type="curve" smooth="yes"/>
      <point x="154" y="-70"/>
      <point x="157" y="-72"/>
      <point x="160" y="-73" type="curve"/>
      <point x="166" y="-79" type="line" smooth="yes"/>
      <point x="178" y="-91"/>
      <point x="200" y="-105"/>
      <point x="216" y="-111" type="curve" smooth="yes"/>
      <point x="271" y="-134" type="line" smooth="yes"/>
      <point x="280" y="-137"/>
      <point x="295" y="-141"/>
      <point x="305" y="-143" type="curve" smooth="yes"/>
      <point x="349" y="-150" type="line" smooth="yes"/>
      <point x="353" y="-151"/>
      <point x="361" y="-151"/>
      <point x="366" y="-151" type="curve" smooth="yes"/>
      <point x="395" y="-153" type="line"/>
      <point x="398" y="-153"/>
      <point x="402" y="-153"/>
    </contour>
    <contour>
      <point x="360" y="542" type="line"/>
      <point x="360" y="596" type="line"/>
      <point x="361" y="638" type="line"/>
      <point x="362" y="642" type="line"/>
      <point x="376" y="645" type="line"/>
      <point x="403" y="647" type="line"/>
      <point x="499" y="647" type="line"/>
      <point x="360" y="464" type="line"/>
    </contour>
    <contour>
      <point x="650" y="252" type="line"/>
      <point x="650" y="204" type="line"/>
      <point x="648" y="163" type="line"/>
      <point x="648" y="162" type="line"/>
      <point x="626" y="158" type="line"/>
      <point x="587" y="157" type="line"/>
      <point x="516" y="157" type="line"/>
      <point x="650" y="334" type="line"/>
    </contour>
  </outline>
</glyph>
<glyph name="one" format="1">
  <advance width="994"/>
  <unicode hex="0031"/>
  <outline>
    <contour>
      <point x="197" y="-146" type="curve" smooth="yes"/>
      <point x="797" y="-146" type="line" smooth="yes"/>
      <point x="876" y="-146"/>
      <point x="944" y="-78"/>
      <point x="944" y="1" type="curve" smooth="yes"/>
      <point x="944" y="80"/>
      <point x="876" y="148"/>
      <point x="797" y="148" type="curve" smooth="yes"/>
      <point x="535" y="148" type="line"/>
      <point x="628" y="335" type="line" smooth="yes"/>
      <point x="661" y="399"/>
      <point x="638" y="484"/>
      <point x="579" y="523" type="curve" smooth="yes"/>
      <point x="279" y="723" type="line" smooth="yes"/>
      <point x="212" y="767"/>
      <point x="119" y="749"/>
      <point x="75" y="683" type="curve" smooth="yes"/>
      <point x="31" y="616"/>
      <point x="49" y="523"/>
      <point x="115" y="479" type="curve" smooth="yes"/>
      <point x="307" y="351" type="line"/>
      <point x="206" y="148" type="line"/>
      <point x="197" y="148" type="line" smooth="yes"/>
      <point x="118" y="148"/>
      <point x="50" y="80"/>
      <point x="50" y="1" type="curve" smooth="yes"/>
      <point x="50" y="-78"/>
      <point x="118" y="-146"/>
    </contour>
  </outline>
</glyph>
<glyph name="two" format="1">
  <advance width="950"/>
  <unicode hex="0032"/>
  <outline>
    <contour>
      <point x="268" y="510" type="curve" smooth="yes"/>
      <point x="250" y="501" type="line"/>
      <point x="274" y="519"/>
      <point x="291" y="545"/>
      <point x="298" y="575" type="curve" smooth="yes"/>
      <point x="312" y="649" type="line"/>
      <point x="348" y="672" type="line"/>
      <point x="435" y="675" type="line"/>
      <point x="550" y="675" type="line"/>
      <point x="616" y="659" type="line"/>
      <point x="641" y="622" type="line"/>
      <point x="643" y="567" type="line"/>
      <point x="626" y="537" type="line"/>
      <point x="568" y="525" type="line"/>
      <point x="453" y="525" type="line"/>
      <point x="322" y="523" type="line" smooth="yes"/>
      <point x="306" y="523"/>
      <point x="282" y="517"/>
    </contour>
    <contour>
      <point x="775" y="-125" type="line" smooth="yes"/>
      <point x="843" y="-125"/>
      <point x="900" y="-68"/>
      <point x="900" y="0" type="curve" smooth="yes"/>
      <point x="900" y="67"/>
      <point x="843" y="125"/>
      <point x="775" y="125" type="curve" smooth="yes"/>
      <point x="315" y="125" type="line"/>
      <point x="300" y="144" type="line"/>
      <point x="300" y="200" type="line"/>
      <point x="316" y="254" type="line"/>
      <point x="354" y="274" type="line"/>
      <point x="457" y="275" type="line"/>
      <point x="582" y="275" type="line" smooth="yes"/>
      <point x="589" y="275"/>
      <point x="601" y="276"/>
      <point x="608" y="278" type="curve" smooth="yes"/>
      <point x="732" y="304" type="line" smooth="yes"/>
      <point x="761" y="311"/>
      <point x="798" y="337"/>
      <point x="813" y="363" type="curve" smooth="yes"/>
      <point x="877" y="471" type="line" smooth="yes"/>
      <point x="888" y="489"/>
      <point x="895" y="519"/>
      <point x="895" y="540" type="curve" smooth="yes"/>
      <point x="890" y="668" type="line" smooth="yes"/>
      <point x="889" y="688"/>
      <point x="879" y="718"/>
      <point x="868" y="735" type="curve" smooth="yes"/>
      <point x="794" y="840" type="line" smooth="yes"/>
      <point x="779" y="862"/>
      <point x="747" y="884"/>
      <point x="721" y="890" type="curve" smooth="yes"/>
      <point x="595" y="921" type="line" smooth="yes"/>
      <point x="587" y="923"/>
      <point x="573" y="925"/>
      <point x="565" y="925" type="curve" smooth="yes"/>
      <point x="435" y="925" type="line"/>
      <point x="304" y="921" type="line" smooth="yes"/>
      <point x="284" y="921"/>
      <point x="255" y="911"/>
      <point x="238" y="900" type="curve" smooth="yes"/>
      <point x="130" y="828" type="line" smooth="yes"/>
      <point x="107" y="812"/>
      <point x="83" y="776"/>
      <point x="77" y="749" type="curve" smooth="yes"/>
      <point x="52" y="625" type="line" smooth="yes"/>
      <point x="39" y="559"/>
      <point x="84" y="491"/>
      <point x="150" y="477" type="curve" smooth="yes"/>
      <point x="170" y="474"/>
      <point x="190" y="475"/>
      <point x="208" y="480" type="curve"/>
      <point x="155" y="453" type="line" smooth="yes"/>
      <point x="128" y="440"/>
      <point x="99" y="405"/>
      <point x="91" y="376" type="curve" smooth="yes"/>
      <point x="55" y="252" type="line" smooth="yes"/>
      <point x="53" y="243"/>
      <point x="50" y="228"/>
      <point x="50" y="218" type="curve" smooth="yes"/>
      <point x="50" y="100" type="line" smooth="yes"/>
      <point x="50" y="76"/>
      <point x="62" y="41"/>
      <point x="77" y="22" type="curve" smooth="yes"/>
      <point x="157" y="-78" type="line" smooth="yes"/>
      <point x="178" y="-104"/>
      <point x="222" y="-125"/>
      <point x="255" y="-125" type="curve" smooth="yes"/>
    </contour>
  </outline>
</glyph>
<glyph name="three" format="1">
  <advance width="905"/>
  <unicode hex="0033"/>
  <outline>
    <contour>
      <point x="335" y="-102" type="curve" smooth="yes"/>
      <point x="589" y="-101" type="line" smooth="yes"/>
      <point x="616" y="-101"/>
      <point x="651" y="-85"/>
      <point x="668" y="-64" type="curve" smooth="yes"/>
      <point x="832" y="135" type="line" smooth="yes"/>
      <point x="861" y="170"/>
      <point x="862" y="226"/>
      <point x="836" y="262" type="curve" smooth="yes"/>
      <point x="730" y="406" type="line"/>
      <point x="837" y="560" type="line" smooth="yes"/>
      <point x="864" y="599"/>
      <point x="859" y="657"/>
      <point x="826" y="691" type="curve" smooth="yes"/>
      <point x="647" y="873" type="line" smooth="yes"/>
      <point x="630" y="890"/>
      <point x="597" y="904"/>
      <point x="573" y="904" type="curve" smooth="yes"/>
      <point x="318" y="903" type="line" smooth="yes"/>
      <point x="291" y="902"/>
      <point x="256" y="886"/>
      <point x="239" y="866" type="curve" smooth="yes"/>
      <point x="74" y="667" type="line" smooth="yes"/>
      <point x="38" y="624"/>
      <point x="44" y="557"/>
      <point x="87" y="522" type="curve" smooth="yes"/>
      <point x="130" y="486"/>
      <point x="197" y="492"/>
      <point x="232" y="535" type="curve" smooth="yes"/>
      <point x="367" y="697" type="line"/>
      <point x="531" y="698" type="line"/>
      <point x="619" y="608" type="line"/>
      <point x="519" y="463" type="line" smooth="yes"/>
      <point x="495" y="429"/>
      <point x="496" y="376"/>
      <point x="520" y="343" type="curve" smooth="yes"/>
      <point x="622" y="205" type="line"/>
      <point x="540" y="105" type="line"/>
      <point x="378" y="104" type="line"/>
      <point x="249" y="236" type="line"/>
      <point x="235" y="275"/>
      <point x="196" y="304"/>
      <point x="153" y="304" type="curve" smooth="yes"/>
      <point x="97" y="304"/>
      <point x="50" y="256"/>
      <point x="50" y="201" type="curve" smooth="yes"/>
      <point x="50" y="187" type="line" smooth="yes"/>
      <point x="50" y="164"/>
      <point x="63" y="132"/>
      <point x="79" y="115" type="curve" smooth="yes"/>
      <point x="262" y="-71" type="line" smooth="yes"/>
      <point x="278" y="-88"/>
      <point x="311" y="-102"/>
    </contour>
  </outline>
</glyph>
<glyph name="four" format="1">
  <advance width="963"/>
  <unicode hex="0034"/>
  <outline>
    <contour>
      <point x="763" y="-149" type="curve" smooth="yes"/>
      <point x="844" y="-149"/>
      <point x="913" y="-80"/>
      <point x="913" y="1" type="curve" smooth="yes"/>
      <point x="913" y="600" type="line" smooth="yes"/>
      <point x="913" y="681"/>
      <point x="844" y="750"/>
      <point x="763" y="750" type="curve" smooth="yes"/>
      <point x="682" y="750"/>
      <point x="613" y="681"/>
      <point x="613" y="600" type="curve" smooth="yes"/>
      <point x="613" y="420" type="line"/>
      <point x="589" y="437"/>
      <point x="551" y="450"/>
      <point x="523" y="450" type="curve" smooth="yes"/>
      <point x="437" y="450" type="line"/>
      <point x="467" y="514" type="line"/>
      <point x="592" y="723" type="line" smooth="yes"/>
      <point x="633" y="792"/>
      <point x="610" y="887"/>
      <point x="540" y="929" type="curve" smooth="yes"/>
      <point x="471" y="970"/>
      <point x="376" y="947"/>
      <point x="334" y="877" type="curve" smooth="yes"/>
      <point x="205" y="662" type="line" smooth="yes"/>
      <point x="203" y="658"/>
      <point x="199" y="651"/>
      <point x="197" y="647" type="curve" smooth="yes"/>
      <point x="67" y="363" type="line" smooth="yes"/>
      <point x="17" y="255"/>
      <point x="85" y="150"/>
      <point x="203" y="150" type="curve" smooth="yes"/>
      <point x="469" y="150" type="line"/>
      <point x="613" y="30" type="line"/>
      <point x="613" y="1" type="line" smooth="yes"/>
      <point x="613" y="-80"/>
      <point x="682" y="-149"/>
    </contour>
  </outline>
</glyph>
<glyph name="five" format="1">
  <advance width="786"/>
  <unicode hex="0035"/>
  <outline>
    <contour>
      <point x="624" y="42" type="curve" smooth="yes"/>
      <point x="281" y="402" type="line"/>
      <point x="593" y="758" type="line"/>
      <point x="693" y="758" type="line" smooth="yes"/>
      <point x="716" y="758"/>
      <point x="736" y="778"/>
      <point x="736" y="801" type="curve" smooth="yes"/>
      <point x="736" y="824"/>
      <point x="716" y="844"/>
      <point x="693" y="844" type="curve" smooth="yes"/>
      <point x="573" y="844" type="line" smooth="yes"/>
      <point x="562" y="844"/>
      <point x="548" y="837"/>
      <point x="541" y="829" type="curve" smooth="yes"/>
      <point x="191" y="429" type="line" smooth="yes"/>
      <point x="176" y="413"/>
      <point x="177" y="387"/>
      <point x="192" y="371" type="curve" smooth="yes"/>
      <point x="432" y="119" type="line"/>
      <point x="108" y="241" type="line" smooth="yes"/>
      <point x="86" y="249"/>
      <point x="61" y="238"/>
      <point x="53" y="216" type="curve" smooth="yes"/>
      <point x="45" y="194"/>
      <point x="56" y="169"/>
      <point x="78" y="161" type="curve" smooth="yes"/>
      <point x="577" y="-28" type="line" smooth="yes"/>
      <point x="623" y="-45"/>
      <point x="657" y="7"/>
    </contour>
  </outline>
</glyph>
<glyph name="six" format="1">
  <advance width="839"/>
  <unicode hex="0036"/>
  <outline>
    <contour>
      <point x="295" y="-67" type="curve" smooth="yes"/>
      <point x="694" y="-10" type="line" smooth="yes"/>
      <point x="748" y="-2"/>
      <point x="772" y="50"/>
      <point x="743" y="97" type="curve" smooth="yes"/>
      <point x="529" y="438" type="line" smooth="yes"/>
      <point x="524" y="446"/>
      <point x="513" y="457"/>
      <point x="505" y="462" type="curve" smooth="yes"/>
      <point x="224" y="622" type="line"/>
      <point x="233" y="695" type="line"/>
      <point x="539" y="726" type="line"/>
      <point x="664" y="559" type="line" smooth="yes"/>
      <point x="687" y="529"/>
      <point x="732" y="522"/>
      <point x="762" y="545" type="curve" smooth="yes"/>
      <point x="792" y="568"/>
      <point x="799" y="613"/>
      <point x="776" y="643" type="curve" smooth="yes"/>
      <point x="627" y="841" type="line" smooth="yes"/>
      <point x="614" y="859"/>
      <point x="586" y="871"/>
      <point x="564" y="869" type="curve" smooth="yes"/>
      <point x="164" y="828" type="line" smooth="yes"/>
      <point x="133" y="825"/>
      <point x="105" y="798"/>
      <point x="101" y="768" type="curve" smooth="yes"/>
      <point x="88" y="663" type="line"/>
      <point x="76" y="657"/>
      <point x="66" y="648"/>
      <point x="59" y="636" type="curve" smooth="yes"/>
      <point x="43" y="607"/>
      <point x="50" y="570"/>
      <point x="73" y="549" type="curve"/>
      <point x="51" y="370" type="line" smooth="yes"/>
      <point x="49" y="359"/>
      <point x="52" y="342"/>
      <point x="56" y="332" type="curve" smooth="yes"/>
      <point x="222" y="-27" type="line" smooth="yes"/>
      <point x="234" y="-53"/>
      <point x="267" y="-71"/>
    </contour>
    <contour>
      <point x="327" y="79" type="line"/>
      <point x="192" y="372" type="line"/>
      <point x="205" y="472" type="line"/>
      <point x="420" y="349" type="line"/>
      <point x="567" y="113" type="line"/>
    </contour>
  </outline>
</glyph>
<glyph name="seven" format="1">
  <advance width="981"/>
  <unicode hex="0037"/>
  <outline>
    <contour>
      <point x="532" y="-88" type="curve" smooth="yes"/>
      <point x="881" y="437" type="line" smooth="yes"/>
      <point x="893" y="454"/>
      <point x="904" y="484"/>
      <point x="906" y="504" type="curve" smooth="yes"/>
      <point x="930" y="710" type="line" smooth="yes"/>
      <point x="938" y="777"/>
      <point x="892" y="849"/>
      <point x="829" y="872" type="curve" smooth="yes"/>
      <point x="635" y="942" type="line" smooth="yes"/>
      <point x="621" y="947"/>
      <point x="598" y="951"/>
      <point x="583" y="951" type="curve" smooth="yes"/>
      <point x="204" y="951" type="line" smooth="yes"/>
      <point x="121" y="951"/>
      <point x="50" y="880"/>
      <point x="50" y="797" type="curve" smooth="yes"/>
      <point x="50" y="714"/>
      <point x="121" y="643"/>
      <point x="204" y="643" type="curve" smooth="yes"/>
      <point x="556" y="643" type="line"/>
      <point x="610" y="624" type="line"/>
      <point x="604" y="576" type="line"/>
      <point x="276" y="82" type="line" smooth="yes"/>
      <point x="230" y="13"/>
      <point x="249" y="-85"/>
      <point x="319" y="-131" type="curve" smooth="yes"/>
      <point x="388" y="-177"/>
      <point x="486" y="-158"/>
    </contour>
  </outline>
</glyph>
<glyph name="eight" format="1">
  <advance width="875"/>
  <unicode hex="0038"/>
  <outline>
    <contour>
      <point x="347" y="-89" type="curve" smooth="yes"/>
      <point x="527" y="-89" type="line" smooth="yes"/>
      <point x="534" y="-89"/>
      <point x="546" y="-87"/>
      <point x="553" y="-85" type="curve" smooth="yes"/>
      <point x="721" y="-35" type="line" smooth="yes"/>
      <point x="747" y="-26"/>
      <point x="774" y="2"/>
      <point x="781" y="29" type="curve" smooth="yes"/>
      <point x="823" y="199" type="line" smooth="yes"/>
      <point x="828" y="218"/>
      <point x="824" y="246"/>
      <point x="815" y="263" type="curve" smooth="yes"/>
      <point x="748" y="388" type="line"/>
      <point x="770" y="401"/>
      <point x="790" y="428"/>
      <point x="794" y="452" type="curve" smooth="yes"/>
      <point x="824" y="629" type="line" smooth="yes"/>
      <point x="827" y="649"/>
      <point x="820" y="680"/>
      <point x="807" y="696" type="curve" smooth="yes"/>
      <point x="700" y="841" type="line" smooth="yes"/>
      <point x="686" y="860"/>
      <point x="657" y="876"/>
      <point x="634" y="877" type="curve" smooth="yes"/>
      <point x="453" y="889" type="line" smooth="yes"/>
      <point x="451" y="889"/>
      <point x="447" y="889"/>
      <point x="445" y="889" type="curve" smooth="yes"/>
      <point x="268" y="885" type="line" smooth="yes"/>
      <point x="249" y="885"/>
      <point x="222" y="874"/>
      <point x="209" y="861" type="curve" smooth="yes"/>
      <point x="84" y="743" type="line" smooth="yes"/>
      <point x="68" y="728"/>
      <point x="56" y="698"/>
      <point x="56" y="677" type="curve" smooth="yes"/>
      <point x="60" y="499" type="line" smooth="yes"/>
      <point x="60" y="473"/>
      <point x="78" y="440"/>
      <point x="100" y="426" type="curve" smooth="yes"/>
      <point x="140" y="401" type="line"/>
      <point x="64" y="283" type="line" smooth="yes"/>
      <point x="53" y="266"/>
      <point x="47" y="237"/>
      <point x="51" y="217" type="curve" smooth="yes"/>
      <point x="87" y="38" type="line" smooth="yes"/>
      <point x="93" y="10"/>
      <point x="120" y="-21"/>
      <point x="147" y="-29" type="curve" smooth="yes"/>
      <point x="320" y="-85" type="line" smooth="yes"/>
      <point x="327" y="-87"/>
      <point x="339" y="-89"/>
    </contour>
    <contour>
      <point x="329" y="490" type="line"/>
      <point x="237" y="550" type="line"/>
      <point x="235" y="641" type="line"/>
      <point x="306" y="708" type="line"/>
      <point x="445" y="711" type="line"/>
      <point x="581" y="702" type="line"/>
      <point x="642" y="621" type="line"/>
      <point x="627" y="531" type="line"/>
      <point x="520" y="489" type="line"/>
      <point x="480" y="489" type="line"/>
    </contour>
    <contour>
      <point x="423" y="311" type="line"/>
      <point x="462" y="311" type="line"/>
      <point x="472" y="311" type="line"/>
      <point x="595" y="297" type="line"/>
      <point x="642" y="209" type="line"/>
      <point x="621" y="121" type="line"/>
      <point x="514" y="89" type="line"/>
      <point x="361" y="89" type="line"/>
      <point x="251" y="124" type="line"/>
      <point x="233" y="217" type="line"/>
      <point x="288" y="302" type="line"/>
    </contour>
  </outline>
</glyph>
<glyph name="nine" format="1">
  <advance width="794"/>
  <unicode hex="0039"/>
  <outline>
    <contour>
      <point x="600" y="421" type="line" smooth="yes"/>
      <point x="593" y="432"/>
      <point x="576" y="441"/>
      <point x="563" y="442" type="curve" smooth="yes"/>
      <point x="337" y="447" type="line"/>
      <point x="160" y="523" type="line"/>
      <point x="168" y="690" type="line"/>
      <point x="354" y="753" type="line"/>
      <point x="548" y="746" type="line"/>
      <point x="650" y="577" type="line"/>
      <point x="650" y="360" type="line"/>
      <point x="650" y="350" type="line"/>
    </contour>
    <contour>
      <point x="497" y="-47" type="line" smooth="yes"/>
      <point x="505" y="-47"/>
      <point x="516" y="-44"/>
      <point x="522" y="-40" type="curve" smooth="yes"/>
      <point x="717" y="85" type="line" smooth="yes"/>
      <point x="729" y="93"/>
      <point x="739" y="110"/>
      <point x="739" y="124" type="curve" smooth="yes"/>
      <point x="740" y="182" type="line"/>
      <point x="745" y="193"/>
      <point x="745" y="205"/>
      <point x="741" y="217" type="curve"/>
      <point x="744" y="360" type="line"/>
      <point x="744" y="590" type="line" smooth="yes"/>
      <point x="744" y="597"/>
      <point x="741" y="608"/>
      <point x="737" y="614" type="curve" smooth="yes"/>
      <point x="616" y="816" type="line" smooth="yes"/>
      <point x="608" y="828"/>
      <point x="591" y="838"/>
      <point x="577" y="839" type="curve" smooth="yes"/>
      <point x="349" y="847" type="line" smooth="yes"/>
      <point x="344" y="847"/>
      <point x="336" y="846"/>
      <point x="332" y="845" type="curve" smooth="yes"/>
      <point x="107" y="768" type="line" smooth="yes"/>
      <point x="90" y="763"/>
      <point x="76" y="744"/>
      <point x="75" y="726" type="curve" smooth="yes"/>
      <point x="65" y="495" type="line" smooth="yes"/>
      <point x="64" y="477"/>
      <point x="77" y="457"/>
      <point x="93" y="449" type="curve" smooth="yes"/>
      <point x="308" y="357" type="line" smooth="yes"/>
      <point x="313" y="355"/>
      <point x="321" y="353"/>
      <point x="326" y="353" type="curve" smooth="yes"/>
      <point x="537" y="348" type="line"/>
      <point x="646" y="191" type="line"/>
      <point x="645" y="151" type="line"/>
      <point x="483" y="47" type="line"/>
      <point x="281" y="48" type="line"/>
      <point x="145" y="186" type="line"/>
      <point x="144" y="202" type="line" smooth="yes"/>
      <point x="143" y="227"/>
      <point x="120" y="248"/>
      <point x="95" y="247" type="curve" smooth="yes"/>
      <point x="70" y="246"/>
      <point x="49" y="223"/>
      <point x="50" y="198" type="curve" smooth="yes"/>
      <point x="51" y="164" type="line" smooth="yes"/>
      <point x="52" y="154"/>
      <point x="58" y="140"/>
      <point x="65" y="132" type="curve" smooth="yes"/>
      <point x="228" y="-32" type="line" smooth="yes"/>
      <point x="236" y="-40"/>
      <point x="250" y="-46"/>
      <point x="261" y="-46" type="curve" smooth="yes"/>
    </contour>
  </outline>
</glyph>
<glyph name="colon" format="1">
  <advance width="256"/>
  <unicode hex="003A"/>
  <outline>
    <contour>
      <point x="127" y="506" type="curve" smooth="yes"/>
      <point x="169" y="506"/>
      <point x="204" y="541"/>
      <point x="204" y="583" type="curve" smooth="yes"/>
      <point x="204" y="592" type="line" smooth="yes"/>
      <point x="204" y="634"/>
      <point x="169" y="669"/>
      <point x="127" y="669" type="curve" smooth="yes"/>
      <point x="85" y="669"/>
      <point x="50" y="634"/>
      <point x="50" y="592" type="curve" smooth="yes"/>
      <point x="50" y="583" type="line" smooth="yes"/>
      <point x="50" y="541"/>
      <point x="85" y="506"/>
    </contour>
    <contour>
      <point x="129" y="-76" type="curve" smooth="yes"/>
      <point x="171" y="-76"/>
      <point x="206" y="-41"/>
      <point x="206" y="1" type="curve" smooth="yes"/>
      <point x="206" y="5" type="line" smooth="yes"/>
      <point x="206" y="47"/>
      <point x="171" y="82"/>
      <point x="129" y="82" type="curve" smooth="yes"/>
      <point x="87" y="82"/>
      <point x="52" y="47"/>
      <point x="52" y="5" type="curve" smooth="yes"/>
      <point x="52" y="1" type="line" smooth="yes"/>
      <point x="52" y="-41"/>
      <point x="87" y="-76"/>
    </contour>
  </outline>
</glyph>
<glyph name="semicolon" format="1">
  <advance width="330"/>
  <unicode hex="003B"/>
  <outline>
    <contour>
      <point x="215" y="518" type="curve" smooth="yes"/>
      <point x="250" y="518"/>
      <point x="280" y="548"/>
      <point x="280" y="583" type="curve" smooth="yes"/>
      <point x="280" y="592" type="line" smooth="yes"/>
      <point x="280" y="627"/>
      <point x="250" y="657"/>
      <point x="215" y="657" type="curve" smooth="yes"/>
      <point x="180" y="657"/>
      <point x="150" y="627"/>
      <point x="150" y="592" type="curve" smooth="yes"/>
      <point x="150" y="583" type="line" smooth="yes"/>
      <point x="150" y="548"/>
      <point x="180" y="518"/>
    </contour>
    <contour>
      <point x="244" y="250" type="curve" smooth="yes"/>
      <point x="213" y="266"/>
      <point x="173" y="252"/>
      <point x="157" y="221" type="curve" smooth="yes"/>
      <point x="57" y="21" type="line" smooth="yes"/>
      <point x="41" y="-10"/>
      <point x="55" y="-50"/>
      <point x="86" y="-66" type="curve" smooth="yes"/>
      <point x="117" y="-82"/>
      <point x="157" y="-68"/>
      <point x="173" y="-37" type="curve" smooth="yes"/>
      <point x="273" y="163" type="line" smooth="yes"/>
      <point x="289" y="194"/>
      <point x="275" y="234"/>
    </contour>
  </outline>
</glyph>
<glyph name="less" format="1">
  <advance width="604"/>
  <unicode hex="003C"/>
  <outline>
    <contour>
      <point x="545" y="61" type="curve" smooth="yes"/>
      <point x="568" y="106"/>
      <point x="548" y="165"/>
      <point x="502" y="188" type="curve" smooth="yes"/>
      <point x="468" y="205" type="line"/>
      <point x="321" y="327" type="line"/>
      <point x="502" y="418" type="line" smooth="yes"/>
      <point x="548" y="441"/>
      <point x="568" y="500"/>
      <point x="545" y="545" type="curve" smooth="yes"/>
      <point x="522" y="591"/>
      <point x="463" y="611"/>
      <point x="418" y="588" type="curve" smooth="yes"/>
      <point x="106" y="432" type="line" smooth="yes"/>
      <point x="40" y="399"/>
      <point x="31" y="322"/>
      <point x="88" y="274" type="curve" smooth="yes"/>
      <point x="355" y="52" type="line" smooth="yes"/>
      <point x="359" y="48"/>
      <point x="368" y="43"/>
      <point x="373" y="40" type="curve" smooth="yes"/>
      <point x="418" y="18" type="line" smooth="yes"/>
      <point x="463" y="-5"/>
      <point x="522" y="15"/>
    </contour>
  </outline>
</glyph>
<glyph name="greater" format="1">
  <advance width="625"/>
  <unicode hex="003E"/>
  <outline>
    <contour>
      <point x="241" y="1" type="curve" smooth="yes"/>
      <point x="330" y="45" type="line" smooth="yes"/>
      <point x="346" y="53"/>
      <point x="367" y="71"/>
      <point x="378" y="85" type="curve" smooth="yes"/>
      <point x="546" y="312" type="line" smooth="yes"/>
      <point x="598" y="381"/>
      <point x="576" y="471"/>
      <point x="499" y="510" type="curve" smooth="yes"/>
      <point x="241" y="639" type="line" smooth="yes"/>
      <point x="177" y="671"/>
      <point x="95" y="644"/>
      <point x="63" y="579" type="curve" smooth="yes"/>
      <point x="31" y="515"/>
      <point x="58" y="433"/>
      <point x="123" y="401" type="curve" smooth="yes"/>
      <point x="238" y="343" type="line"/>
      <point x="183" y="269" type="line"/>
      <point x="123" y="239" type="line" smooth="yes"/>
      <point x="58" y="207"/>
      <point x="31" y="125"/>
      <point x="63" y="61" type="curve" smooth="yes"/>
      <point x="95" y="-4"/>
      <point x="177" y="-31"/>
    </contour>
  </outline>
</glyph>
<glyph name="question" format="1">
  <advance width="779"/>
  <unicode hex="003F"/>
  <outline>
    <contour>
      <point x="366" y="-118" type="curve" smooth="yes"/>
      <point x="430" y="-118"/>
      <point x="484" y="-64"/>
      <point x="484" y="0" type="curve" smooth="yes"/>
      <point x="484" y="11" type="line" smooth="yes"/>
      <point x="484" y="49"/>
      <point x="465" y="83"/>
      <point x="436" y="105" type="curve"/>
      <point x="440" y="108"/>
      <point x="444" y="112"/>
      <point x="448" y="115" type="curve" smooth="yes"/>
      <point x="693" y="352" type="line" smooth="yes"/>
      <point x="714" y="373"/>
      <point x="730" y="415"/>
      <point x="728" y="445" type="curve" smooth="yes"/>
      <point x="706" y="783" type="line" smooth="yes"/>
      <point x="702" y="845"/>
      <point x="648" y="895"/>
      <point x="585" y="893" type="curve" smooth="yes"/>
      <point x="244" y="883" type="line" smooth="yes"/>
      <point x="205" y="882"/>
      <point x="159" y="852"/>
      <point x="141" y="817" type="curve" smooth="yes"/>
      <point x="61" y="650" type="line" smooth="yes"/>
      <point x="33" y="593"/>
      <point x="58" y="521"/>
      <point x="116" y="493" type="curve" smooth="yes"/>
      <point x="173" y="465"/>
      <point x="245" y="490"/>
      <point x="273" y="548" type="curve" smooth="yes"/>
      <point x="322" y="649" type="line"/>
      <point x="478" y="654" type="line"/>
      <point x="489" y="484" type="line"/>
      <point x="284" y="285" type="line" smooth="yes"/>
      <point x="238" y="240"/>
      <point x="237" y="164"/>
      <point x="281" y="118" type="curve" smooth="yes"/>
      <point x="286" y="113"/>
      <point x="291" y="109"/>
      <point x="296" y="105" type="curve"/>
      <point x="267" y="83"/>
      <point x="248" y="49"/>
      <point x="248" y="11" type="curve" smooth="yes"/>
      <point x="248" y="0" type="line" smooth="yes"/>
      <point x="248" y="-64"/>
      <point x="302" y="-118"/>
    </contour>
  </outline>
</glyph>
<glyph name="at" format="1">
  <advance width="972"/>
  <unicode hex="0040"/>
  <outline>
    <contour>
      <point x="449" y="251" type="line"/>
      <point x="358" y="329" type="line"/>
      <point x="449" y="485" type="line"/>
    </contour>
    <contour>
      <point x="687" y="-130" type="curve" smooth="yes"/>
      <point x="733" y="-75"/>
      <point x="727" y="11"/>
      <point x="674" y="59" type="curve"/>
      <point x="701" y="84"/>
      <point x="719" y="119"/>
      <point x="719" y="158" type="curve" smooth="yes"/>
      <point x="719" y="240" type="line"/>
      <point x="840" y="167"/>
      <point x="990" y="322"/>
      <point x="888" y="445" type="curve" smooth="yes"/>
      <point x="556" y="844" type="line" smooth="yes"/>
      <point x="492" y="921"/>
      <point x="386" y="913"/>
      <point x="335" y="826" type="curve" smooth="yes"/>
      <point x="67" y="368" type="line" smooth="yes"/>
      <point x="36" y="314"/>
      <point x="49" y="237"/>
      <point x="96" y="197" type="curve" smooth="yes"/>
      <point x="496" y="-145" type="line" smooth="yes"/>
      <point x="552" y="-192"/>
      <point x="639" y="-185"/>
    </contour>
  </outline>
</glyph>
<glyph name="A" format="1">
  <advance width="904"/>
  <unicode hex="0041"/>
  <outline>
    <contour>
      <point x="752" y="-106" type="curve" smooth="yes"/>
      <point x="807" y="-106"/>
      <point x="854" y="-59"/>
      <point x="854" y="-4" type="curve" smooth="yes"/>
      <point x="854" y="464" type="line"/>
      <point x="854" y="553" type="line"/>
      <point x="853" y="640" type="line" smooth="yes"/>
      <point x="853" y="647"/>
      <point x="852" y="660"/>
      <point x="849" y="667" type="curve" smooth="yes"/>
      <point x="824" y="754" type="line" smooth="yes"/>
      <point x="819" y="772"/>
      <point x="803" y="795"/>
      <point x="789" y="807" type="curve" smooth="yes"/>
      <point x="718" y="861" type="line" smooth="yes"/>
      <point x="707" y="869"/>
      <point x="688" y="878"/>
      <point x="674" y="881" type="curve" smooth="yes"/>
      <point x="589" y="896" type="line" smooth="yes"/>
      <point x="584" y="897"/>
      <point x="576" y="898"/>
      <point x="571" y="898" type="curve" smooth="yes"/>
      <point x="482" y="898" type="line" smooth="yes"/>
      <point x="482" y="898"/>
      <point x="482" y="898"/>
      <point x="482" y="898" type="curve" smooth="yes"/>
      <point x="399" y="898" type="line"/>
      <point x="314" y="897" type="line" smooth="yes"/>
      <point x="308" y="897"/>
      <point x="298" y="895"/>
      <point x="292" y="894" type="curve" smooth="yes"/>
      <point x="213" y="876" type="line" smooth="yes"/>
      <point x="199" y="872"/>
      <point x="179" y="862"/>
      <point x="168" y="853" type="curve" smooth="yes"/>
      <point x="105" y="797" type="line" smooth="yes"/>
      <point x="91" y="785"/>
      <point x="77" y="761"/>
      <point x="73" y="744" type="curve" smooth="yes"/>
      <point x="53" y="658" type="line" smooth="yes"/>
      <point x="51" y="652"/>
      <point x="50" y="641"/>
      <point x="50" y="635" type="curve" smooth="yes"/>
      <point x="50" y="550" type="line"/>
      <point x="50" y="187" type="line"/>
      <point x="50" y="96" type="line"/>
      <point x="50" y="6" type="line" smooth="yes"/>
      <point x="51" y="-127"/>
      <point x="248" y="-131"/>
      <point x="254" y="2" type="curve" smooth="yes"/>
      <point x="258" y="84" type="line"/>
      <point x="261" y="166" type="line"/>
      <point x="271" y="216" type="line"/>
      <point x="288" y="233" type="line"/>
      <point x="330" y="243" type="line"/>
      <point x="392" y="244" type="line"/>
      <point x="650" y="244" type="line"/>
      <point x="650" y="-4" type="line" smooth="yes"/>
      <point x="650" y="-59"/>
      <point x="697" y="-106"/>
    </contour>
    <contour>
      <point x="292" y="444" type="curve" smooth="yes"/>
      <point x="254" y="434" type="line"/>
      <point x="254" y="550" type="line"/>
      <point x="254" y="623" type="line"/>
      <point x="264" y="665" type="line"/>
      <point x="284" y="683" type="line"/>
      <point x="328" y="693" type="line"/>
      <point x="402" y="694" type="line"/>
      <point x="482" y="694" type="line"/>
      <point x="561" y="694" type="line"/>
      <point x="613" y="684" type="line"/>
      <point x="638" y="666" type="line"/>
      <point x="650" y="624" type="line"/>
      <point x="650" y="552" type="line"/>
      <point x="650" y="464" type="line"/>
      <point x="650" y="448" type="line"/>
      <point x="392" y="448" type="line"/>
      <point x="315" y="447" type="line" smooth="yes"/>
      <point x="308" y="446"/>
      <point x="298" y="445"/>
    </contour>
  </outline>
</glyph>
<glyph name="B" format="1">
  <advance width="800"/>
  <unicode hex="0042"/>
  <outline>
    <contour>
      <point x="348" y="-48" type="curve" smooth="yes"/>
      <point x="542" y="-47" type="line" smooth="yes"/>
      <point x="552" y="-47"/>
      <point x="566" y="-42"/>
      <point x="574" y="-36" type="curve" smooth="yes"/>
      <point x="726" y="85" type="line" smooth="yes"/>
      <point x="737" y="94"/>
      <point x="746" y="113"/>
      <point x="745" y="128" type="curve" smooth="yes"/>
      <point x="736" y="322" type="line" smooth="yes"/>
      <point x="735" y="338"/>
      <point x="722" y="358"/>
      <point x="708" y="365" type="curve" smooth="yes"/>
      <point x="632" y="405" type="line"/>
      <point x="698" y="434" type="line" smooth="yes"/>
      <point x="713" y="441"/>
      <point x="727" y="460"/>
      <point x="729" y="476" type="curve" smooth="yes"/>
      <point x="750" y="667" type="line" smooth="yes"/>
      <point x="751" y="682"/>
      <point x="743" y="702"/>
      <point x="732" y="712" type="curve" smooth="yes"/>
      <point x="584" y="840" type="line" smooth="yes"/>
      <point x="576" y="847"/>
      <point x="562" y="853"/>
      <point x="551" y="853" type="curve" smooth="yes"/>
      <point x="361" y="856" type="line" smooth="yes"/>
      <point x="358" y="856"/>
      <point x="355" y="856"/>
      <point x="352" y="855" type="curve" smooth="yes"/>
      <point x="159" y="826" type="line" smooth="yes"/>
      <point x="142" y="823"/>
      <point x="124" y="808"/>
      <point x="118" y="792" type="curve" smooth="yes"/>
      <point x="53" y="616" type="line" smooth="yes"/>
      <point x="51" y="611"/>
      <point x="50" y="603"/>
      <point x="50" y="598" type="curve" smooth="yes"/>
      <point x="50" y="222" type="line" smooth="yes"/>
      <point x="50" y="218"/>
      <point x="51" y="211"/>
      <point x="52" y="207" type="curve" smooth="yes"/>
      <point x="106" y="25" type="line" smooth="yes"/>
      <point x="111" y="8"/>
      <point x="129" y="-8"/>
      <point x="147" y="-11" type="curve" smooth="yes"/>
      <point x="338" y="-47" type="line" smooth="yes"/>
      <point x="341" y="-48"/>
      <point x="346" y="-48"/>
    </contour>
    <contour>
      <point x="332" y="456" type="line"/>
      <point x="154" y="456" type="line"/>
      <point x="154" y="589" type="line"/>
      <point x="205" y="728" type="line"/>
      <point x="364" y="752" type="line"/>
      <point x="530" y="749" type="line"/>
      <point x="643" y="651" type="line"/>
      <point x="629" y="517" type="line"/>
      <point x="490" y="456" type="line"/>
    </contour>
    <contour>
      <point x="332" y="352" type="line"/>
      <point x="507" y="352" type="line"/>
      <point x="633" y="287" type="line"/>
      <point x="640" y="150" type="line"/>
      <point x="523" y="57" type="line"/>
      <point x="353" y="56" type="line"/>
      <point x="197" y="85" type="line"/>
      <point x="154" y="229" type="line"/>
      <point x="154" y="352" type="line"/>
    </contour>
  </outline>
</glyph>
<glyph name="C" format="1">
  <advance width="850"/>
  <unicode hex="0043"/>
  <outline>
    <contour>
      <point x="500" y="-76" type="curve" smooth="yes"/>
      <point x="684" y="-38" type="line" smooth="yes"/>
      <point x="708" y="-33"/>
      <point x="733" y="-11"/>
      <point x="741" y="11" type="curve" smooth="yes"/>
      <point x="796" y="174" type="line" smooth="yes"/>
      <point x="809" y="212"/>
      <point x="788" y="256"/>
      <point x="749" y="269" type="curve" smooth="yes"/>
      <point x="711" y="282"/>
      <point x="667" y="261"/>
      <point x="654" y="222" type="curve" smooth="yes"/>
      <point x="613" y="100" type="line"/>
      <point x="478" y="73" type="line"/>
      <point x="320" y="73" type="line"/>
      <point x="209" y="147" type="line"/>
      <point x="200" y="295" type="line"/>
      <point x="200" y="482" type="line"/>
      <point x="203" y="634" type="line"/>
      <point x="301" y="720" type="line"/>
      <point x="459" y="723" type="line"/>
      <point x="596" y="704" type="line"/>
      <point x="656" y="568" type="line" smooth="yes"/>
      <point x="673" y="531"/>
      <point x="718" y="513"/>
      <point x="755" y="529" type="curve" smooth="yes"/>
      <point x="792" y="546"/>
      <point x="810" y="591"/>
      <point x="794" y="628" type="curve" smooth="yes"/>
      <point x="716" y="803" type="line" smooth="yes"/>
      <point x="706" y="825"/>
      <point x="680" y="844"/>
      <point x="657" y="847" type="curve" smooth="yes"/>
      <point x="473" y="872" type="line" smooth="yes"/>
      <point x="470" y="873"/>
      <point x="465" y="873"/>
      <point x="462" y="873" type="curve" smooth="yes"/>
      <point x="271" y="870" type="line" smooth="yes"/>
      <point x="256" y="870"/>
      <point x="235" y="861"/>
      <point x="223" y="851" type="curve" smooth="yes"/>
      <point x="79" y="724" type="line" smooth="yes"/>
      <point x="65" y="712"/>
      <point x="54" y="688"/>
      <point x="53" y="669" type="curve" smooth="yes"/>
      <point x="50" y="484" type="line"/>
      <point x="50" y="295" type="line"/>
      <point x="62" y="100" type="line" smooth="yes"/>
      <point x="63" y="79"/>
      <point x="78" y="54"/>
      <point x="95" y="42" type="curve" smooth="yes"/>
      <point x="256" y="-64" type="line" smooth="yes"/>
      <point x="266" y="-71"/>
      <point x="285" y="-77"/>
      <point x="297" y="-77" type="curve" smooth="yes"/>
      <point x="485" y="-77" type="line" smooth="yes"/>
      <point x="489" y="-77"/>
      <point x="496" y="-76"/>
    </contour>
  </outline>
</glyph>
<glyph name="D" format="1">
  <advance width="799"/>
  <unicode hex="0044"/>
  <outline>
    <contour>
      <point x="393" y="-38" type="curve" smooth="yes"/>
      <point x="733" y="272" type="line" smooth="yes"/>
      <point x="742" y="280"/>
      <point x="749" y="297"/>
      <point x="749" y="309" type="curve" smooth="yes"/>
      <point x="749" y="589" type="line" smooth="yes"/>
      <point x="749" y="591"/>
      <point x="749" y="593"/>
      <point x="749" y="595" type="curve"/>
      <point x="750" y="614"/>
      <point x="740" y="635"/>
      <point x="721" y="644" type="curve" smooth="yes"/>
      <point x="309" y="844" type="line" smooth="yes"/>
      <point x="283" y="856"/>
      <point x="253" y="845"/>
      <point x="241" y="819" type="curve" smooth="yes"/>
      <point x="53" y="399" type="line" smooth="yes"/>
      <point x="47" y="385"/>
      <point x="49" y="364"/>
      <point x="58" y="351" type="curve" smooth="yes"/>
      <point x="318" y="-29" type="line" smooth="yes"/>
      <point x="335" y="-55"/>
      <point x="369" y="-59"/>
    </contour>
    <contour>
      <point x="368" y="75" type="line"/>
      <point x="156" y="384" type="line"/>
      <point x="312" y="731" type="line"/>
      <point x="649" y="568" type="line"/>
      <point x="649" y="331" type="line"/>
    </contour>
  </outline>
</glyph>
<glyph name="E" format="1">
  <advance width="802"/>
  <unicode hex="0045"/>
  <outline>
    <contour>
      <point x="465" y="-88" type="line" smooth="yes"/>
      <point x="471" y="-88"/>
      <point x="477" y="-87"/>
      <point x="483" y="-86" type="curve"/>
      <point x="500" y="-83"/>
      <point x="516" y="-75"/>
      <point x="529" y="-63" type="curve" smooth="yes"/>
      <point x="727" y="133" type="line" smooth="yes"/>
      <point x="761" y="167"/>
      <point x="761" y="224"/>
      <point x="728" y="258" type="curve" smooth="yes"/>
      <point x="694" y="292"/>
      <point x="637" y="292"/>
      <point x="603" y="259" type="curve" smooth="yes"/>
      <point x="432" y="89" type="line"/>
      <point x="233" y="387" type="line"/>
      <point x="318" y="675" type="line"/>
      <point x="625" y="523" type="line" smooth="yes"/>
      <point x="668" y="502"/>
      <point x="722" y="520"/>
      <point x="743" y="563" type="curve" smooth="yes"/>
      <point x="764" y="606"/>
      <point x="746" y="660"/>
      <point x="703" y="681" type="curve" smooth="yes"/>
      <point x="302" y="879" type="line" smooth="yes"/>
      <point x="251" y="904"/>
      <point x="195" y="879"/>
      <point x="179" y="825" type="curve" smooth="yes"/>
      <point x="53" y="398" type="line" smooth="yes"/>
      <point x="47" y="376"/>
      <point x="52" y="343"/>
      <point x="64" y="324" type="curve" smooth="yes"/>
      <point x="313" y="-49" type="line" smooth="yes"/>
      <point x="327" y="-70"/>
      <point x="360" y="-88"/>
      <point x="386" y="-88" type="curve" smooth="yes"/>
    </contour>
  </outline>
</glyph>
<glyph name="F" format="1">
  <advance width="969"/>
  <unicode hex="0046"/>
  <outline>
    <contour>
      <point x="320" y="-1" type="curve" smooth="yes"/>
      <point x="321" y="207" type="line"/>
      <point x="365" y="591" type="line"/>
      <point x="744" y="473" type="line" smooth="yes"/>
      <point x="813" y="451"/>
      <point x="891" y="492"/>
      <point x="913" y="562" type="curve" smooth="yes"/>
      <point x="935" y="631"/>
      <point x="894" y="709"/>
      <point x="824" y="731" type="curve" smooth="yes"/>
      <point x="290" y="898" type="line" smooth="yes"/>
      <point x="206" y="924"/>
      <point x="126" y="872"/>
      <point x="116" y="784" type="curve" smooth="yes"/>
      <point x="52" y="230" type="line" smooth="yes"/>
      <point x="52" y="226"/>
      <point x="51" y="220"/>
      <point x="51" y="216" type="curve" smooth="yes"/>
      <point x="50" y="1" type="line" smooth="yes"/>
      <point x="50" y="-72"/>
      <point x="111" y="-135"/>
      <point x="184" y="-135" type="curve" smooth="yes"/>
      <point x="257" y="-135"/>
      <point x="320" y="-74"/>
    </contour>
  </outline>
</glyph>
<glyph name="G" format="1">
  <advance width="988"/>
  <unicode hex="0047"/>
  <outline>
    <contour>
      <point x="593" y="-107" type="curve" smooth="yes"/>
      <point x="881" y="123" type="line" smooth="yes"/>
      <point x="963" y="189"/>
      <point x="956" y="301"/>
      <point x="866" y="355" type="curve" smooth="yes"/>
      <point x="588" y="524" type="line"/>
      <point x="559" y="585" type="line"/>
      <point x="715" y="484" type="line" smooth="yes"/>
      <point x="780" y="443"/>
      <point x="870" y="463"/>
      <point x="912" y="527" type="curve" smooth="yes"/>
      <point x="953" y="592"/>
      <point x="933" y="682"/>
      <point x="869" y="724" type="curve" smooth="yes"/>
      <point x="557" y="924" type="line" smooth="yes"/>
      <point x="509" y="954"/>
      <point x="435" y="950"/>
      <point x="391" y="915" type="curve" smooth="yes"/>
      <point x="103" y="685" type="line" smooth="yes"/>
      <point x="74" y="661"/>
      <point x="50" y="612"/>
      <point x="50" y="574" type="curve" smooth="yes"/>
      <point x="50" y="204" type="line" smooth="yes"/>
      <point x="50" y="161"/>
      <point x="79" y="108"/>
      <point x="115" y="84" type="curve" smooth="yes"/>
      <point x="427" y="-116" type="line" smooth="yes"/>
      <point x="475" y="-146"/>
      <point x="549" y="-142"/>
    </contour>
    <contour>
      <point x="350" y="363" type="line" smooth="yes"/>
      <point x="360" y="342"/>
      <point x="385" y="315"/>
      <point x="405" y="303" type="curve" smooth="yes"/>
      <point x="544" y="218" type="line"/>
      <point x="495" y="178" type="line"/>
      <point x="334" y="282" type="line"/>
      <point x="334" y="396" type="line"/>
    </contour>
  </outline>
</glyph>
<glyph name="H" format="1">
  <advance width="912"/>
  <unicode hex="0048"/>
  <outline>
    <contour>
      <point x="756" y="-110" type="curve" smooth="yes"/>
      <point x="813" y="-110"/>
      <point x="862" y="-61"/>
      <point x="862" y="-4" type="curve" smooth="yes"/>
      <point x="862" y="576" type="line" smooth="yes"/>
      <point x="862" y="672"/>
      <point x="767" y="719"/>
      <point x="691" y="659" type="curve" smooth="yes"/>
      <point x="486" y="499" type="line"/>
      <point x="262" y="480" type="line"/>
      <point x="262" y="666" type="line"/>
      <point x="262" y="796" type="line" smooth="yes"/>
      <point x="262" y="853"/>
      <point x="213" y="902"/>
      <point x="156" y="902" type="curve" smooth="yes"/>
      <point x="99" y="902"/>
      <point x="50" y="853"/>
      <point x="50" y="796" type="curve" smooth="yes"/>
      <point x="50" y="666" type="line"/>
      <point x="50" y="375" type="line"/>
      <point x="53" y="85" type="line" smooth="yes"/>
      <point x="55" y="-44"/>
      <point x="229" y="-66"/>
      <point x="262" y="59" type="curve" smooth="yes"/>
      <point x="317" y="272" type="line"/>
      <point x="535" y="290" type="line" smooth="yes"/>
      <point x="552" y="292"/>
      <point x="578" y="302"/>
      <point x="591" y="313" type="curve" smooth="yes"/>
      <point x="650" y="358" type="line"/>
      <point x="650" y="-4" type="line" smooth="yes"/>
      <point x="650" y="-61"/>
      <point x="699" y="-110"/>
    </contour>
  </outline>
</glyph>
<glyph name="I" format="1">
  <advance width="922"/>
  <unicode hex="0049"/>
  <outline>
    <contour>
      <point x="161" y="-112" type="curve" smooth="yes"/>
      <point x="491" y="-112" type="line" smooth="yes"/>
      <point x="558" y="-112"/>
      <point x="608" y="-57"/>
      <point x="602" y="9" type="curve" smooth="yes"/>
      <point x="572" y="334" type="line"/>
      <point x="569" y="583" type="line"/>
      <point x="781" y="690" type="line"/>
      <point x="832" y="700"/>
      <point x="872" y="746"/>
      <point x="872" y="799" type="curve" smooth="yes"/>
      <point x="872" y="859"/>
      <point x="821" y="910"/>
      <point x="761" y="910" type="curve" smooth="yes"/>
      <point x="751" y="910" type="line" smooth="yes"/>
      <point x="736" y="910"/>
      <point x="714" y="905"/>
      <point x="701" y="898" type="curve" smooth="yes"/>
      <point x="408" y="751" type="line" smooth="yes"/>
      <point x="374" y="734"/>
      <point x="346" y="689"/>
      <point x="347" y="650" type="curve" smooth="yes"/>
      <point x="350" y="328" type="line" smooth="yes"/>
      <point x="350" y="325"/>
      <point x="350" y="321"/>
      <point x="350" y="319" type="curve" smooth="yes"/>
      <point x="369" y="110" type="line"/>
      <point x="161" y="110" type="line" smooth="yes"/>
      <point x="101" y="110"/>
      <point x="50" y="59"/>
      <point x="50" y="-1" type="curve" smooth="yes"/>
      <point x="50" y="-61"/>
      <point x="101" y="-112"/>
    </contour>
  </outline>
</glyph>
<glyph name="J" format="1">
  <advance width="810"/>
  <unicode hex="004A"/>
  <outline>
    <contour>
      <point x="106" y="-56" type="curve" smooth="yes"/>
      <point x="256" y="-53" type="line" smooth="yes"/>
      <point x="277" y="-53"/>
      <point x="299" y="-37"/>
      <point x="307" y="-17" type="curve" smooth="yes"/>
      <point x="456" y="380" type="line" smooth="yes"/>
      <point x="460" y="389"/>
      <point x="461" y="405"/>
      <point x="458" y="415" type="curve" smooth="yes"/>
      <point x="359" y="744" type="line"/>
      <point x="705" y="744" type="line" smooth="yes"/>
      <point x="735" y="744"/>
      <point x="760" y="769"/>
      <point x="760" y="799" type="curve" smooth="yes"/>
      <point x="760" y="829"/>
      <point x="735" y="854"/>
      <point x="705" y="854" type="curve" smooth="yes"/>
      <point x="285" y="854" type="line" smooth="yes"/>
      <point x="246" y="854"/>
      <point x="221" y="821"/>
      <point x="232" y="783" type="curve" smooth="yes"/>
      <point x="347" y="401" type="line"/>
      <point x="217" y="56" type="line"/>
      <point x="104" y="54" type="line" smooth="yes"/>
      <point x="74" y="53"/>
      <point x="49" y="28"/>
      <point x="50" y="-2" type="curve" smooth="yes"/>
      <point x="51" y="-32"/>
      <point x="76" y="-57"/>
    </contour>
  </outline>
</glyph>
<glyph name="K" format="1">
  <advance width="966"/>
  <unicode hex="004B"/>
  <outline>
    <contour>
      <point x="805" y="-127" type="curve" smooth="yes"/>
      <point x="876" y="-115"/>
      <point x="926" y="-45"/>
      <point x="914" y="26" type="curve" smooth="yes"/>
      <point x="853" y="385" type="line"/>
      <point x="884" y="435" type="line" smooth="yes"/>
      <point x="891" y="447"/>
      <point x="899" y="467"/>
      <point x="901" y="480" type="curve" smooth="yes"/>
      <point x="912" y="536" type="line" smooth="yes"/>
      <point x="913" y="542"/>
      <point x="914" y="552"/>
      <point x="914" y="558" type="curve" smooth="yes"/>
      <point x="915" y="612" type="line"/>
      <point x="915" y="673" type="line"/>
      <point x="916" y="803" type="line" smooth="yes"/>
      <point x="916" y="875"/>
      <point x="855" y="937"/>
      <point x="784" y="937" type="curve" smooth="yes"/>
      <point x="712" y="937"/>
      <point x="650" y="876"/>
      <point x="650" y="805" type="curve" smooth="yes"/>
      <point x="649" y="675" type="line"/>
      <point x="649" y="616" type="line"/>
      <point x="648" y="574" type="line"/>
      <point x="644" y="553" type="line"/>
      <point x="642" y="549" type="line"/>
      <point x="634" y="544" type="line"/>
      <point x="614" y="539" type="line"/>
      <point x="575" y="537" type="line" smooth="yes"/>
      <point x="557" y="536"/>
      <point x="539" y="531"/>
      <point x="523" y="522" type="curve"/>
      <point x="358" y="535" type="line" smooth="yes"/>
      <point x="344" y="536"/>
      <point x="330" y="534"/>
      <point x="316" y="530" type="curve"/>
      <point x="316" y="804" type="line" smooth="yes"/>
      <point x="316" y="876"/>
      <point x="255" y="937"/>
      <point x="183" y="937" type="curve" smooth="yes"/>
      <point x="111" y="937"/>
      <point x="50" y="876"/>
      <point x="50" y="804" type="curve" smooth="yes"/>
      <point x="50" y="433" type="line"/>
      <point x="53" y="63" type="line" smooth="yes"/>
      <point x="54" y="-88"/>
      <point x="241" y="-129"/>
      <point x="306" y="7" type="curve" smooth="yes"/>
      <point x="428" y="263" type="line"/>
      <point x="607" y="249" type="line"/>
      <point x="652" y="-18" type="line" smooth="yes"/>
      <point x="664" y="-89"/>
      <point x="734" y="-139"/>
    </contour>
  </outline>
</glyph>
<glyph name="L" format="1">
  <advance width="996"/>
  <unicode hex="004C"/>
  <outline>
    <contour>
      <point x="548" y="-148" type="curve" smooth="yes"/>
      <point x="798" y="-148" type="line" smooth="yes"/>
      <point x="878" y="-148"/>
      <point x="946" y="-80"/>
      <point x="946" y="0" type="curve" smooth="yes"/>
      <point x="946" y="80"/>
      <point x="878" y="148"/>
      <point x="798" y="148" type="curve" smooth="yes"/>
      <point x="569" y="148" type="line"/>
      <point x="357" y="210" type="line"/>
      <point x="346" y="450" type="line"/>
      <point x="346" y="800" type="line" smooth="yes"/>
      <point x="346" y="880"/>
      <point x="278" y="948"/>
      <point x="198" y="948" type="curve" smooth="yes"/>
      <point x="118" y="948"/>
      <point x="50" y="880"/>
      <point x="50" y="800" type="curve" smooth="yes"/>
      <point x="50" y="450" type="line"/>
      <point x="66" y="90" type="line" smooth="yes"/>
      <point x="68" y="32"/>
      <point x="116" y="-29"/>
      <point x="172" y="-45" type="curve" smooth="yes"/>
      <point x="507" y="-142" type="line" smooth="yes"/>
      <point x="518" y="-145"/>
      <point x="536" y="-148"/>
    </contour>
  </outline>
</glyph>
<glyph name="M" format="1">
  <advance width="824"/>
  <unicode hex="004D"/>
  <outline>
    <contour>
      <point x="712" y="-63" type="curve" smooth="yes"/>
      <point x="745" y="-63"/>
      <point x="774" y="-34"/>
      <point x="774" y="-1" type="curve" smooth="yes"/>
      <point x="774" y="659" type="line" smooth="yes"/>
      <point x="774" y="710"/>
      <point x="727" y="738"/>
      <point x="682" y="714" type="curve" smooth="yes"/>
      <point x="443" y="584" type="line"/>
      <point x="318" y="826" type="line" smooth="yes"/>
      <point x="293" y="875"/>
      <point x="233" y="874"/>
      <point x="208" y="825" type="curve" smooth="yes"/>
      <point x="57" y="527" type="line" smooth="yes"/>
      <point x="53" y="520"/>
      <point x="50" y="507"/>
      <point x="50" y="499" type="curve" smooth="yes"/>
      <point x="50" y="-1" type="line" smooth="yes"/>
      <point x="50" y="-34"/>
      <point x="79" y="-63"/>
      <point x="112" y="-63" type="curve" smooth="yes"/>
      <point x="145" y="-63"/>
      <point x="174" y="-34"/>
      <point x="174" y="-1" type="curve" smooth="yes"/>
      <point x="174" y="484" type="line"/>
      <point x="264" y="661" type="line"/>
      <point x="362" y="471" type="line" smooth="yes"/>
      <point x="378" y="440"/>
      <point x="415" y="428"/>
      <point x="446" y="444" type="curve" smooth="yes"/>
      <point x="650" y="555" type="line"/>
      <point x="650" y="-1" type="line" smooth="yes"/>
      <point x="650" y="-34"/>
      <point x="679" y="-63"/>
    </contour>
  </outline>
</glyph>
<glyph name="N" format="1">
  <advance width="804"/>
  <unicode hex="004E"/>
  <outline>
    <contour>
      <point x="154" y="-1" type="curve" smooth="yes"/>
      <point x="154" y="577" type="line"/>
      <point x="224" y="724" type="line"/>
      <point x="343" y="648" type="line"/>
      <point x="350" y="449" type="line"/>
      <point x="350" y="219" type="line" smooth="yes"/>
      <point x="350" y="213"/>
      <point x="352" y="203"/>
      <point x="355" y="198" type="curve" smooth="yes"/>
      <point x="447" y="-8" type="line" smooth="yes"/>
      <point x="459" y="-34"/>
      <point x="490" y="-46"/>
      <point x="516" y="-34" type="curve" smooth="yes"/>
      <point x="724" y="62" type="line" smooth="yes"/>
      <point x="740" y="69"/>
      <point x="754" y="91"/>
      <point x="754" y="109" type="curve" smooth="yes"/>
      <point x="754" y="799" type="line" smooth="yes"/>
      <point x="754" y="827"/>
      <point x="730" y="851"/>
      <point x="702" y="851" type="curve" smooth="yes"/>
      <point x="674" y="851"/>
      <point x="650" y="827"/>
      <point x="650" y="799" type="curve" smooth="yes"/>
      <point x="650" y="142" type="line"/>
      <point x="520" y="83" type="line"/>
      <point x="454" y="230" type="line"/>
      <point x="454" y="449" type="line"/>
      <point x="446" y="679" type="line" smooth="yes"/>
      <point x="445" y="694"/>
      <point x="434" y="713"/>
      <point x="422" y="721" type="curve" smooth="yes"/>
      <point x="230" y="843" type="line" smooth="yes"/>
      <point x="203" y="860"/>
      <point x="169" y="850"/>
      <point x="155" y="821" type="curve" smooth="yes"/>
      <point x="55" y="611" type="line" smooth="yes"/>
      <point x="52" y="605"/>
      <point x="50" y="595"/>
      <point x="50" y="589" type="curve" smooth="yes"/>
      <point x="50" y="-1" type="line" smooth="yes"/>
      <point x="50" y="-29"/>
      <point x="74" y="-53"/>
      <point x="102" y="-53" type="curve" smooth="yes"/>
      <point x="130" y="-53"/>
      <point x="154" y="-29"/>
    </contour>
  </outline>
</glyph>
<glyph name="O" format="1">
  <advance width="845"/>
  <unicode hex="004F"/>
  <outline>
    <contour>
      <point x="497" y="71" type="line"/>
      <point x="360" y="71" type="line"/>
      <point x="194" y="205" type="line"/>
      <point x="194" y="446" type="line"/>
      <point x="211" y="666" type="line"/>
      <point x="414" y="725" type="line"/>
      <point x="620" y="683" type="line"/>
      <point x="651" y="464" type="line"/>
      <point x="651" y="223" type="line"/>
    </contour>
    <contour>
      <point x="516" y="-73" type="line" smooth="yes"/>
      <point x="519" y="-73"/>
      <point x="521" y="-73"/>
      <point x="524" y="-72" type="curve"/>
      <point x="543" y="-73"/>
      <point x="562" y="-66"/>
      <point x="576" y="-52" type="curve" smooth="yes"/>
      <point x="773" y="141" type="line" smooth="yes"/>
      <point x="785" y="153"/>
      <point x="795" y="176"/>
      <point x="795" y="192" type="curve" smooth="yes"/>
      <point x="795" y="469" type="line" smooth="yes"/>
      <point x="795" y="472"/>
      <point x="795" y="476"/>
      <point x="794" y="479" type="curve" smooth="yes"/>
      <point x="756" y="754" type="line" smooth="yes"/>
      <point x="752" y="782"/>
      <point x="726" y="809"/>
      <point x="699" y="814" type="curve" smooth="yes"/>
      <point x="425" y="870" type="line" smooth="yes"/>
      <point x="415" y="872"/>
      <point x="400" y="871"/>
      <point x="390" y="868" type="curve" smooth="yes"/>
      <point x="123" y="791" type="line" smooth="yes"/>
      <point x="96" y="783"/>
      <point x="73" y="754"/>
      <point x="71" y="727" type="curve" smooth="yes"/>
      <point x="50" y="454" type="line" smooth="yes"/>
      <point x="50" y="453"/>
      <point x="50" y="450"/>
      <point x="50" y="449" type="curve" smooth="yes"/>
      <point x="50" y="171" type="line" smooth="yes"/>
      <point x="50" y="152"/>
      <point x="62" y="127"/>
      <point x="77" y="115" type="curve" smooth="yes"/>
      <point x="289" y="-57" type="line" smooth="yes"/>
      <point x="300" y="-66"/>
      <point x="320" y="-73"/>
      <point x="334" y="-73" type="curve" smooth="yes"/>
    </contour>
  </outline>
</glyph>
<glyph name="P" format="1">
  <advance width="973"/>
  <unicode hex="0050"/>
  <outline>
    <contour>
      <point x="322" y="543" type="line"/>
      <point x="322" y="591" type="line"/>
      <point x="323" y="633" type="line"/>
      <point x="327" y="656" type="line"/>
      <point x="328" y="658" type="line"/>
      <point x="328" y="658" type="line"/>
      <point x="340" y="662" type="line"/>
      <point x="362" y="666" type="line"/>
      <point x="404" y="667" type="line"/>
      <point x="554" y="667" type="line"/>
      <point x="595" y="667" type="line"/>
      <point x="623" y="664" type="line"/>
      <point x="641" y="658" type="line"/>
      <point x="644" y="656" type="line"/>
      <point x="646" y="654" type="line"/>
      <point x="649" y="641" type="line"/>
      <point x="651" y="610" type="line"/>
      <point x="651" y="555" type="line"/>
      <point x="651" y="507" type="line"/>
      <point x="649" y="467" type="line"/>
      <point x="646" y="455" type="line"/>
      <point x="645" y="453" type="line"/>
      <point x="643" y="451" type="line"/>
      <point x="625" y="446" type="line"/>
      <point x="597" y="443" type="line"/>
      <point x="557" y="443" type="line"/>
      <point x="403" y="443" type="line"/>
      <point x="349" y="442" type="line" smooth="yes"/>
      <point x="343" y="441"/>
      <point x="333" y="440"/>
      <point x="328" y="439" type="curve" smooth="yes"/>
      <point x="322" y="438" type="line"/>
    </contour>
    <contour>
      <point x="322" y="3" type="curve" smooth="yes"/>
      <point x="322" y="97" type="line"/>
      <point x="323" y="135" type="line"/>
      <point x="327" y="154" type="line"/>
      <point x="330" y="161" type="line"/>
      <point x="331" y="161" type="line"/>
      <point x="338" y="165" type="line"/>
      <point x="367" y="170" type="line"/>
      <point x="410" y="171" type="line"/>
      <point x="557" y="171" type="line"/>
      <point x="606" y="171" type="line" smooth="yes"/>
      <point x="610" y="171"/>
      <point x="616" y="172"/>
      <point x="619" y="172" type="curve" smooth="yes"/>
      <point x="666" y="177" type="line" smooth="yes"/>
      <point x="673" y="178"/>
      <point x="684" y="180"/>
      <point x="691" y="182" type="curve" smooth="yes"/>
      <point x="740" y="197" type="line" smooth="yes"/>
      <point x="751" y="200"/>
      <point x="768" y="208"/>
      <point x="777" y="214" type="curve" smooth="yes"/>
      <point x="820" y="243" type="line" smooth="yes"/>
      <point x="832" y="251"/>
      <point x="849" y="268"/>
      <point x="857" y="281" type="curve" smooth="yes"/>
      <point x="886" y="325" type="line" smooth="yes"/>
      <point x="893" y="336"/>
      <point x="902" y="355"/>
      <point x="905" y="367" type="curve" smooth="yes"/>
      <point x="917" y="415" type="line" smooth="yes"/>
      <point x="918" y="422"/>
      <point x="920" y="434"/>
      <point x="920" y="441" type="curve" smooth="yes"/>
      <point x="923" y="494" type="line"/>
      <point x="923" y="555" type="line"/>
      <point x="923" y="610" type="line"/>
      <point x="920" y="670" type="line" smooth="yes"/>
      <point x="920" y="677"/>
      <point x="918" y="689"/>
      <point x="916" y="696" type="curve" smooth="yes"/>
      <point x="903" y="745" type="line" smooth="yes"/>
      <point x="900" y="757"/>
      <point x="892" y="776"/>
      <point x="884" y="786" type="curve" smooth="yes"/>
      <point x="855" y="830" type="line" smooth="yes"/>
      <point x="847" y="843"/>
      <point x="830" y="859"/>
      <point x="817" y="868" type="curve" smooth="yes"/>
      <point x="775" y="896" type="line" smooth="yes"/>
      <point x="765" y="902"/>
      <point x="749" y="910"/>
      <point x="738" y="913" type="curve" smooth="yes"/>
      <point x="689" y="928" type="line" smooth="yes"/>
      <point x="682" y="930"/>
      <point x="671" y="932"/>
      <point x="664" y="933" type="curve" smooth="yes"/>
      <point x="617" y="938" type="line" smooth="yes"/>
      <point x="613" y="938"/>
      <point x="608" y="939"/>
      <point x="604" y="939" type="curve" smooth="yes"/>
      <point x="556" y="939" type="line"/>
      <point x="404" y="939" type="line"/>
      <point x="346" y="938" type="line" smooth="yes"/>
      <point x="341" y="937"/>
      <point x="333" y="937"/>
      <point x="328" y="936" type="curve" smooth="yes"/>
      <point x="284" y="929" type="line" smooth="yes"/>
      <point x="277" y="928"/>
      <point x="265" y="925"/>
      <point x="258" y="922" type="curve" smooth="yes"/>
      <point x="213" y="905" type="line" smooth="yes"/>
      <point x="201" y="901"/>
      <point x="185" y="892"/>
      <point x="175" y="884" type="curve" smooth="yes"/>
      <point x="137" y="854" type="line" smooth="yes"/>
      <point x="125" y="844"/>
      <point x="110" y="826"/>
      <point x="103" y="813" type="curve" smooth="yes"/>
      <point x="78" y="768" type="line" smooth="yes"/>
      <point x="72" y="757"/>
      <point x="65" y="738"/>
      <point x="63" y="726" type="curve" smooth="yes"/>
      <point x="53" y="670" type="line" smooth="yes"/>
      <point x="52" y="664"/>
      <point x="51" y="654"/>
      <point x="51" y="648" type="curve" smooth="yes"/>
      <point x="50" y="595" type="line"/>
      <point x="50" y="543" type="line"/>
      <point x="50" y="3" type="line" smooth="yes"/>
      <point x="50" y="-70"/>
      <point x="113" y="-133"/>
      <point x="186" y="-133" type="curve" smooth="yes"/>
      <point x="259" y="-133"/>
      <point x="322" y="-70"/>
    </contour>
  </outline>
</glyph>
<glyph name="Q" format="1">
  <advance width="937"/>
  <unicode hex="0051"/>
  <outline>
    <contour>
      <point x="519" y="-119" type="curve" smooth="yes"/>
      <point x="559" y="-119" type="line" smooth="yes"/>
      <point x="563" y="-119"/>
      <point x="566" y="-119"/>
      <point x="570" y="-118" type="curve"/>
      <point x="612" y="-118"/>
      <point x="653" y="-95"/>
      <point x="673" y="-57" type="curve" smooth="yes"/>
      <point x="774" y="132" type="line"/>
      <point x="874" y="325" type="line" smooth="yes"/>
      <point x="881" y="339"/>
      <point x="887" y="363"/>
      <point x="887" y="379" type="curve" smooth="yes"/>
      <point x="887" y="589" type="line" smooth="yes"/>
      <point x="887" y="603"/>
      <point x="882" y="626"/>
      <point x="876" y="639" type="curve" smooth="yes"/>
      <point x="788" y="828" type="line" smooth="yes"/>
      <point x="773" y="862"/>
      <point x="730" y="893"/>
      <point x="692" y="896" type="curve" smooth="yes"/>
      <point x="477" y="916" type="line" smooth="yes"/>
      <point x="471" y="917"/>
      <point x="462" y="917"/>
      <point x="455" y="916" type="curve" smooth="yes"/>
      <point x="241" y="896" type="line" smooth="yes"/>
      <point x="202" y="893"/>
      <point x="158" y="860"/>
      <point x="143" y="825" type="curve" smooth="yes"/>
      <point x="59" y="625" type="line" smooth="yes"/>
      <point x="54" y="613"/>
      <point x="50" y="592"/>
      <point x="50" y="579" type="curve" smooth="yes"/>
      <point x="50" y="369" type="line"/>
      <point x="51" y="164" type="line" smooth="yes"/>
      <point x="52" y="140"/>
      <point x="64" y="106"/>
      <point x="80" y="88" type="curve" smooth="yes"/>
      <point x="219" y="-75" type="line" smooth="yes"/>
      <point x="238" y="-98"/>
      <point x="278" y="-116"/>
      <point x="307" y="-116" type="curve" smooth="yes"/>
      <point x="517" y="-119" type="line" smooth="yes"/>
      <point x="518" y="-119"/>
      <point x="518" y="-119"/>
    </contour>
    <contour>
      <point x="286" y="369" type="line"/>
      <point x="286" y="555" type="line"/>
      <point x="333" y="668" type="line"/>
      <point x="467" y="680" type="line"/>
      <point x="603" y="668" type="line"/>
      <point x="651" y="563" type="line"/>
      <point x="651" y="408" type="line"/>
      <point x="565" y="243" type="line"/>
      <point x="498" y="117" type="line"/>
      <point x="364" y="119" type="line"/>
      <point x="287" y="208" type="line"/>
    </contour>
  </outline>
</glyph>
<glyph name="R" format="1">
  <advance width="960"/>
  <unicode hex="0052"/>
  <outline>
    <contour>
      <point x="450" y="426" type="curve" smooth="yes"/>
      <point x="380" y="426" type="line" smooth="yes"/>
      <point x="355" y="426"/>
      <point x="330" y="418"/>
      <point x="310" y="405" type="curve"/>
      <point x="310" y="507" type="line"/>
      <point x="353" y="650" type="line"/>
      <point x="495" y="664" type="line"/>
      <point x="636" y="621" type="line"/>
      <point x="645" y="517" type="line"/>
      <point x="513" y="409" type="line"/>
      <point x="493" y="419"/>
      <point x="469" y="426"/>
    </contour>
    <contour>
      <point x="310" y="-4" type="curve" smooth="yes"/>
      <point x="310" y="187" type="line"/>
      <point x="330" y="174"/>
      <point x="355" y="166"/>
      <point x="380" y="166" type="curve" smooth="yes"/>
      <point x="400" y="166" type="line"/>
      <point x="694" y="-100" type="line" smooth="yes"/>
      <point x="746" y="-147"/>
      <point x="830" y="-143"/>
      <point x="877" y="-91" type="curve" smooth="yes"/>
      <point x="924" y="-39"/>
      <point x="920" y="45"/>
      <point x="868" y="92" type="curve" smooth="yes"/>
      <point x="711" y="235" type="line"/>
      <point x="863" y="360" type="line" smooth="yes"/>
      <point x="892" y="384"/>
      <point x="913" y="434"/>
      <point x="910" y="472" type="curve" smooth="yes"/>
      <point x="887" y="730" type="line" smooth="yes"/>
      <point x="883" y="778"/>
      <point x="843" y="829"/>
      <point x="796" y="843" type="curve" smooth="yes"/>
      <point x="547" y="920" type="line" smooth="yes"/>
      <point x="533" y="924"/>
      <point x="510" y="927"/>
      <point x="496" y="925" type="curve" smooth="yes"/>
      <point x="241" y="900" type="line" smooth="yes"/>
      <point x="193" y="895"/>
      <point x="143" y="854"/>
      <point x="130" y="808" type="curve" smooth="yes"/>
      <point x="56" y="564" type="line" smooth="yes"/>
      <point x="52" y="553"/>
      <point x="50" y="537"/>
      <point x="50" y="526" type="curve" smooth="yes"/>
      <point x="50" y="-4" type="line" smooth="yes"/>
      <point x="50" y="-74"/>
      <point x="110" y="-134"/>
      <point x="180" y="-134" type="curve" smooth="yes"/>
      <point x="250" y="-134"/>
      <point x="310" y="-74"/>
    </contour>
  </outline>
</glyph>
<glyph name="S" format="1">
  <advance width="984"/>
  <unicode hex="0053"/>
  <outline>
    <contour>
      <point x="381" y="-137" type="curve" smooth="yes"/>
      <point x="767" y="-87" type="line" smooth="yes"/>
      <point x="871" y="-74"/>
      <point x="923" y="24"/>
      <point x="876" y="118" type="curve" smooth="yes"/>
      <point x="699" y="468" type="line" smooth="yes"/>
      <point x="683" y="498"/>
      <point x="645" y="531"/>
      <point x="612" y="540" type="curve" smooth="yes"/>
      <point x="457" y="586" type="line"/>
      <point x="488" y="621" type="line"/>
      <point x="719" y="482" type="line" smooth="yes"/>
      <point x="785" y="443"/>
      <point x="874" y="465"/>
      <point x="914" y="531" type="curve" smooth="yes"/>
      <point x="953" y="597"/>
      <point x="931" y="686"/>
      <point x="865" y="726" type="curve" smooth="yes"/>
      <point x="533" y="926" type="line" smooth="yes"/>
      <point x="477" y="959"/>
      <point x="396" y="947"/>
      <point x="353" y="898" type="curve" smooth="yes"/>
      <point x="96" y="607" type="line" smooth="yes"/>
      <point x="22" y="523"/>
      <point x="55" y="408"/>
      <point x="163" y="377" type="curve" smooth="yes"/>
      <point x="473" y="285" type="line"/>
      <point x="531" y="169" type="line"/>
      <point x="421" y="155" type="line"/>
      <point x="299" y="297" type="line" smooth="yes"/>
      <point x="249" y="355"/>
      <point x="156" y="362"/>
      <point x="98" y="312" type="curve" smooth="yes"/>
      <point x="40" y="262"/>
      <point x="33" y="169"/>
      <point x="83" y="111" type="curve" smooth="yes"/>
      <point x="255" y="-88" type="line" smooth="yes"/>
      <point x="283" y="-120"/>
      <point x="339" y="-142"/>
    </contour>
  </outline>
</glyph>
<glyph name="T" format="1">
  <advance width="820"/>
  <unicode hex="0054"/>
  <outline>
    <contour>
      <point x="434" y="-84" type="curve" smooth="yes"/>
      <point x="479" y="-84"/>
      <point x="518" y="-45"/>
      <point x="518" y="0" type="curve" smooth="yes"/>
      <point x="518" y="540" type="line"/>
      <point x="518" y="618" type="line"/>
      <point x="529" y="667" type="line"/>
      <point x="562" y="697" type="line"/>
      <point x="613" y="708" type="line"/>
      <point x="690" y="713" type="line" smooth="yes"/>
      <point x="798" y="719"/>
      <point x="796" y="876"/>
      <point x="688" y="880" type="curve" smooth="yes"/>
      <point x="597" y="884" type="line"/>
      <point x="144" y="884" type="line"/>
      <point x="134" y="884" type="line" smooth="yes"/>
      <point x="89" y="884"/>
      <point x="50" y="845"/>
      <point x="50" y="800" type="curve" smooth="yes"/>
      <point x="50" y="755"/>
      <point x="89" y="716"/>
      <point x="134" y="716" type="curve" smooth="yes"/>
      <point x="368" y="716" type="line"/>
      <point x="352" y="646" type="line" smooth="yes"/>
      <point x="351" y="641"/>
      <point x="350" y="633"/>
      <point x="350" y="628" type="curve" smooth="yes"/>
      <point x="350" y="540" type="line"/>
      <point x="350" y="0" type="line" smooth="yes"/>
      <point x="350" y="-45"/>
      <point x="389" y="-84"/>
    </contour>
  </outline>
</glyph>
<glyph name="U" format="1">
  <advance width="863"/>
  <unicode hex="0055"/>
  <outline>
    <contour>
      <point x="334" y="-83" type="curve" smooth="yes"/>
      <point x="478" y="-83" type="line"/>
      <point x="617" y="-75" type="line" smooth="yes"/>
      <point x="632" y="-74"/>
      <point x="653" y="-65"/>
      <point x="665" y="-55" type="curve" smooth="yes"/>
      <point x="773" y="37" type="line" smooth="yes"/>
      <point x="788" y="49"/>
      <point x="801" y="74"/>
      <point x="802" y="93" type="curve" smooth="yes"/>
      <point x="813" y="233" type="line" smooth="yes"/>
      <point x="813" y="234"/>
      <point x="813" y="237"/>
      <point x="813" y="239" type="curve" smooth="yes"/>
      <point x="813" y="799" type="line" smooth="yes"/>
      <point x="813" y="843"/>
      <point x="775" y="881"/>
      <point x="731" y="881" type="curve" smooth="yes"/>
      <point x="687" y="881"/>
      <point x="649" y="843"/>
      <point x="649" y="799" type="curve" smooth="yes"/>
      <point x="649" y="242" type="line"/>
      <point x="641" y="140" type="line"/>
      <point x="579" y="87" type="line"/>
      <point x="468" y="81" type="line"/>
      <point x="343" y="81" type="line"/>
      <point x="254" y="101" type="line"/>
      <point x="216" y="170" type="line"/>
      <point x="214" y="290" type="line"/>
      <point x="214" y="429" type="line"/>
      <point x="214" y="799" type="line" smooth="yes"/>
      <point x="214" y="843"/>
      <point x="176" y="881"/>
      <point x="132" y="881" type="curve" smooth="yes"/>
      <point x="88" y="881"/>
      <point x="50" y="843"/>
      <point x="50" y="799" type="curve" smooth="yes"/>
      <point x="50" y="429" type="line"/>
      <point x="50" y="288" type="line"/>
      <point x="52" y="147" type="line" smooth="yes"/>
      <point x="52" y="135"/>
      <point x="57" y="118"/>
      <point x="62" y="108" type="curve" smooth="yes"/>
      <point x="129" y="-11" type="line" smooth="yes"/>
      <point x="139" y="-28"/>
      <point x="163" y="-46"/>
      <point x="182" y="-51" type="curve" smooth="yes"/>
      <point x="316" y="-81" type="line" smooth="yes"/>
      <point x="321" y="-82"/>
      <point x="329" y="-83"/>
    </contour>
  </outline>
</glyph>
<glyph name="V" format="1">
  <advance width="822"/>
  <unicode hex="0056"/>
  <outline>
    <contour>
      <point x="741" y="58" type="curve" smooth="yes"/>
      <point x="772" y="435" type="line" smooth="yes"/>
      <point x="772" y="436"/>
      <point x="772" y="439"/>
      <point x="772" y="440" type="curve" smooth="yes"/>
      <point x="772" y="800" type="line" smooth="yes"/>
      <point x="772" y="833"/>
      <point x="744" y="861"/>
      <point x="711" y="861" type="curve" smooth="yes"/>
      <point x="678" y="861"/>
      <point x="650" y="833"/>
      <point x="650" y="800" type="curve" smooth="yes"/>
      <point x="650" y="443" type="line"/>
      <point x="624" y="128" type="line"/>
      <point x="336" y="149" type="line"/>
      <point x="172" y="436" type="line"/>
      <point x="172" y="800" type="line" smooth="yes"/>
      <point x="172" y="833"/>
      <point x="144" y="861"/>
      <point x="111" y="861" type="curve" smooth="yes"/>
      <point x="78" y="861"/>
      <point x="50" y="833"/>
      <point x="50" y="800" type="curve" smooth="yes"/>
      <point x="50" y="420" type="line" smooth="yes"/>
      <point x="50" y="411"/>
      <point x="54" y="398"/>
      <point x="58" y="390" type="curve" smooth="yes"/>
      <point x="246" y="60" type="line" smooth="yes"/>
      <point x="255" y="45"/>
      <point x="277" y="31"/>
      <point x="295" y="30" type="curve" smooth="yes"/>
      <point x="675" y="2" type="line" smooth="yes"/>
      <point x="709" y="0"/>
      <point x="738" y="25"/>
    </contour>
  </outline>
</glyph>
<glyph name="W" format="1">
  <advance width="946"/>
  <unicode hex="0057"/>
  <outline>
    <contour>
      <point x="346" y="-114" type="curve" smooth="yes"/>
      <point x="467" y="-67" type="line" smooth="yes"/>
      <point x="468" y="-66"/>
      <point x="469" y="-66"/>
      <point x="470" y="-66" type="curve"/>
      <point x="474" y="-68"/>
      <point x="479" y="-70"/>
      <point x="484" y="-72" type="curve" smooth="yes"/>
      <point x="603" y="-115" type="line" smooth="yes"/>
      <point x="622" y="-122"/>
      <point x="653" y="-124"/>
      <point x="673" y="-120" type="curve" smooth="yes"/>
      <point x="801" y="-90" type="line" smooth="yes"/>
      <point x="853" y="-78"/>
      <point x="896" y="-24"/>
      <point x="896" y="30" type="curve" smooth="yes"/>
      <point x="896" y="800" type="line" smooth="yes"/>
      <point x="896" y="866"/>
      <point x="839" y="923"/>
      <point x="773" y="923" type="curve" smooth="yes"/>
      <point x="707" y="923"/>
      <point x="650" y="866"/>
      <point x="650" y="800" type="curve" smooth="yes"/>
      <point x="650" y="129" type="line"/>
      <point x="620" y="140" type="line"/>
      <point x="601" y="190" type="line"/>
      <point x="599" y="294" type="line"/>
      <point x="594" y="424" type="line" smooth="yes"/>
      <point x="589" y="585"/>
      <point x="352" y="583"/>
      <point x="348" y="422" type="curve" smooth="yes"/>
      <point x="346" y="294" type="line"/>
      <point x="343" y="188" type="line"/>
      <point x="326" y="142" type="line"/>
      <point x="296" y="130" type="line"/>
      <point x="296" y="800" type="line" smooth="yes"/>
      <point x="296" y="866"/>
      <point x="239" y="923"/>
      <point x="173" y="923" type="curve" smooth="yes"/>
      <point x="107" y="923"/>
      <point x="50" y="866"/>
      <point x="50" y="800" type="curve" smooth="yes"/>
      <point x="50" y="20" type="line"/>
      <point x="50" y="-38"/>
      <point x="97" y="-93"/>
      <point x="154" y="-102" type="curve" smooth="yes"/>
      <point x="283" y="-121" type="line" smooth="yes"/>
      <point x="301" y="-124"/>
      <point x="329" y="-121"/>
    </contour>
  </outline>
</glyph>
<glyph name="X" format="1">
  <advance width="832"/>
  <unicode hex="0058"/>
  <outline>
    <contour>
      <point x="116" y="-66" type="curve" smooth="yes"/>
      <point x="152" y="-66"/>
      <point x="182" y="-36"/>
      <point x="182" y="0" type="curve" smooth="yes"/>
      <point x="182" y="100" type="line"/>
      <point x="182" y="201" type="line"/>
      <point x="194" y="281" type="line"/>
      <point x="240" y="322" type="line"/>
      <point x="319" y="334" type="line"/>
      <point x="387" y="334" type="line"/>
      <point x="634" y="264" type="line"/>
      <point x="650" y="-4" type="line" smooth="yes"/>
      <point x="652" y="-40"/>
      <point x="684" y="-68"/>
      <point x="720" y="-66" type="curve" smooth="yes"/>
      <point x="756" y="-64"/>
      <point x="784" y="-32"/>
      <point x="782" y="4" type="curve" smooth="yes"/>
      <point x="763" y="319" type="line" smooth="yes"/>
      <point x="761" y="345"/>
      <point x="740" y="372"/>
      <point x="715" y="379" type="curve" smooth="yes"/>
      <point x="688" y="386" type="line"/>
      <point x="743" y="435" type="line" smooth="yes"/>
      <point x="753" y="444"/>
      <point x="762" y="461"/>
      <point x="764" y="474" type="curve" smooth="yes"/>
      <point x="781" y="576" type="line" smooth="yes"/>
      <point x="782" y="579"/>
      <point x="782" y="583"/>
      <point x="782" y="586" type="curve" smooth="yes"/>
      <point x="782" y="690" type="line"/>
      <point x="782" y="800" type="line" smooth="yes"/>
      <point x="782" y="836"/>
      <point x="752" y="866"/>
      <point x="716" y="866" type="curve" smooth="yes"/>
      <point x="680" y="866"/>
      <point x="650" y="836"/>
      <point x="650" y="800" type="curve" smooth="yes"/>
      <point x="650" y="690" type="line"/>
      <point x="650" y="592" type="line"/>
      <point x="638" y="519" type="line"/>
      <point x="592" y="478" type="line"/>
      <point x="513" y="466" type="line"/>
      <point x="413" y="466" type="line"/>
      <point x="184" y="589" type="line"/>
      <point x="182" y="801" type="line" smooth="yes"/>
      <point x="182" y="836"/>
      <point x="151" y="866"/>
      <point x="115" y="866" type="curve" smooth="yes"/>
      <point x="80" y="866"/>
      <point x="50" y="835"/>
      <point x="50" y="799" type="curve" smooth="yes"/>
      <point x="52" y="548" type="line" smooth="yes"/>
      <point x="52" y="527"/>
      <point x="68" y="501"/>
      <point x="87" y="491" type="curve" smooth="yes"/>
      <point x="179" y="441" type="line"/>
      <point x="174" y="439"/>
      <point x="170" y="436"/>
      <point x="167" y="434" type="curve" smooth="yes"/>
      <point x="89" y="364" type="line" smooth="yes"/>
      <point x="79" y="355"/>
      <point x="70" y="338"/>
      <point x="68" y="325" type="curve" smooth="yes"/>
      <point x="51" y="217" type="line" smooth="yes"/>
      <point x="50" y="214"/>
      <point x="50" y="209"/>
      <point x="50" y="207" type="curve" smooth="yes"/>
      <point x="50" y="100" type="line"/>
      <point x="50" y="0" type="line" smooth="yes"/>
      <point x="50" y="-36"/>
      <point x="80" y="-66"/>
    </contour>
  </outline>
</glyph>
<glyph name="Y" format="1">
  <advance width="830"/>
  <unicode hex="0059"/>
  <outline>
    <contour>
      <point x="637" y="300" type="line"/>
      <point x="650" y="335" type="line"/>
      <point x="650" y="310" type="line"/>
    </contour>
    <contour>
      <point x="384" y="-65" type="line" smooth="yes"/>
      <point x="397" y="-65"/>
      <point x="416" y="-58"/>
      <point x="426" y="-50" type="curve" smooth="yes"/>
      <point x="757" y="231" type="line" smooth="yes"/>
      <point x="770" y="242"/>
      <point x="780" y="264"/>
      <point x="780" y="281" type="curve" smooth="yes"/>
      <point x="777" y="709" type="line" smooth="yes"/>
      <point x="776" y="785"/>
      <point x="676" y="802"/>
      <point x="650" y="730" type="curve" smooth="yes"/>
      <point x="526" y="374" type="line"/>
      <point x="204" y="424" type="line"/>
      <point x="180" y="802" type="line" smooth="yes"/>
      <point x="178" y="837"/>
      <point x="146" y="865"/>
      <point x="111" y="863" type="curve" smooth="yes"/>
      <point x="76" y="861"/>
      <point x="48" y="829"/>
      <point x="50" y="794" type="curve" smooth="yes"/>
      <point x="78" y="363" type="line" smooth="yes"/>
      <point x="80" y="335"/>
      <point x="104" y="308"/>
      <point x="133" y="303" type="curve" smooth="yes"/>
      <point x="559" y="237" type="line" smooth="yes"/>
      <point x="563" y="237" type="line"/>
      <point x="361" y="65" type="line"/>
      <point x="115" y="66" type="line" smooth="yes"/>
      <point x="80" y="66"/>
      <point x="50" y="36"/>
      <point x="50" y="1" type="curve" smooth="yes"/>
      <point x="50" y="-34"/>
      <point x="80" y="-64"/>
      <point x="115" y="-64" type="curve" smooth="yes"/>
    </contour>
  </outline>
</glyph>
<glyph name="Z" format="1">
  <advance width="874"/>
  <unicode hex="005A"/>
  <outline>
    <contour>
      <point x="467" y="-87" type="curve" smooth="yes"/>
      <point x="737" y="-87" type="line" smooth="yes"/>
      <point x="784" y="-87"/>
      <point x="824" y="-47"/>
      <point x="824" y="0" type="curve" smooth="yes"/>
      <point x="824" y="47"/>
      <point x="784" y="87"/>
      <point x="737" y="87" type="curve" smooth="yes"/>
      <point x="492" y="87" type="line"/>
      <point x="304" y="207" type="line"/>
      <point x="510" y="344" type="line" smooth="yes"/>
      <point x="528" y="356"/>
      <point x="545" y="383"/>
      <point x="548" y="404" type="curve" smooth="yes"/>
      <point x="603" y="788" type="line" smooth="yes"/>
      <point x="611" y="842"/>
      <point x="572" y="887"/>
      <point x="517" y="887" type="curve" smooth="yes"/>
      <point x="137" y="887" type="line" smooth="yes"/>
      <point x="90" y="887"/>
      <point x="50" y="847"/>
      <point x="50" y="800" type="curve" smooth="yes"/>
      <point x="50" y="753"/>
      <point x="90" y="713"/>
      <point x="137" y="713" type="curve" smooth="yes"/>
      <point x="417" y="713" type="line"/>
      <point x="381" y="467" type="line"/>
      <point x="97" y="278" type="line" smooth="yes"/>
      <point x="41" y="240"/>
      <point x="42" y="169"/>
      <point x="98" y="132" type="curve" smooth="yes"/>
      <point x="420" y="-73" type="line" smooth="yes"/>
      <point x="432" y="-81"/>
      <point x="453" y="-87"/>
    </contour>
  </outline>
</glyph>
<glyph name="bracketleft" format="1">
  <advance width="545"/>
  <unicode hex="005B"/>
  <outline>
    <contour>
      <point x="470" y="-55" type="curve" smooth="yes"/>
      <point x="499" y="-30"/>
      <point x="503" y="18"/>
      <point x="477" y="48" type="curve" smooth="yes"/>
      <point x="213" y="356" type="line"/>
      <point x="483" y="760" type="line" smooth="yes"/>
      <point x="505" y="792"/>
      <point x="495" y="839"/>
      <point x="462" y="861" type="curve" smooth="yes"/>
      <point x="430" y="883"/>
      <point x="383" y="873"/>
      <point x="361" y="840" type="curve" smooth="yes"/>
      <point x="61" y="390" type="line" smooth="yes"/>
      <point x="44" y="365"/>
      <point x="47" y="326"/>
      <point x="67" y="302" type="curve" smooth="yes"/>
      <point x="367" y="-48" type="line" smooth="yes"/>
      <point x="392" y="-77"/>
      <point x="440" y="-81"/>
    </contour>
  </outline>
</glyph>
<glyph name="backslash" format="1">
  <advance width="943"/>
  <unicode hex="005C"/>
  <outline>
    <contour>
      <point x="844" y="-99" type="curve" smooth="yes"/>
      <point x="897" y="-59"/>
      <point x="908" y="19"/>
      <point x="869" y="72" type="curve" smooth="yes"/>
      <point x="269" y="872" type="line" smooth="yes"/>
      <point x="229" y="925"/>
      <point x="151" y="936"/>
      <point x="98" y="897" type="curve" smooth="yes"/>
      <point x="45" y="857"/>
      <point x="34" y="779"/>
      <point x="73" y="726" type="curve" smooth="yes"/>
      <point x="673" y="-74" type="line" smooth="yes"/>
      <point x="713" y="-127"/>
      <point x="791" y="-138"/>
    </contour>
  </outline>
</glyph>
<glyph name="bracketright" format="1">
  <advance width="668"/>
  <unicode hex="005D"/>
  <outline>
    <contour>
      <point x="210" y="-132" type="curve" smooth="yes"/>
      <point x="510" y="-72" type="line" smooth="yes"/>
      <point x="570" y="-60"/>
      <point x="618" y="-2"/>
      <point x="618" y="59" type="curve" smooth="yes"/>
      <point x="618" y="489" type="line" smooth="yes"/>
      <point x="618" y="519"/>
      <point x="601" y="561"/>
      <point x="580" y="582" type="curve" smooth="yes"/>
      <point x="280" y="892" type="line" smooth="yes"/>
      <point x="230" y="944"/>
      <point x="143" y="946"/>
      <point x="91" y="895" type="curve" smooth="yes"/>
      <point x="39" y="845"/>
      <point x="37" y="758"/>
      <point x="88" y="706" type="curve" smooth="yes"/>
      <point x="350" y="435" type="line"/>
      <point x="350" y="169" type="line"/>
      <point x="158" y="130" type="line" smooth="yes"/>
      <point x="87" y="116"/>
      <point x="38" y="44"/>
      <point x="53" y="-27" type="curve" smooth="yes"/>
      <point x="67" y="-98"/>
      <point x="139" y="-147"/>
    </contour>
  </outline>
</glyph>
<glyph name="asciicircum" format="1">
  <advance width="1009"/>
  <unicode hex="005E"/>
  <outline>
    <contour>
      <point x="230" y="349" type="curve" smooth="yes"/>
      <point x="653" y="417" type="line"/>
      <point x="719" y="373" type="line" smooth="yes"/>
      <point x="789" y="327"/>
      <point x="888" y="346"/>
      <point x="934" y="416" type="curve" smooth="yes"/>
      <point x="980" y="486"/>
      <point x="961" y="585"/>
      <point x="891" y="631" type="curve" smooth="yes"/>
      <point x="774" y="709" type="line" smooth="yes"/>
      <point x="746" y="727"/>
      <point x="697" y="738"/>
      <point x="664" y="733" type="curve" smooth="yes"/>
      <point x="180" y="655" type="line" smooth="yes"/>
      <point x="98" y="642"/>
      <point x="39" y="560"/>
      <point x="52" y="477" type="curve" smooth="yes"/>
      <point x="65" y="395"/>
      <point x="147" y="336"/>
    </contour>
  </outline>
</glyph>
<glyph name="grave" format="1">
  <advance width="704"/>
  <unicode hex="0060"/>
  <outline>
    <contour>
      <point x="629" y="843" type="curve" smooth="yes"/>
      <point x="675" y="912"/>
      <point x="656" y="1009"/>
      <point x="587" y="1055" type="curve" smooth="yes"/>
      <point x="337" y="1222" type="line"/>
      <point x="287" y="1255" type="line" smooth="yes"/>
      <point x="218" y="1301"/>
      <point x="121" y="1282"/>
      <point x="75" y="1213" type="curve" smooth="yes"/>
      <point x="29" y="1144"/>
      <point x="48" y="1047"/>
      <point x="117" y="1001" type="curve" smooth="yes"/>
      <point x="292" y="884" type="line"/>
      <point x="417" y="801" type="line" smooth="yes"/>
      <point x="486" y="755"/>
      <point x="583" y="774"/>
    </contour>
  </outline>
</glyph>
<glyph name="a" format="1">
  <advance width="792"/>
  <unicode hex="0061"/>
  <outline>
    <contour>
      <point x="696" y="-50" type="curve" smooth="yes"/>
      <point x="721" y="-50"/>
      <point x="742" y="-29"/>
      <point x="742" y="-4" type="curve" smooth="yes"/>
      <point x="742" y="413" type="line" smooth="yes"/>
      <point x="742" y="417"/>
      <point x="741" y="423"/>
      <point x="740" y="426" type="curve" smooth="yes"/>
      <point x="632" y="797" type="line" smooth="yes"/>
      <point x="627" y="815"/>
      <point x="607" y="830"/>
      <point x="588" y="830" type="curve" smooth="yes"/>
      <point x="203" y="831" type="line" smooth="yes"/>
      <point x="183" y="831"/>
      <point x="164" y="816"/>
      <point x="158" y="797" type="curve" smooth="yes"/>
      <point x="52" y="421" type="line" smooth="yes"/>
      <point x="51" y="418"/>
      <point x="50" y="412"/>
      <point x="50" y="409" type="curve" smooth="yes"/>
      <point x="51" y="16" type="line" smooth="yes"/>
      <point x="51" y="-33"/>
      <point x="109" y="-50"/>
      <point x="136" y="-8" type="curve" smooth="yes"/>
      <point x="331" y="300" type="line"/>
      <point x="650" y="300" type="line"/>
      <point x="650" y="-4" type="line" smooth="yes"/>
      <point x="650" y="-29"/>
      <point x="671" y="-50"/>
    </contour>
    <contour>
      <point x="267" y="371" type="curve" smooth="yes"/>
      <point x="143" y="174" type="line"/>
      <point x="142" y="402" type="line"/>
      <point x="237" y="738" type="line"/>
      <point x="554" y="738" type="line"/>
      <point x="650" y="407" type="line"/>
      <point x="650" y="392" type="line"/>
      <point x="306" y="392" type="line" smooth="yes"/>
      <point x="292" y="392"/>
      <point x="275" y="382"/>
    </contour>
  </outline>
</glyph>
<glyph name="b" format="1">
  <advance width="857"/>
  <unicode hex="0062"/>
  <outline>
    <contour>
      <point x="332" y="-82" type="curve" smooth="yes"/>
      <point x="539" y="-82" type="line" smooth="yes"/>
      <point x="551" y="-82"/>
      <point x="569" y="-77"/>
      <point x="579" y="-72" type="curve" smooth="yes"/>
      <point x="760" y="25" type="line" smooth="yes"/>
      <point x="785" y="39"/>
      <point x="806" y="72"/>
      <point x="806" y="100" type="curve" smooth="yes"/>
      <point x="807" y="311" type="line" smooth="yes"/>
      <point x="808" y="340"/>
      <point x="786" y="375"/>
      <point x="760" y="388" type="curve" smooth="yes"/>
      <point x="723" y="407" type="line"/>
      <point x="761" y="427" type="line" smooth="yes"/>
      <point x="786" y="440"/>
      <point x="806" y="474"/>
      <point x="806" y="503" type="curve" smooth="yes"/>
      <point x="807" y="713" type="line" smooth="yes"/>
      <point x="807" y="742"/>
      <point x="785" y="777"/>
      <point x="758" y="790" type="curve" smooth="yes"/>
      <point x="572" y="881" type="line" smooth="yes"/>
      <point x="562" y="886"/>
      <point x="545" y="890"/>
      <point x="534" y="890" type="curve" smooth="yes"/>
      <point x="334" y="890" type="line" smooth="yes"/>
      <point x="323" y="890"/>
      <point x="306" y="886"/>
      <point x="296" y="881" type="curve" smooth="yes"/>
      <point x="112" y="791" type="line" smooth="yes"/>
      <point x="87" y="779"/>
      <point x="66" y="747"/>
      <point x="64" y="719" type="curve" smooth="yes"/>
      <point x="50" y="515" type="line"/>
      <point x="50" y="407" type="line"/>
      <point x="50" y="404" type="line" smooth="yes"/>
      <point x="50" y="403"/>
      <point x="50" y="401"/>
      <point x="50" y="401" type="curve"/>
      <point x="50" y="301" type="line"/>
      <point x="66" y="92" type="line" smooth="yes"/>
      <point x="67" y="66"/>
      <point x="88" y="35"/>
      <point x="111" y="23" type="curve" smooth="yes"/>
      <point x="292" y="-72" type="line" smooth="yes"/>
      <point x="302" y="-78"/>
      <point x="320" y="-82"/>
    </contour>
    <contour>
      <point x="222" y="503" type="line"/>
      <point x="232" y="658" type="line"/>
      <point x="354" y="718" type="line"/>
      <point x="514" y="718" type="line"/>
      <point x="635" y="659" type="line"/>
      <point x="634" y="554" type="line"/>
      <point x="514" y="490" type="line"/>
      <point x="222" y="490" type="line"/>
    </contour>
    <contour>
      <point x="222" y="301" type="line"/>
      <point x="222" y="318" type="line"/>
      <point x="516" y="318" type="line"/>
      <point x="635" y="258" type="line"/>
      <point x="634" y="153" type="line"/>
      <point x="517" y="90" type="line"/>
      <point x="353" y="90" type="line"/>
      <point x="233" y="153" type="line"/>
    </contour>
  </outline>
</glyph>
<glyph name="c" format="1">
  <advance width="973"/>
  <unicode hex="0063"/>
  <outline>
    <contour>
      <point x="787" y="-66" type="curve" smooth="yes"/>
      <point x="903" y="127" type="line" smooth="yes"/>
      <point x="942" y="190"/>
      <point x="920" y="277"/>
      <point x="857" y="315" type="curve" smooth="yes"/>
      <point x="794" y="354"/>
      <point x="707" y="332"/>
      <point x="669" y="269" type="curve" smooth="yes"/>
      <point x="595" y="146" type="line"/>
      <point x="368" y="159" type="line"/>
      <point x="329" y="413" type="line"/>
      <point x="461" y="617" type="line"/>
      <point x="721" y="477" type="line" smooth="yes"/>
      <point x="786" y="442"/>
      <point x="872" y="468"/>
      <point x="907" y="533" type="curve" smooth="yes"/>
      <point x="942" y="598"/>
      <point x="916" y="684"/>
      <point x="851" y="719" type="curve" smooth="yes"/>
      <point x="479" y="919" type="line" smooth="yes"/>
      <point x="417" y="952"/>
      <point x="337" y="931"/>
      <point x="299" y="872" type="curve" smooth="yes"/>
      <point x="71" y="518" type="line" smooth="yes"/>
      <point x="55" y="494"/>
      <point x="46" y="451"/>
      <point x="51" y="423" type="curve" smooth="yes"/>
      <point x="113" y="8" type="line" smooth="yes"/>
      <point x="122" y="-53"/>
      <point x="180" y="-105"/>
      <point x="241" y="-109" type="curve" smooth="yes"/>
      <point x="662" y="-132" type="line" smooth="yes"/>
      <point x="707" y="-134"/>
      <point x="763" y="-105"/>
    </contour>
  </outline>
</glyph>
<glyph name="d" format="1">
  <advance width="936"/>
  <unicode hex="0064"/>
  <outline>
    <contour>
      <point x="607" y="-78" type="curve" smooth="yes"/>
      <point x="857" y="212" type="line" smooth="yes"/>
      <point x="873" y="230"/>
      <point x="886" y="265"/>
      <point x="886" y="289" type="curve" smooth="yes"/>
      <point x="886" y="589" type="line" smooth="yes"/>
      <point x="886" y="593"/>
      <point x="886" y="597"/>
      <point x="885" y="601" type="curve"/>
      <point x="884" y="641"/>
      <point x="864" y="679"/>
      <point x="829" y="700" type="curve" smooth="yes"/>
      <point x="499" y="900" type="line" smooth="yes"/>
      <point x="455" y="926"/>
      <point x="391" y="919"/>
      <point x="354" y="882" type="curve" smooth="yes"/>
      <point x="85" y="612" type="line" smooth="yes"/>
      <point x="65" y="593"/>
      <point x="50" y="556"/>
      <point x="50" y="529" type="curve"/>
      <point x="50" y="149" type="line"/>
      <point x="50" y="106"/>
      <point x="82" y="57"/>
      <point x="122" y="41" type="curve" smooth="yes"/>
      <point x="472" y="-109" type="line" smooth="yes"/>
      <point x="515" y="-128"/>
      <point x="576" y="-114"/>
    </contour>
    <contour>
      <point x="485" y="142" type="line"/>
      <point x="286" y="227" type="line"/>
      <point x="286" y="480" type="line"/>
      <point x="456" y="650" type="line"/>
      <point x="650" y="533" type="line"/>
      <point x="650" y="333" type="line"/>
    </contour>
  </outline>
</glyph>
<glyph name="e" format="1">
  <advance width="801"/>
  <unicode hex="0065"/>
  <outline>
    <contour>
      <point x="536" y="-53" type="line" smooth="yes"/>
      <point x="539" y="-52"/>
      <point x="544" y="-52"/>
      <point x="547" y="-51" type="curve" smooth="yes"/>
      <point x="637" y="-28" type="line" smooth="yes"/>
      <point x="646" y="-26"/>
      <point x="658" y="-18"/>
      <point x="664" y="-11" type="curve" smooth="yes"/>
      <point x="727" y="63" type="line" smooth="yes"/>
      <point x="733" y="70"/>
      <point x="739" y="83"/>
      <point x="740" y="92" type="curve" smooth="yes"/>
      <point x="751" y="190" type="line" smooth="yes"/>
      <point x="754" y="219"/>
      <point x="732" y="247"/>
      <point x="703" y="250" type="curve" smooth="yes"/>
      <point x="674" y="253"/>
      <point x="646" y="231"/>
      <point x="643" y="202" type="curve" smooth="yes"/>
      <point x="634" y="121" type="line"/>
      <point x="593" y="72" type="line"/>
      <point x="526" y="55" type="line"/>
      <point x="505" y="54" type="line"/>
      <point x="158" y="171" type="line"/>
      <point x="170" y="655" type="line"/>
      <point x="685" y="549" type="line" smooth="yes"/>
      <point x="714" y="543"/>
      <point x="743" y="563"/>
      <point x="749" y="591" type="curve" smooth="yes"/>
      <point x="755" y="620"/>
      <point x="735" y="649"/>
      <point x="707" y="655" type="curve" smooth="yes"/>
      <point x="129" y="774" type="line" smooth="yes"/>
      <point x="94" y="781"/>
      <point x="65" y="758"/>
      <point x="64" y="723" type="curve" smooth="yes"/>
      <point x="50" y="134" type="line" smooth="yes"/>
      <point x="49" y="112"/>
      <point x="65" y="89"/>
      <point x="86" y="82" type="curve" smooth="yes"/>
      <point x="480" y="-51" type="line" smooth="yes"/>
      <point x="485" y="-53"/>
      <point x="490" y="-54"/>
      <point x="495" y="-54" type="curve"/>
      <point x="497" y="-54"/>
      <point x="499" y="-54"/>
      <point x="501" y="-54" type="curve" smooth="yes"/>
    </contour>
  </outline>
</glyph>
<glyph name="f" format="1">
  <advance width="779"/>
  <unicode hex="0066"/>
  <outline>
    <contour>
      <point x="130" y="4" type="curve" smooth="yes"/>
      <point x="130" y="43" type="line"/>
      <point x="136" y="248" type="line"/>
      <point x="278" y="366" type="line"/>
      <point x="282" y="365"/>
      <point x="286" y="364"/>
      <point x="290" y="364" type="curve" smooth="yes"/>
      <point x="490" y="364" type="line" smooth="yes"/>
      <point x="512" y="364"/>
      <point x="530" y="382"/>
      <point x="530" y="404" type="curve" smooth="yes"/>
      <point x="530" y="426"/>
      <point x="512" y="444"/>
      <point x="490" y="444" type="curve" smooth="yes"/>
      <point x="290" y="444" type="line" smooth="yes"/>
      <point x="286" y="444"/>
      <point x="283" y="443"/>
      <point x="279" y="442" type="curve"/>
      <point x="137" y="566" type="line"/>
      <point x="172" y="727" type="line"/>
      <point x="361" y="764" type="line"/>
      <point x="555" y="757" type="line"/>
      <point x="654" y="586" type="line" smooth="yes"/>
      <point x="665" y="567"/>
      <point x="690" y="561"/>
      <point x="709" y="571" type="curve" smooth="yes"/>
      <point x="728" y="582"/>
      <point x="734" y="607"/>
      <point x="724" y="626" type="curve" smooth="yes"/>
      <point x="613" y="816" type="line" smooth="yes"/>
      <point x="607" y="826"/>
      <point x="592" y="835"/>
      <point x="580" y="836" type="curve" smooth="yes"/>
      <point x="359" y="844" type="line" smooth="yes"/>
      <point x="357" y="844"/>
      <point x="352" y="844"/>
      <point x="350" y="843" type="curve" smooth="yes"/>
      <point x="131" y="800" type="line" smooth="yes"/>
      <point x="117" y="797"/>
      <point x="103" y="784"/>
      <point x="100" y="770" type="curve" smooth="yes"/>
      <point x="54" y="560" type="line" smooth="yes"/>
      <point x="51" y="547"/>
      <point x="57" y="530"/>
      <point x="67" y="522" type="curve" smooth="yes"/>
      <point x="200" y="405" type="line"/>
      <point x="71" y="298" type="line" smooth="yes"/>
      <point x="63" y="291"/>
      <point x="57" y="278"/>
      <point x="56" y="268" type="curve" smooth="yes"/>
      <point x="50" y="45" type="line"/>
      <point x="50" y="4" type="line" smooth="yes"/>
      <point x="50" y="-17"/>
      <point x="68" y="-36"/>
      <point x="90" y="-36" type="curve" smooth="yes"/>
      <point x="111" y="-36"/>
      <point x="130" y="-18"/>
    </contour>
  </outline>
</glyph>
<glyph name="g" format="1">
  <advance width="826"/>
  <unicode hex="0067"/>
  <outline>
    <contour>
      <point x="304" y="666" type="line" smooth="yes"/>
      <point x="271" y="662"/>
      <point x="246" y="629"/>
      <point x="251" y="595" type="curve" smooth="yes"/>
      <point x="265" y="488" type="line" smooth="yes"/>
      <point x="266" y="480"/>
      <point x="271" y="468"/>
      <point x="276" y="461" type="curve" smooth="yes"/>
      <point x="488" y="154" type="line"/>
      <point x="181" y="257" type="line"/>
      <point x="232" y="690" type="line"/>
      <point x="307" y="667" type="line"/>
    </contour>
    <contour>
      <point x="700" y="70" type="curve" smooth="yes"/>
      <point x="388" y="520" type="line"/>
      <point x="375" y="613" type="line" smooth="yes"/>
      <point x="373" y="628"/>
      <point x="365" y="642"/>
      <point x="353" y="652" type="curve"/>
      <point x="694" y="544" type="line" smooth="yes"/>
      <point x="726" y="534"/>
      <point x="763" y="553"/>
      <point x="773" y="585" type="curve" smooth="yes"/>
      <point x="783" y="617"/>
      <point x="764" y="654"/>
      <point x="732" y="664" type="curve" smooth="yes"/>
      <point x="197" y="834" type="line" smooth="yes"/>
      <point x="157" y="846"/>
      <point x="120" y="822"/>
      <point x="115" y="781" type="curve" smooth="yes"/>
      <point x="50" y="221" type="line" smooth="yes"/>
      <point x="47" y="193"/>
      <point x="66" y="163"/>
      <point x="93" y="154" type="curve" smooth="yes"/>
      <point x="628" y="-25" type="line" smooth="yes"/>
      <point x="690" y="-46"/>
      <point x="737" y="16"/>
    </contour>
  </outline>
</glyph>
<glyph name="h" format="1">
  <advance width="792"/>
  <unicode hex="0068"/>
  <outline>
    <contour>
      <point x="696" y="-50" type="curve" smooth="yes"/>
      <point x="721" y="-50"/>
      <point x="742" y="-29"/>
      <point x="742" y="-4" type="curve" smooth="yes"/>
      <point x="742" y="716" type="line" smooth="yes"/>
      <point x="742" y="776"/>
      <point x="652" y="778"/>
      <point x="650" y="718" type="curve" smooth="yes"/>
      <point x="647" y="628" type="line"/>
      <point x="644" y="546" type="line"/>
      <point x="620" y="483" type="line"/>
      <point x="560" y="449" type="line"/>
      <point x="484" y="442" type="line"/>
      <point x="306" y="442" type="line" smooth="yes"/>
      <point x="305" y="442"/>
      <point x="303" y="442"/>
      <point x="302" y="442" type="curve" smooth="yes"/>
      <point x="214" y="434" type="line" smooth="yes"/>
      <point x="208" y="433"/>
      <point x="200" y="430"/>
      <point x="195" y="428" type="curve" smooth="yes"/>
      <point x="142" y="397" type="line"/>
      <point x="142" y="796" type="line" smooth="yes"/>
      <point x="142" y="821"/>
      <point x="121" y="842"/>
      <point x="96" y="842" type="curve" smooth="yes"/>
      <point x="71" y="842"/>
      <point x="50" y="821"/>
      <point x="50" y="796" type="curve" smooth="yes"/>
      <point x="50" y="256" type="line"/>
      <point x="50" y="165" type="line"/>
      <point x="52" y="75" type="line" smooth="yes"/>
      <point x="53" y="15"/>
      <point x="142" y="15"/>
      <point x="144" y="75" type="curve" smooth="yes"/>
      <point x="146" y="164" type="line"/>
      <point x="149" y="246" type="line"/>
      <point x="173" y="309" type="line"/>
      <point x="232" y="343" type="line"/>
      <point x="308" y="350" type="line"/>
      <point x="486" y="350" type="line" smooth="yes"/>
      <point x="487" y="350"/>
      <point x="489" y="350"/>
      <point x="490" y="350" type="curve" smooth="yes"/>
      <point x="578" y="358" type="line" smooth="yes"/>
      <point x="584" y="359"/>
      <point x="592" y="362"/>
      <point x="597" y="364" type="curve" smooth="yes"/>
      <point x="650" y="395" type="line"/>
      <point x="650" y="-4" type="line" smooth="yes"/>
      <point x="650" y="-29"/>
      <point x="671" y="-50"/>
    </contour>
  </outline>
</glyph>
<glyph name="i" format="1">
  <advance width="824"/>
  <unicode hex="0069"/>
  <outline>
    <contour>
      <point x="112" y="-63" type="curve" smooth="yes"/>
      <point x="572" y="-63" type="line" smooth="yes"/>
      <point x="632" y="-63"/>
      <point x="658" y="-1"/>
      <point x="617" y="42" type="curve" smooth="yes"/>
      <point x="475" y="188" type="line"/>
      <point x="474" y="389" type="line"/>
      <point x="474" y="618" type="line" smooth="yes"/>
      <point x="474" y="632"/>
      <point x="466" y="650"/>
      <point x="458" y="660" type="curve" smooth="yes"/>
      <point x="391" y="733" type="line"/>
      <point x="485" y="737" type="line"/>
      <point x="712" y="737" type="line" smooth="yes"/>
      <point x="745" y="737"/>
      <point x="774" y="766"/>
      <point x="774" y="799" type="curve" smooth="yes"/>
      <point x="774" y="832"/>
      <point x="745" y="861"/>
      <point x="712" y="861" type="curve" smooth="yes"/>
      <point x="479" y="861" type="line"/>
      <point x="254" y="852" type="line" smooth="yes"/>
      <point x="197" y="849"/>
      <point x="172" y="791"/>
      <point x="210" y="748" type="curve" smooth="yes"/>
      <point x="350" y="594" type="line"/>
      <point x="350" y="389" type="line"/>
      <point x="351" y="162" type="line" smooth="yes"/>
      <point x="352" y="148"/>
      <point x="359" y="129"/>
      <point x="369" y="119" type="curve" smooth="yes"/>
      <point x="426" y="61" type="line"/>
      <point x="112" y="61" type="line" smooth="yes"/>
      <point x="79" y="61"/>
      <point x="50" y="32"/>
      <point x="50" y="-1" type="curve" smooth="yes"/>
      <point x="50" y="-34"/>
      <point x="79" y="-63"/>
    </contour>
  </outline>
</glyph>
<glyph name="j" format="1">
  <advance width="864"/>
  <unicode hex="006A"/>
  <outline>
    <contour>
      <point x="189" y="-60" type="curve" smooth="yes"/>
      <point x="489" y="229" type="line" smooth="yes"/>
      <point x="514" y="254"/>
      <point x="521" y="298"/>
      <point x="503" y="329" type="curve" smooth="yes"/>
      <point x="283" y="717" type="line"/>
      <point x="732" y="717" type="line" smooth="yes"/>
      <point x="776" y="717"/>
      <point x="814" y="755"/>
      <point x="814" y="799" type="curve" smooth="yes"/>
      <point x="814" y="843"/>
      <point x="776" y="881"/>
      <point x="732" y="881" type="curve" smooth="yes"/>
      <point x="142" y="881" type="line" smooth="yes"/>
      <point x="74" y="881"/>
      <point x="37" y="818"/>
      <point x="71" y="759" type="curve" smooth="yes"/>
      <point x="329" y="303" type="line"/>
      <point x="75" y="58" type="line" smooth="yes"/>
      <point x="43" y="27"/>
      <point x="42" y="-26"/>
      <point x="73" y="-58" type="curve" smooth="yes"/>
      <point x="104" y="-90"/>
      <point x="157" y="-91"/>
    </contour>
  </outline>
</glyph>
<glyph name="k" format="1">
  <advance width="921"/>
  <unicode hex="006B"/>
  <outline>
    <contour>
      <point x="838" y="-74" type="curve" smooth="yes"/>
      <point x="881" y="-32"/>
      <point x="881" y="40"/>
      <point x="838" y="82" type="curve" smooth="yes"/>
      <point x="616" y="305" type="line"/>
      <point x="749" y="347" type="line" smooth="yes"/>
      <point x="781" y="357"/>
      <point x="815" y="391"/>
      <point x="823" y="424" type="curve" smooth="yes"/>
      <point x="866" y="585" type="line" smooth="yes"/>
      <point x="868" y="593"/>
      <point x="870" y="606"/>
      <point x="870" y="613" type="curve" smooth="yes"/>
      <point x="871" y="803" type="line" smooth="yes"/>
      <point x="871" y="863"/>
      <point x="820" y="915"/>
      <point x="761" y="915" type="curve" smooth="yes"/>
      <point x="701" y="915"/>
      <point x="649" y="864"/>
      <point x="649" y="805" type="curve" smooth="yes"/>
      <point x="648" y="629" type="line"/>
      <point x="625" y="540" type="line"/>
      <point x="527" y="510" type="line" smooth="yes"/>
      <point x="499" y="501"/>
      <point x="477" y="482"/>
      <point x="464" y="457" type="curve"/>
      <point x="451" y="470" type="line"/>
      <point x="259" y="854" type="line" smooth="yes"/>
      <point x="232" y="907"/>
      <point x="164" y="930"/>
      <point x="110" y="903" type="curve" smooth="yes"/>
      <point x="57" y="876"/>
      <point x="34" y="808"/>
      <point x="61" y="754" type="curve" smooth="yes"/>
      <point x="261" y="354" type="line" smooth="yes"/>
      <point x="265" y="345"/>
      <point x="274" y="333"/>
      <point x="282" y="326" type="curve" smooth="yes"/>
      <point x="682" y="-74" type="line" smooth="yes"/>
      <point x="724" y="-117"/>
      <point x="796" y="-117"/>
    </contour>
  </outline>
</glyph>
<glyph name="l" format="1">
  <advance width="814"/>
  <unicode hex="006C"/>
  <outline>
    <contour>
      <point x="377" y="-57" type="curve" smooth="yes"/>
      <point x="707" y="-57" type="line" smooth="yes"/>
      <point x="738" y="-57"/>
      <point x="764" y="-31"/>
      <point x="764" y="0" type="curve" smooth="yes"/>
      <point x="764" y="31"/>
      <point x="738" y="57"/>
      <point x="707" y="57" type="curve" smooth="yes"/>
      <point x="377" y="57" type="line"/>
      <point x="274" y="58" type="line"/>
      <point x="203" y="83" type="line"/>
      <point x="169" y="150" type="line"/>
      <point x="164" y="250" type="line"/>
      <point x="164" y="800" type="line" smooth="yes"/>
      <point x="164" y="831"/>
      <point x="138" y="857"/>
      <point x="107" y="857" type="curve" smooth="yes"/>
      <point x="76" y="857"/>
      <point x="50" y="831"/>
      <point x="50" y="800" type="curve" smooth="yes"/>
      <point x="50" y="250" type="line"/>
      <point x="55" y="133" type="line" smooth="yes"/>
      <point x="56" y="126"/>
      <point x="59" y="115"/>
      <point x="62" y="109" type="curve" smooth="yes"/>
      <point x="112" y="11" type="line" smooth="yes"/>
      <point x="117" y="0"/>
      <point x="131" y="-12"/>
      <point x="143" y="-16" type="curve" smooth="yes"/>
      <point x="244" y="-53" type="line" smooth="yes"/>
      <point x="249" y="-54"/>
      <point x="258" y="-56"/>
      <point x="263" y="-56" type="curve" smooth="yes"/>
      <point x="376" y="-57" type="line" smooth="yes"/>
      <point x="377" y="-57"/>
      <point x="377" y="-57"/>
    </contour>
  </outline>
</glyph>
<glyph name="m" format="1">
  <advance width="882"/>
  <unicode hex="006D"/>
  <outline>
    <contour>
      <point x="741" y="-92" type="curve" smooth="yes"/>
      <point x="790" y="-92"/>
      <point x="832" y="-50"/>
      <point x="832" y="-1" type="curve" smooth="yes"/>
      <point x="832" y="499" type="line" smooth="yes"/>
      <point x="832" y="525"/>
      <point x="815" y="559"/>
      <point x="793" y="574" type="curve" smooth="yes"/>
      <point x="376" y="866" type="line" smooth="yes"/>
      <point x="325" y="902"/>
      <point x="261" y="882"/>
      <point x="239" y="824" type="curve" smooth="yes"/>
      <point x="56" y="352" type="line" smooth="yes"/>
      <point x="53" y="343"/>
      <point x="50" y="328"/>
      <point x="50" y="319" type="curve" smooth="yes"/>
      <point x="50" y="-1" type="line" smooth="yes"/>
      <point x="50" y="-50"/>
      <point x="92" y="-92"/>
      <point x="141" y="-92" type="curve" smooth="yes"/>
      <point x="190" y="-92"/>
      <point x="232" y="-50"/>
      <point x="232" y="-1" type="curve" smooth="yes"/>
      <point x="232" y="302" type="line"/>
      <point x="367" y="650" type="line"/>
      <point x="650" y="452" type="line"/>
      <point x="650" y="-1" type="line" smooth="yes"/>
      <point x="650" y="-50"/>
      <point x="692" y="-92"/>
    </contour>
  </outline>
</glyph>
<glyph name="n" format="1">
  <advance width="874"/>
  <unicode hex="006E"/>
  <outline>
    <contour>
      <point x="224" y="-1" type="curve" smooth="yes"/>
      <point x="224" y="638" type="line"/>
      <point x="243" y="708" type="line"/>
      <point x="287" y="705" type="line"/>
      <point x="344" y="642" type="line"/>
      <point x="350" y="529" type="line"/>
      <point x="350" y="229" type="line" smooth="yes"/>
      <point x="350" y="225"/>
      <point x="351" y="219"/>
      <point x="351" y="215" type="curve" smooth="yes"/>
      <point x="376" y="61" type="line" smooth="yes"/>
      <point x="380" y="38"/>
      <point x="399" y="11"/>
      <point x="419" y="-1" type="curve" smooth="yes"/>
      <point x="551" y="-76" type="line" smooth="yes"/>
      <point x="569" y="-86"/>
      <point x="601" y="-89"/>
      <point x="622" y="-82" type="curve" smooth="yes"/>
      <point x="765" y="-33" type="line" smooth="yes"/>
      <point x="798" y="-22"/>
      <point x="824" y="15"/>
      <point x="824" y="49" type="curve" smooth="yes"/>
      <point x="824" y="799" type="line" smooth="yes"/>
      <point x="824" y="846"/>
      <point x="784" y="886"/>
      <point x="737" y="886" type="curve" smooth="yes"/>
      <point x="690" y="886"/>
      <point x="650" y="846"/>
      <point x="650" y="799" type="curve" smooth="yes"/>
      <point x="650" y="111" type="line"/>
      <point x="603" y="95" type="line"/>
      <point x="541" y="130" type="line"/>
      <point x="524" y="236" type="line"/>
      <point x="524" y="529" type="line"/>
      <point x="516" y="682" type="line" smooth="yes"/>
      <point x="515" y="699"/>
      <point x="505" y="723"/>
      <point x="494" y="736" type="curve" smooth="yes"/>
      <point x="393" y="848" type="line" smooth="yes"/>
      <point x="380" y="863"/>
      <point x="353" y="876"/>
      <point x="333" y="877" type="curve" smooth="yes"/>
      <point x="182" y="886" type="line" smooth="yes"/>
      <point x="143" y="888"/>
      <point x="103" y="859"/>
      <point x="93" y="821" type="curve" smooth="yes"/>
      <point x="53" y="671" type="line" smooth="yes"/>
      <point x="51" y="665"/>
      <point x="50" y="655"/>
      <point x="50" y="649" type="curve" smooth="yes"/>
      <point x="50" y="-1" type="line" smooth="yes"/>
      <point x="50" y="-48"/>
      <point x="90" y="-88"/>
      <point x="137" y="-88" type="curve" smooth="yes"/>
      <point x="184" y="-88"/>
      <point x="224" y="-48"/>
    </contour>
  </outline>
</glyph>
<glyph name="o" format="1">
  <advance width="869"/>
  <unicode hex="006F"/>
  <outline>
    <contour>
      <point x="528" y="83" type="line" smooth="yes"/>
      <point x="359" y="83" type="line"/>
      <point x="290" y="87" type="line"/>
      <point x="248" y="104" type="line"/>
      <point x="225" y="138" type="line"/>
      <point x="218" y="203" type="line"/>
      <point x="218" y="469" type="line"/>
      <point x="218" y="558" type="line"/>
      <point x="219" y="636" type="line"/>
      <point x="235" y="682" type="line"/>
      <point x="271" y="706" type="line"/>
      <point x="337" y="715" type="line"/>
      <point x="422" y="715" type="line"/>
      <point x="508" y="715" type="line"/>
      <point x="579" y="711" type="line"/>
      <point x="621" y="694" type="line"/>
      <point x="644" y="660" type="line"/>
      <point x="651" y="595" type="line"/>
      <point x="651" y="329" type="line"/>
      <point x="651" y="240" type="line"/>
      <point x="650" y="162" type="line"/>
      <point x="634" y="115" type="line"/>
      <point x="599" y="91" type="line"/>
      <point x="532" y="83" type="line"/>
    </contour>
    <contour>
      <point x="528" y="-85" type="line" smooth="yes"/>
      <point x="530" y="-85"/>
      <point x="532" y="-85"/>
      <point x="533" y="-85" type="curve"/>
      <point x="538" y="-85"/>
      <point x="544" y="-85"/>
      <point x="549" y="-84" type="curve" smooth="yes"/>
      <point x="640" y="-73" type="line" smooth="yes"/>
      <point x="650" y="-71"/>
      <point x="666" y="-65"/>
      <point x="676" y="-59" type="curve" smooth="yes"/>
      <point x="752" y="-9" type="line" smooth="yes"/>
      <point x="765" y="0"/>
      <point x="780" y="20"/>
      <point x="785" y="35" type="curve" smooth="yes"/>
      <point x="813" y="121" type="line" smooth="yes"/>
      <point x="816" y="128"/>
      <point x="818" y="139"/>
      <point x="818" y="147" type="curve" smooth="yes"/>
      <point x="819" y="238" type="line"/>
      <point x="819" y="329" type="line"/>
      <point x="819" y="599" type="line" smooth="yes"/>
      <point x="819" y="601"/>
      <point x="819" y="605"/>
      <point x="819" y="608" type="curve" smooth="yes"/>
      <point x="809" y="699" type="line" smooth="yes"/>
      <point x="808" y="711"/>
      <point x="801" y="729"/>
      <point x="794" y="738" type="curve" smooth="yes"/>
      <point x="744" y="811" type="line" smooth="yes"/>
      <point x="736" y="822"/>
      <point x="719" y="836"/>
      <point x="706" y="841" type="curve" smooth="yes"/>
      <point x="629" y="872" type="line" smooth="yes"/>
      <point x="622" y="874"/>
      <point x="611" y="877"/>
      <point x="603" y="877" type="curve" smooth="yes"/>
      <point x="518" y="883" type="line"/>
      <point x="422" y="883" type="line"/>
      <point x="332" y="883" type="line" smooth="yes"/>
      <point x="329" y="883"/>
      <point x="324" y="883"/>
      <point x="321" y="882" type="curve" smooth="yes"/>
      <point x="230" y="871" type="line" smooth="yes"/>
      <point x="219" y="869"/>
      <point x="203" y="863"/>
      <point x="194" y="857" type="curve" smooth="yes"/>
      <point x="118" y="806" type="line" smooth="yes"/>
      <point x="104" y="797"/>
      <point x="89" y="778"/>
      <point x="84" y="763" type="curve" smooth="yes"/>
      <point x="56" y="676" type="line" smooth="yes"/>
      <point x="53" y="670"/>
      <point x="51" y="658"/>
      <point x="51" y="651" type="curve" smooth="yes"/>
      <point x="50" y="560" type="line"/>
      <point x="50" y="469" type="line"/>
      <point x="50" y="199" type="line" smooth="yes"/>
      <point x="50" y="197"/>
      <point x="50" y="193"/>
      <point x="50" y="190" type="curve" smooth="yes"/>
      <point x="60" y="99" type="line" smooth="yes"/>
      <point x="61" y="87"/>
      <point x="68" y="69"/>
      <point x="75" y="60" type="curve" smooth="yes"/>
      <point x="125" y="-13" type="line" smooth="yes"/>
      <point x="133" y="-24"/>
      <point x="150" y="-38"/>
      <point x="163" y="-43" type="curve" smooth="yes"/>
      <point x="240" y="-74" type="line" smooth="yes"/>
      <point x="247" y="-76"/>
      <point x="258" y="-79"/>
      <point x="266" y="-79" type="curve" smooth="yes"/>
      <point x="351" y="-85" type="line" smooth="yes"/>
      <point x="352" y="-85"/>
      <point x="355" y="-85"/>
      <point x="356" y="-85" type="curve" smooth="yes"/>
    </contour>
  </outline>
</glyph>
<glyph name="p" format="1">
  <advance width="845"/>
  <unicode hex="0070"/>
  <outline>
    <contour>
      <point x="122" y="-69" type="curve" smooth="yes"/>
      <point x="161" y="-69"/>
      <point x="194" y="-36"/>
      <point x="194" y="3" type="curve" smooth="yes"/>
      <point x="194" y="87" type="line"/>
      <point x="237" y="208" type="line"/>
      <point x="369" y="235" type="line"/>
      <point x="541" y="235" type="line" smooth="yes"/>
      <point x="551" y="235"/>
      <point x="565" y="239"/>
      <point x="574" y="243" type="curve" smooth="yes"/>
      <point x="738" y="328" type="line" smooth="yes"/>
      <point x="757" y="338"/>
      <point x="775" y="363"/>
      <point x="777" y="385" type="curve" smooth="yes"/>
      <point x="795" y="567" type="line" smooth="yes"/>
      <point x="795" y="574"/>
      <point x="795" y="585"/>
      <point x="793" y="592" type="curve" smooth="yes"/>
      <point x="748" y="772" type="line" smooth="yes"/>
      <point x="742" y="794"/>
      <point x="720" y="818"/>
      <point x="697" y="824" type="curve" smooth="yes"/>
      <point x="520" y="872" type="line" smooth="yes"/>
      <point x="515" y="874"/>
      <point x="506" y="875"/>
      <point x="501" y="875" type="curve" smooth="yes"/>
      <point x="320" y="875" type="line" smooth="yes"/>
      <point x="312" y="875"/>
      <point x="300" y="873"/>
      <point x="293" y="870" type="curve" smooth="yes"/>
      <point x="120" y="800" type="line" smooth="yes"/>
      <point x="99" y="791"/>
      <point x="79" y="766"/>
      <point x="76" y="743" type="curve" smooth="yes"/>
      <point x="51" y="563" type="line" smooth="yes"/>
      <point x="50" y="560"/>
      <point x="50" y="556"/>
      <point x="50" y="553" type="curve" smooth="yes"/>
      <point x="50" y="3" type="line" smooth="yes"/>
      <point x="50" y="-36"/>
      <point x="83" y="-69"/>
    </contour>
    <contour>
      <point x="348" y="378" type="curve" smooth="yes"/>
      <point x="194" y="347" type="line"/>
      <point x="194" y="548" type="line"/>
      <point x="213" y="682" type="line"/>
      <point x="334" y="731" type="line"/>
      <point x="491" y="731" type="line"/>
      <point x="618" y="696" type="line"/>
      <point x="650" y="569" type="line"/>
      <point x="637" y="438" type="line"/>
      <point x="523" y="379" type="line"/>
      <point x="362" y="379" type="line" smooth="yes"/>
      <point x="358" y="379"/>
      <point x="352" y="378"/>
    </contour>
  </outline>
</glyph>
<glyph name="q" format="1">
  <advance width="843"/>
  <unicode hex="0071"/>
  <outline>
    <contour>
      <point x="491" y="70" type="line"/>
      <point x="302" y="72" type="line"/>
      <point x="192" y="249" type="line"/>
      <point x="192" y="492" type="line"/>
      <point x="230" y="695" type="line"/>
      <point x="427" y="727" type="line"/>
      <point x="625" y="679" type="line"/>
      <point x="651" y="467" type="line"/>
      <point x="632" y="228" type="line"/>
    </contour>
    <contour>
      <point x="575" y="-48" type="curve" smooth="yes"/>
      <point x="754" y="151" type="line" smooth="yes"/>
      <point x="763" y="161"/>
      <point x="771" y="180"/>
      <point x="772" y="193" type="curve" smooth="yes"/>
      <point x="793" y="464" type="line" smooth="yes"/>
      <point x="793" y="467"/>
      <point x="793" y="474"/>
      <point x="792" y="478" type="curve" smooth="yes"/>
      <point x="760" y="745" type="line" smooth="yes"/>
      <point x="756" y="772"/>
      <point x="732" y="799"/>
      <point x="706" y="806" type="curve" smooth="yes"/>
      <point x="446" y="868" type="line" smooth="yes"/>
      <point x="438" y="870"/>
      <point x="426" y="870"/>
      <point x="418" y="869" type="curve" smooth="yes"/>
      <point x="158" y="827" type="line" smooth="yes"/>
      <point x="131" y="822"/>
      <point x="105" y="797"/>
      <point x="100" y="770" type="curve" smooth="yes"/>
      <point x="51" y="512" type="line" smooth="yes"/>
      <point x="51" y="509"/>
      <point x="50" y="503"/>
      <point x="50" y="499" type="curve" smooth="yes"/>
      <point x="50" y="229" type="line" smooth="yes"/>
      <point x="50" y="218"/>
      <point x="55" y="201"/>
      <point x="61" y="192" type="curve" smooth="yes"/>
      <point x="201" y="-36" type="line" smooth="yes"/>
      <point x="213" y="-54"/>
      <point x="239" y="-69"/>
      <point x="261" y="-69" type="curve" smooth="yes"/>
      <point x="511" y="-72" type="line" smooth="yes"/>
      <point x="514" y="-72"/>
      <point x="517" y="-72"/>
      <point x="520" y="-71" type="curve"/>
      <point x="540" y="-72"/>
      <point x="561" y="-64"/>
    </contour>
  </outline>
</glyph>
<glyph name="r" format="1">
  <advance width="829"/>
  <unicode hex="0072"/>
  <outline>
    <contour>
      <point x="114" y="-68" type="curve" smooth="yes"/>
      <point x="149" y="-68"/>
      <point x="178" y="-39"/>
      <point x="178" y="-4" type="curve" smooth="yes"/>
      <point x="178" y="517" type="line"/>
      <point x="237" y="711" type="line"/>
      <point x="436" y="731" type="line"/>
      <point x="632" y="670" type="line"/>
      <point x="648" y="488" type="line"/>
      <point x="474" y="345" type="line" smooth="yes"/>
      <point x="449" y="325"/>
      <point x="444" y="286"/>
      <point x="462" y="260" type="curve"/>
      <point x="369" y="328" type="line"/>
      <point x="358" y="347"/>
      <point x="337" y="360"/>
      <point x="314" y="360" type="curve" smooth="yes"/>
      <point x="304" y="360" type="line" smooth="yes"/>
      <point x="237" y="360"/>
      <point x="212" y="284"/>
      <point x="266" y="244" type="curve" smooth="yes"/>
      <point x="677" y="-56" type="line" smooth="yes"/>
      <point x="705" y="-76"/>
      <point x="746" y="-70"/>
      <point x="767" y="-42" type="curve" smooth="yes"/>
      <point x="787" y="-14"/>
      <point x="781" y="27"/>
      <point x="753" y="48" type="curve" smooth="yes"/>
      <point x="496" y="235" type="line"/>
      <point x="516" y="229"/>
      <point x="539" y="233"/>
      <point x="556" y="247" type="curve" smooth="yes"/>
      <point x="755" y="411" type="line" smooth="yes"/>
      <point x="770" y="423"/>
      <point x="780" y="447"/>
      <point x="778" y="466" type="curve" smooth="yes"/>
      <point x="756" y="724" type="line" smooth="yes"/>
      <point x="754" y="748"/>
      <point x="734" y="773"/>
      <point x="711" y="780" type="curve" smooth="yes"/>
      <point x="462" y="857" type="line" smooth="yes"/>
      <point x="455" y="859"/>
      <point x="443" y="860"/>
      <point x="436" y="860" type="curve" smooth="yes"/>
      <point x="182" y="835" type="line" smooth="yes"/>
      <point x="158" y="832"/>
      <point x="134" y="812"/>
      <point x="127" y="789" type="curve" smooth="yes"/>
      <point x="53" y="545" type="line" smooth="yes"/>
      <point x="51" y="540"/>
      <point x="50" y="531"/>
      <point x="50" y="526" type="curve" smooth="yes"/>
      <point x="50" y="-4" type="line" smooth="yes"/>
      <point x="50" y="-39"/>
      <point x="79" y="-68"/>
    </contour>
  </outline>
</glyph>
<glyph name="s" format="1">
  <advance width="847"/>
  <unicode hex="0073"/>
  <outline>
    <contour>
      <point x="323" y="-69" type="line"/>
      <point x="506" y="-69" type="line"/>
      <point x="561" y="-68" type="line" smooth="yes"/>
      <point x="564" y="-67"/>
      <point x="569" y="-67"/>
      <point x="572" y="-66" type="curve" smooth="yes"/>
      <point x="629" y="-56" type="line" smooth="yes"/>
      <point x="634" y="-55"/>
      <point x="643" y="-52"/>
      <point x="648" y="-50" type="curve" smooth="yes"/>
      <point x="698" y="-25" type="line" smooth="yes"/>
      <point x="706" y="-21"/>
      <point x="716" y="-13"/>
      <point x="721" y="-7" type="curve" smooth="yes"/>
      <point x="757" y="35" type="line" smooth="yes"/>
      <point x="763" y="41"/>
      <point x="769" y="52"/>
      <point x="772" y="60" type="curve" smooth="yes"/>
      <point x="790" y="116" type="line" smooth="yes"/>
      <point x="791" y="121"/>
      <point x="793" y="129"/>
      <point x="793" y="135" type="curve" smooth="yes"/>
      <point x="797" y="195" type="line" smooth="yes"/>
      <point x="797" y="197"/>
      <point x="797" y="201"/>
      <point x="797" y="203" type="curve" smooth="yes"/>
      <point x="794" y="260" type="line" smooth="yes"/>
      <point x="794" y="264"/>
      <point x="793" y="270"/>
      <point x="792" y="273" type="curve" smooth="yes"/>
      <point x="779" y="326" type="line" smooth="yes"/>
      <point x="778" y="332"/>
      <point x="775" y="341"/>
      <point x="772" y="346" type="curve" smooth="yes"/>
      <point x="745" y="392" type="line" smooth="yes"/>
      <point x="741" y="399"/>
      <point x="731" y="410"/>
      <point x="724" y="415" type="curve" smooth="yes"/>
      <point x="673" y="450" type="line" smooth="yes"/>
      <point x="667" y="455"/>
      <point x="655" y="460"/>
      <point x="647" y="462" type="curve" smooth="yes"/>
      <point x="591" y="474" type="line" smooth="yes"/>
      <point x="587" y="475"/>
      <point x="581" y="476"/>
      <point x="577" y="476" type="curve" smooth="yes"/>
      <point x="516" y="477" type="line" smooth="yes"/>
      <point x="515" y="477"/>
      <point x="514" y="477"/>
      <point x="514" y="477" type="curve" smooth="yes"/>
      <point x="334" y="477" type="line"/>
      <point x="281" y="478" type="line"/>
      <point x="246" y="487" type="line"/>
      <point x="221" y="505" type="line"/>
      <point x="207" y="528" type="line"/>
      <point x="199" y="565" type="line"/>
      <point x="196" y="605" type="line"/>
      <point x="197" y="646" type="line"/>
      <point x="205" y="681" type="line"/>
      <point x="222" y="707" type="line"/>
      <point x="245" y="720" type="line"/>
      <point x="281" y="728" type="line"/>
      <point x="331" y="731" type="line"/>
      <point x="452" y="731" type="line"/>
      <point x="508" y="731" type="line"/>
      <point x="562" y="728" type="line"/>
      <point x="598" y="720" type="line"/>
      <point x="623" y="706" type="line"/>
      <point x="639" y="686" type="line"/>
      <point x="649" y="651" type="line"/>
      <point x="651" y="600" type="line" smooth="yes"/>
      <point x="653" y="561"/>
      <point x="688" y="529"/>
      <point x="728" y="531" type="curve" smooth="yes"/>
      <point x="767" y="533"/>
      <point x="799" y="568"/>
      <point x="797" y="608" type="curve" smooth="yes"/>
      <point x="794" y="667" type="line" smooth="yes"/>
      <point x="794" y="671"/>
      <point x="793" y="679"/>
      <point x="791" y="683" type="curve" smooth="yes"/>
      <point x="775" y="739" type="line" smooth="yes"/>
      <point x="773" y="747"/>
      <point x="767" y="758"/>
      <point x="763" y="764" type="curve" smooth="yes"/>
      <point x="730" y="807" type="line" smooth="yes"/>
      <point x="725" y="813"/>
      <point x="715" y="821"/>
      <point x="708" y="825" type="curve" smooth="yes"/>
      <point x="661" y="852" type="line" smooth="yes"/>
      <point x="656" y="855"/>
      <point x="648" y="858"/>
      <point x="642" y="859" type="curve" smooth="yes"/>
      <point x="589" y="872" type="line" smooth="yes"/>
      <point x="586" y="873"/>
      <point x="580" y="874"/>
      <point x="576" y="874" type="curve" smooth="yes"/>
      <point x="516" y="877" type="line"/>
      <point x="452" y="877" type="line"/>
      <point x="331" y="877" type="line"/>
      <point x="267" y="874" type="line" smooth="yes"/>
      <point x="263" y="874"/>
      <point x="257" y="873"/>
      <point x="254" y="872" type="curve" smooth="yes"/>
      <point x="201" y="859" type="line" smooth="yes"/>
      <point x="195" y="858"/>
      <point x="186" y="854"/>
      <point x="181" y="851" type="curve" smooth="yes"/>
      <point x="135" y="825" type="line" smooth="yes"/>
      <point x="127" y="820"/>
      <point x="117" y="811"/>
      <point x="112" y="803" type="curve" smooth="yes"/>
      <point x="77" y="753" type="line" smooth="yes"/>
      <point x="72" y="746"/>
      <point x="67" y="734"/>
      <point x="65" y="726" type="curve" smooth="yes"/>
      <point x="53" y="670" type="line" smooth="yes"/>
      <point x="52" y="667"/>
      <point x="51" y="661"/>
      <point x="51" y="657" type="curve" smooth="yes"/>
      <point x="50" y="606" type="line" smooth="yes"/>
      <point x="50" y="604"/>
      <point x="50" y="601"/>
      <point x="50" y="600" type="curve" smooth="yes"/>
      <point x="53" y="549" type="line" smooth="yes"/>
      <point x="53" y="546"/>
      <point x="54" y="540"/>
      <point x="55" y="537" type="curve" smooth="yes"/>
      <point x="68" y="484" type="line" smooth="yes"/>
      <point x="69" y="478"/>
      <point x="72" y="470"/>
      <point x="75" y="465" type="curve" smooth="yes"/>
      <point x="102" y="418" type="line" smooth="yes"/>
      <point x="106" y="411"/>
      <point x="116" y="400"/>
      <point x="123" y="395" type="curve" smooth="yes"/>
      <point x="173" y="359" type="line" smooth="yes"/>
      <point x="180" y="355"/>
      <point x="191" y="349"/>
      <point x="199" y="348" type="curve" smooth="yes"/>
      <point x="255" y="335" type="line" smooth="yes"/>
      <point x="259" y="334"/>
      <point x="266" y="333"/>
      <point x="270" y="333" type="curve" smooth="yes"/>
      <point x="331" y="331" type="line" smooth="yes"/>
      <point x="332" y="331"/>
      <point x="332" y="331"/>
      <point x="333" y="331" type="curve" smooth="yes"/>
      <point x="513" y="331" type="line"/>
      <point x="567" y="330" type="line"/>
      <point x="602" y="322" type="line"/>
      <point x="627" y="305" type="line"/>
      <point x="640" y="282" type="line"/>
      <point x="648" y="246" type="line"/>
      <point x="651" y="200" type="line"/>
      <point x="648" y="152" type="line"/>
      <point x="637" y="119" type="line"/>
      <point x="621" y="100" type="line"/>
      <point x="592" y="86" type="line"/>
      <point x="551" y="78" type="line"/>
      <point x="502" y="77" type="line"/>
      <point x="323" y="77" type="line"/>
      <point x="275" y="79" type="line"/>
      <point x="241" y="89" type="line"/>
      <point x="221" y="104" type="line"/>
      <point x="207" y="128" type="line"/>
      <point x="199" y="165" type="line"/>
      <point x="196" y="208" type="line" smooth="yes"/>
      <point x="193" y="248"/>
      <point x="158" y="279"/>
      <point x="119" y="277" type="curve" smooth="yes"/>
      <point x="79" y="274"/>
      <point x="48" y="239"/>
      <point x="50" y="200" type="curve" smooth="yes"/>
      <point x="53" y="149" type="line" smooth="yes"/>
      <point x="53" y="146"/>
      <point x="54" y="140"/>
      <point x="55" y="137" type="curve" smooth="yes"/>
      <point x="68" y="84" type="line" smooth="yes"/>
      <point x="69" y="78"/>
      <point x="72" y="70"/>
      <point x="75" y="65" type="curve" smooth="yes"/>
      <point x="102" y="18" type="line" smooth="yes"/>
      <point x="106" y="11"/>
      <point x="114" y="2"/>
      <point x="121" y="-3" type="curve" smooth="yes"/>
      <point x="163" y="-36" type="line" smooth="yes"/>
      <point x="170" y="-41"/>
      <point x="181" y="-46"/>
      <point x="188" y="-48" type="curve" smooth="yes"/>
      <point x="244" y="-64" type="line" smooth="yes"/>
      <point x="249" y="-65"/>
      <point x="256" y="-66"/>
      <point x="261" y="-66" type="curve" smooth="yes"/>
    </contour>
  </outline>
</glyph>
<glyph name="t" format="1">
  <advance width="725"/>
  <unicode hex="0074"/>
  <outline>
    <contour>
      <point x="478" y="-128" type="curve" smooth="yes"/>
      <point x="547" y="-128"/>
      <point x="606" y="-69"/>
      <point x="606" y="0" type="curve" smooth="yes"/>
      <point x="606" y="502" type="line"/>
      <point x="670" y="729" type="line" smooth="yes"/>
      <point x="691" y="806"/>
      <point x="644" y="879"/>
      <point x="565" y="891" type="curve" smooth="yes"/>
      <point x="316" y="927" type="line" smooth="yes"/>
      <point x="311" y="927"/>
      <point x="303" y="928"/>
      <point x="298" y="928" type="curve" smooth="yes"/>
      <point x="178" y="928" type="line" smooth="yes"/>
      <point x="109" y="928"/>
      <point x="50" y="869"/>
      <point x="50" y="800" type="curve" smooth="yes"/>
      <point x="50" y="731"/>
      <point x="109" y="672"/>
      <point x="178" y="672" type="curve" smooth="yes"/>
      <point x="289" y="672" type="line"/>
      <point x="384" y="658" type="line"/>
      <point x="355" y="555" type="line" smooth="yes"/>
      <point x="352" y="545"/>
      <point x="350" y="530"/>
      <point x="350" y="520" type="curve" smooth="yes"/>
      <point x="350" y="0" type="line" smooth="yes"/>
      <point x="350" y="-69"/>
      <point x="409" y="-128"/>
    </contour>
  </outline>
</glyph>
<glyph name="u" format="1">
  <advance width="825"/>
  <unicode hex="0075"/>
  <outline>
    <contour>
      <point x="355" y="-64" type="line"/>
      <point x="455" y="-64" type="line"/>
      <point x="550" y="-63" type="line" smooth="yes"/>
      <point x="554" y="-63"/>
      <point x="561" y="-62"/>
      <point x="565" y="-61" type="curve" smooth="yes"/>
      <point x="654" y="-37" type="line" smooth="yes"/>
      <point x="665" y="-34"/>
      <point x="679" y="-25"/>
      <point x="686" y="-16" type="curve" smooth="yes"/>
      <point x="750" y="59" type="line" smooth="yes"/>
      <point x="756" y="67"/>
      <point x="763" y="82"/>
      <point x="764" y="93" type="curve" smooth="yes"/>
      <point x="775" y="192" type="line" smooth="yes"/>
      <point x="775" y="194"/>
      <point x="775" y="197"/>
      <point x="775" y="199" type="curve" smooth="yes"/>
      <point x="775" y="799" type="line" smooth="yes"/>
      <point x="775" y="833"/>
      <point x="746" y="862"/>
      <point x="712" y="862" type="curve" smooth="yes"/>
      <point x="678" y="862"/>
      <point x="649" y="833"/>
      <point x="649" y="799" type="curve" smooth="yes"/>
      <point x="649" y="202" type="line"/>
      <point x="641" y="125" type="line"/>
      <point x="603" y="80" type="line"/>
      <point x="540" y="63" type="line"/>
      <point x="453" y="62" type="line"/>
      <point x="355" y="62" type="line"/>
      <point x="277" y="65" type="line"/>
      <point x="215" y="87" type="line"/>
      <point x="181" y="143" type="line"/>
      <point x="176" y="223" type="line"/>
      <point x="176" y="319" type="line"/>
      <point x="176" y="799" type="line" smooth="yes"/>
      <point x="176" y="833"/>
      <point x="147" y="862"/>
      <point x="113" y="862" type="curve" smooth="yes"/>
      <point x="79" y="862"/>
      <point x="50" y="833"/>
      <point x="50" y="799" type="curve" smooth="yes"/>
      <point x="50" y="319" type="line"/>
      <point x="50" y="215" type="line"/>
      <point x="56" y="120" type="line" smooth="yes"/>
      <point x="56" y="111"/>
      <point x="60" y="98"/>
      <point x="65" y="91" type="curve" smooth="yes"/>
      <point x="119" y="2" type="line" smooth="yes"/>
      <point x="126" y="-8"/>
      <point x="140" y="-20"/>
      <point x="152" y="-24" type="curve" smooth="yes"/>
      <point x="243" y="-57" type="line" smooth="yes"/>
      <point x="249" y="-59"/>
      <point x="257" y="-61"/>
      <point x="263" y="-61" type="curve" smooth="yes"/>
    </contour>
  </outline>
</glyph>
<glyph name="v" format="1">
  <advance width="954"/>
  <unicode hex="0076"/>
  <outline>
    <contour>
      <point x="417" y="-127" type="curve" smooth="yes"/>
      <point x="567" y="-127" type="line"/>
      <point x="618" y="-125" type="line" smooth="yes"/>
      <point x="623" y="-125"/>
      <point x="630" y="-125"/>
      <point x="634" y="-124" type="curve" smooth="yes"/>
      <point x="678" y="-117" type="line" smooth="yes"/>
      <point x="685" y="-116"/>
      <point x="696" y="-113"/>
      <point x="702" y="-110" type="curve" smooth="yes"/>
      <point x="747" y="-93" type="line" smooth="yes"/>
      <point x="757" y="-90"/>
      <point x="773" y="-81"/>
      <point x="781" y="-74" type="curve" smooth="yes"/>
      <point x="819" y="-44" type="line" smooth="yes"/>
      <point x="829" y="-36"/>
      <point x="843" y="-21"/>
      <point x="849" y="-10" type="curve" smooth="yes"/>
      <point x="871" y="27" type="line" smooth="yes"/>
      <point x="877" y="36"/>
      <point x="883" y="52"/>
      <point x="886" y="62" type="curve" smooth="yes"/>
      <point x="898" y="110" type="line" smooth="yes"/>
      <point x="899" y="117"/>
      <point x="901" y="127"/>
      <point x="901" y="134" type="curve" smooth="yes"/>
      <point x="904" y="180" type="line"/>
      <point x="904" y="230" type="line"/>
      <point x="904" y="780" type="line"/>
      <point x="904" y="800" type="line" smooth="yes"/>
      <point x="904" y="869"/>
      <point x="846" y="927"/>
      <point x="777" y="927" type="curve" smooth="yes"/>
      <point x="708" y="927"/>
      <point x="650" y="869"/>
      <point x="650" y="800" type="curve" smooth="yes"/>
      <point x="650" y="230" type="line"/>
      <point x="650" y="194" type="line"/>
      <point x="648" y="160" type="line"/>
      <point x="644" y="142" type="line"/>
      <point x="643" y="141" type="line"/>
      <point x="639" y="137" type="line"/>
      <point x="624" y="132" type="line"/>
      <point x="602" y="128" type="line"/>
      <point x="567" y="127" type="line"/>
      <point x="486" y="127" type="line"/>
      <point x="484" y="135" type="line" smooth="yes"/>
      <point x="482" y="143"/>
      <point x="477" y="155"/>
      <point x="474" y="162" type="curve" smooth="yes"/>
      <point x="453" y="200" type="line" smooth="yes"/>
      <point x="448" y="210"/>
      <point x="437" y="225"/>
      <point x="428" y="233" type="curve" smooth="yes"/>
      <point x="395" y="265" type="line" smooth="yes"/>
      <point x="386" y="273"/>
      <point x="371" y="283"/>
      <point x="360" y="288" type="curve" smooth="yes"/>
      <point x="321" y="306" type="line" smooth="yes"/>
      <point x="317" y="308"/>
      <point x="310" y="310"/>
      <point x="304" y="312" type="curve"/>
      <point x="304" y="800" type="line" smooth="yes"/>
      <point x="304" y="869"/>
      <point x="246" y="927"/>
      <point x="177" y="927" type="curve" smooth="yes"/>
      <point x="108" y="927"/>
      <point x="50" y="869"/>
      <point x="50" y="800" type="curve" smooth="yes"/>
      <point x="50" y="200" type="line"/>
      <point x="50" y="132"/>
      <point x="105" y="75"/>
      <point x="173" y="73" type="curve" smooth="yes"/>
      <point x="208" y="72" type="line"/>
      <point x="231" y="68" type="line"/>
      <point x="235" y="66" type="line"/>
      <point x="238" y="63" type="line"/>
      <point x="243" y="55" type="line"/>
      <point x="246" y="41" type="line"/>
      <point x="250" y="4" type="line" smooth="yes"/>
      <point x="255" y="-36"/>
      <point x="288" y="-82"/>
      <point x="326" y="-99" type="curve" smooth="yes"/>
      <point x="366" y="-116" type="line" smooth="yes"/>
      <point x="380" y="-122"/>
      <point x="402" y="-127"/>
    </contour>
  </outline>
</glyph>
<glyph name="w" format="1">
  <advance width="876"/>
  <unicode hex="0077"/>
  <outline>
    <contour>
      <point x="281" y="-50" type="curve" smooth="yes"/>
      <point x="436" y="176" type="line"/>
      <point x="596" y="-51" type="line" smooth="yes"/>
      <point x="645" y="-120"/>
      <point x="740" y="-99"/>
      <point x="755" y="-15" type="curve" smooth="yes"/>
      <point x="825" y="385" type="line" smooth="yes"/>
      <point x="825" y="389"/>
      <point x="826" y="396"/>
      <point x="826" y="400" type="curve" smooth="yes"/>
      <point x="826" y="800" type="line" smooth="yes"/>
      <point x="826" y="848"/>
      <point x="786" y="888"/>
      <point x="738" y="888" type="curve" smooth="yes"/>
      <point x="690" y="888"/>
      <point x="650" y="848"/>
      <point x="650" y="800" type="curve" smooth="yes"/>
      <point x="650" y="408" type="line"/>
      <point x="618" y="223" type="line"/>
      <point x="506" y="381" type="line" smooth="yes"/>
      <point x="469" y="434"/>
      <point x="399" y="434"/>
      <point x="362" y="380" type="curve" smooth="yes"/>
      <point x="258" y="228" type="line"/>
      <point x="226" y="408" type="line"/>
      <point x="226" y="800" type="line" smooth="yes"/>
      <point x="226" y="848"/>
      <point x="186" y="888"/>
      <point x="138" y="888" type="curve" smooth="yes"/>
      <point x="90" y="888"/>
      <point x="50" y="848"/>
      <point x="50" y="800" type="curve" smooth="yes"/>
      <point x="50" y="400" type="line" smooth="yes"/>
      <point x="50" y="396"/>
      <point x="51" y="389"/>
      <point x="51" y="385" type="curve" smooth="yes"/>
      <point x="121" y="-15" type="line" smooth="yes"/>
      <point x="136" y="-100"/>
      <point x="232" y="-121"/>
    </contour>
  </outline>
</glyph>
<glyph name="x" format="1">
  <advance width="856"/>
  <unicode hex="0078"/>
  <outline>
    <contour>
      <point x="206" y="0" type="curve" smooth="yes"/>
      <point x="206" y="90" type="line"/>
      <point x="206" y="200" type="line"/>
      <point x="220" y="277" type="line"/>
      <point x="274" y="315" type="line"/>
      <point x="362" y="322" type="line"/>
      <point x="668" y="-50" type="line" smooth="yes"/>
      <point x="695" y="-82"/>
      <point x="745" y="-87"/>
      <point x="778" y="-60" type="curve" smooth="yes"/>
      <point x="810" y="-33"/>
      <point x="815" y="17"/>
      <point x="788" y="50" type="curve" smooth="yes"/>
      <point x="561" y="326" type="line"/>
      <point x="599" y="327" type="line" smooth="yes"/>
      <point x="608" y="328"/>
      <point x="622" y="332"/>
      <point x="631" y="336" type="curve" smooth="yes"/>
      <point x="728" y="386" type="line" smooth="yes"/>
      <point x="744" y="394"/>
      <point x="761" y="414"/>
      <point x="767" y="431" type="curve" smooth="yes"/>
      <point x="802" y="540" type="line" smooth="yes"/>
      <point x="804" y="547"/>
      <point x="806" y="557"/>
      <point x="806" y="564" type="curve" smooth="yes"/>
      <point x="806" y="680" type="line"/>
      <point x="806" y="800" type="line" smooth="yes"/>
      <point x="806" y="842"/>
      <point x="770" y="878"/>
      <point x="728" y="878" type="curve" smooth="yes"/>
      <point x="686" y="878"/>
      <point x="650" y="842"/>
      <point x="650" y="800" type="curve" smooth="yes"/>
      <point x="650" y="680" type="line"/>
      <point x="650" y="577" type="line"/>
      <point x="628" y="510" type="line"/>
      <point x="574" y="482" type="line"/>
      <point x="475" y="478" type="line"/>
      <point x="440" y="478" type="line"/>
      <point x="193" y="844" type="line" smooth="yes"/>
      <point x="169" y="879"/>
      <point x="119" y="888"/>
      <point x="84" y="865" type="curve" smooth="yes"/>
      <point x="49" y="841"/>
      <point x="40" y="791"/>
      <point x="63" y="756" type="curve" smooth="yes"/>
      <point x="257" y="471" type="line"/>
      <point x="242" y="470" type="line" smooth="yes"/>
      <point x="230" y="469"/>
      <point x="212" y="462"/>
      <point x="202" y="456" type="curve" smooth="yes"/>
      <point x="104" y="386" type="line" smooth="yes"/>
      <point x="89" y="376"/>
      <point x="75" y="354"/>
      <point x="72" y="336" type="curve" smooth="yes"/>
      <point x="51" y="220" type="line" smooth="yes"/>
      <point x="51" y="217"/>
      <point x="50" y="210"/>
      <point x="50" y="207" type="curve" smooth="yes"/>
      <point x="50" y="90" type="line"/>
      <point x="50" y="0" type="line" smooth="yes"/>
      <point x="50" y="-42"/>
      <point x="86" y="-78"/>
      <point x="128" y="-78" type="curve" smooth="yes"/>
      <point x="170" y="-78"/>
      <point x="206" y="-42"/>
    </contour>
  </outline>
</glyph>
<glyph name="y" format="1">
  <advance width="812"/>
  <unicode hex="0079"/>
  <outline>
    <contour>
      <point x="385" y="-56" type="line" smooth="yes"/>
      <point x="397" y="-56"/>
      <point x="413" y="-50"/>
      <point x="422" y="-42" type="curve" smooth="yes"/>
      <point x="743" y="238" type="line" smooth="yes"/>
      <point x="754" y="248"/>
      <point x="762" y="267"/>
      <point x="762" y="281" type="curve" smooth="yes"/>
      <point x="759" y="708" type="line" smooth="yes"/>
      <point x="758" y="775"/>
      <point x="672" y="789"/>
      <point x="650" y="727" type="curve" smooth="yes"/>
      <point x="523" y="364" type="line"/>
      <point x="187" y="416" type="line"/>
      <point x="162" y="802" type="line" smooth="yes"/>
      <point x="160" y="832"/>
      <point x="133" y="856"/>
      <point x="102" y="854" type="curve" smooth="yes"/>
      <point x="72" y="852"/>
      <point x="48" y="825"/>
      <point x="50" y="794" type="curve" smooth="yes"/>
      <point x="78" y="364" type="line" smooth="yes"/>
      <point x="79" y="339"/>
      <point x="100" y="316"/>
      <point x="125" y="312" type="curve" smooth="yes"/>
      <point x="551" y="246" type="line" smooth="yes"/>
      <point x="577" y="242"/>
      <point x="604" y="258"/>
      <point x="613" y="283" type="curve" smooth="yes"/>
      <point x="649" y="386" type="line"/>
      <point x="650" y="306" type="line"/>
      <point x="364" y="56" type="line"/>
      <point x="106" y="57" type="line" smooth="yes"/>
      <point x="76" y="57"/>
      <point x="50" y="31"/>
      <point x="50" y="1" type="curve" smooth="yes"/>
      <point x="50" y="-29"/>
      <point x="76" y="-55"/>
      <point x="106" y="-55" type="curve" smooth="yes"/>
    </contour>
  </outline>
</glyph>
<glyph name="z" format="1">
  <advance width="808"/>
  <unicode hex="007A"/>
  <outline>
    <contour>
      <point x="404" y="-54" type="curve" smooth="yes"/>
      <point x="704" y="-54" type="line" smooth="yes"/>
      <point x="733" y="-54"/>
      <point x="758" y="-29"/>
      <point x="758" y="0" type="curve" smooth="yes"/>
      <point x="758" y="29"/>
      <point x="733" y="54"/>
      <point x="704" y="54" type="curve" smooth="yes"/>
      <point x="405" y="54" type="line"/>
      <point x="269" y="57" type="line"/>
      <point x="186" y="105" type="line"/>
      <point x="203" y="201" type="line"/>
      <point x="559" y="438" type="line"/>
      <point x="684" y="522" type="line" smooth="yes"/>
      <point x="694" y="528"/>
      <point x="704" y="543"/>
      <point x="707" y="555" type="curve" smooth="yes"/>
      <point x="739" y="704" type="line" smooth="yes"/>
      <point x="743" y="724"/>
      <point x="732" y="750"/>
      <point x="714" y="761" type="curve" smooth="yes"/>
      <point x="583" y="843" type="line" smooth="yes"/>
      <point x="576" y="847"/>
      <point x="563" y="851"/>
      <point x="555" y="851" type="curve" smooth="yes"/>
      <point x="405" y="854" type="line" smooth="yes"/>
      <point x="405" y="854"/>
      <point x="404" y="854"/>
      <point x="404" y="854" type="curve" smooth="yes"/>
      <point x="104" y="854" type="line" smooth="yes"/>
      <point x="75" y="854"/>
      <point x="50" y="829"/>
      <point x="50" y="800" type="curve" smooth="yes"/>
      <point x="50" y="771"/>
      <point x="75" y="746"/>
      <point x="104" y="746" type="curve" smooth="yes"/>
      <point x="403" y="746" type="line"/>
      <point x="538" y="743" type="line"/>
      <point x="625" y="689" type="line"/>
      <point x="606" y="599" type="line"/>
      <point x="249" y="362" type="line"/>
      <point x="124" y="278" type="line" smooth="yes"/>
      <point x="113" y="271"/>
      <point x="103" y="255"/>
      <point x="101" y="243" type="curve" smooth="yes"/>
      <point x="73" y="87" type="line" smooth="yes"/>
      <point x="69" y="66"/>
      <point x="81" y="41"/>
      <point x="99" y="30" type="curve" smooth="yes"/>
      <point x="227" y="-44" type="line" smooth="yes"/>
      <point x="233" y="-48"/>
      <point x="245" y="-51"/>
      <point x="253" y="-51" type="curve" smooth="yes"/>
      <point x="403" y="-54" type="line" smooth="yes"/>
      <point x="403" y="-54"/>
      <point x="404" y="-54"/>
    </contour>
  </outline>
</glyph>
<glyph name="braceleft" format="1">
  <advance width="606"/>
  <unicode hex="007B"/>
  <outline>
    <contour>
      <point x="441" y="-67" type="curve" smooth="yes"/>
      <point x="491" y="-67" type="line" smooth="yes"/>
      <point x="526" y="-67"/>
      <point x="556" y="-37"/>
      <point x="556" y="-2" type="curve" smooth="yes"/>
      <point x="556" y="33"/>
      <point x="526" y="63"/>
      <point x="491" y="63" type="curve" smooth="yes"/>
      <point x="448" y="63" type="line"/>
      <point x="294" y="95" type="line"/>
      <point x="253" y="250" type="line" smooth="yes"/>
      <point x="253" y="252"/>
      <point x="252" y="256"/>
      <point x="251" y="258" type="curve" smooth="yes"/>
      <point x="185" y="422" type="line"/>
      <point x="250" y="576" type="line"/>
      <point x="328" y="720" type="line"/>
      <point x="496" y="733" type="line" smooth="yes"/>
      <point x="531" y="736"/>
      <point x="559" y="768"/>
      <point x="556" y="803" type="curve" smooth="yes"/>
      <point x="553" y="838"/>
      <point x="521" y="866"/>
      <point x="486" y="863" type="curve" smooth="yes"/>
      <point x="283" y="847" type="line" smooth="yes"/>
      <point x="264" y="846"/>
      <point x="240" y="831"/>
      <point x="231" y="814" type="curve" smooth="yes"/>
      <point x="134" y="636" type="line" smooth="yes"/>
      <point x="133" y="634"/>
      <point x="132" y="631"/>
      <point x="131" y="630" type="curve" smooth="yes"/>
      <point x="55" y="448" type="line" smooth="yes"/>
      <point x="49" y="435"/>
      <point x="49" y="413"/>
      <point x="55" y="399" type="curve" smooth="yes"/>
      <point x="129" y="213" type="line"/>
      <point x="179" y="24" type="line" smooth="yes"/>
      <point x="184" y="2"/>
      <point x="207" y="-19"/>
      <point x="228" y="-23" type="curve" smooth="yes"/>
      <point x="428" y="-66" type="line" smooth="yes"/>
      <point x="431" y="-66"/>
      <point x="437" y="-67"/>
    </contour>
  </outline>
</glyph>
<glyph name="bar" format="1">
  <advance width="296"/>
  <unicode hex="007C"/>
  <outline>
    <contour>
      <point x="148" y="-97" type="curve" smooth="yes"/>
      <point x="201" y="-97"/>
      <point x="246" y="-52"/>
      <point x="246" y="1" type="curve" smooth="yes"/>
      <point x="246" y="801" type="line" smooth="yes"/>
      <point x="246" y="854"/>
      <point x="201" y="899"/>
      <point x="148" y="899" type="curve" smooth="yes"/>
      <point x="95" y="899"/>
      <point x="50" y="854"/>
      <point x="50" y="801" type="curve" smooth="yes"/>
      <point x="50" y="1" type="line" smooth="yes"/>
      <point x="50" y="-52"/>
      <point x="95" y="-97"/>
    </contour>
  </outline>
</glyph>
<glyph name="braceright" format="1">
  <advance width="664"/>
  <unicode hex="007D"/>
  <outline>
    <contour>
      <point x="184" y="-127" type="curve" smooth="yes"/>
      <point x="375" y="-115" type="line" smooth="yes"/>
      <point x="416" y="-113"/>
      <point x="463" y="-80"/>
      <point x="481" y="-43" type="curve" smooth="yes"/>
      <point x="591" y="188" type="line" smooth="yes"/>
      <point x="597" y="201"/>
      <point x="602" y="223"/>
      <point x="603" y="237" type="curve" smooth="yes"/>
      <point x="614" y="494" type="line" smooth="yes"/>
      <point x="614" y="503"/>
      <point x="613" y="518"/>
      <point x="611" y="527" type="curve" smooth="yes"/>
      <point x="555" y="778" type="line" smooth="yes"/>
      <point x="546" y="822"/>
      <point x="501" y="866"/>
      <point x="456" y="874" type="curve" smooth="yes"/>
      <point x="199" y="923" type="line" smooth="yes"/>
      <point x="133" y="935"/>
      <point x="65" y="889"/>
      <point x="52" y="822" type="curve" smooth="yes"/>
      <point x="40" y="756"/>
      <point x="86" y="688"/>
      <point x="153" y="675" type="curve" smooth="yes"/>
      <point x="327" y="642" type="line"/>
      <point x="361" y="488" type="line"/>
      <point x="352" y="273" type="line"/>
      <point x="285" y="132" type="line"/>
      <point x="168" y="125" type="line" smooth="yes"/>
      <point x="100" y="121"/>
      <point x="46" y="59"/>
      <point x="50" y="-9" type="curve" smooth="yes"/>
      <point x="54" y="-77"/>
      <point x="116" y="-131"/>
    </contour>
  </outline>
</glyph>
<glyph name="asciitilde" format="1">
  <advance width="970"/>
  <unicode hex="007E"/>
  <outline>
    <contour>
      <point x="703" y="12" type="curve" smooth="yes"/>
      <point x="885" y="211" type="line" smooth="yes"/>
      <point x="935" y="266"/>
      <point x="931" y="354"/>
      <point x="877" y="403" type="curve" smooth="yes"/>
      <point x="822" y="453"/>
      <point x="734" y="449"/>
      <point x="685" y="395" type="curve" smooth="yes"/>
      <point x="596" y="298" type="line"/>
      <point x="489" y="401" type="line" smooth="yes"/>
      <point x="437" y="451"/>
      <point x="353" y="451"/>
      <point x="301" y="401" type="curve" smooth="yes"/>
      <point x="91" y="201" type="line" smooth="yes"/>
      <point x="38" y="151"/>
      <point x="36" y="62"/>
      <point x="87" y="9" type="curve" smooth="yes"/>
      <point x="137" y="-44"/>
      <point x="226" y="-46"/>
      <point x="279" y="5" type="curve" smooth="yes"/>
      <point x="395" y="115" type="line"/>
      <point x="509" y="5" type="line" smooth="yes"/>
      <point x="564" y="-48"/>
      <point x="651" y="-45"/>
    </contour>
  </outline>
</glyph>
<glyph name="cent" format="1">
  <advance width="669"/>
  <unicode hex="00A2"/>
  <outline>
    <contour>
      <point x="434" y="-185" type="curve" smooth="yes"/>
      <point x="480" y="-185"/>
      <point x="519" y="-146"/>
      <point x="519" y="-100" type="curve" smooth="yes"/>
      <point x="519" y="-85" type="line"/>
      <point x="534" y="-85" type="line" smooth="yes"/>
      <point x="580" y="-85"/>
      <point x="619" y="-46"/>
      <point x="619" y="0" type="curve" smooth="yes"/>
      <point x="619" y="46"/>
      <point x="580" y="85"/>
      <point x="534" y="85" type="curve" smooth="yes"/>
      <point x="367" y="85" type="line"/>
      <point x="282" y="91" type="line"/>
      <point x="238" y="118" type="line"/>
      <point x="220" y="181" type="line"/>
      <point x="225" y="251" type="line"/>
      <point x="257" y="299" type="line"/>
      <point x="323" y="315" type="line"/>
      <point x="424" y="315" type="line"/>
      <point x="534" y="315" type="line" smooth="yes"/>
      <point x="580" y="315"/>
      <point x="619" y="354"/>
      <point x="619" y="400" type="curve" smooth="yes"/>
      <point x="619" y="446"/>
      <point x="580" y="485"/>
      <point x="534" y="485" type="curve" smooth="yes"/>
      <point x="519" y="485" type="line"/>
      <point x="519" y="500" type="line" smooth="yes"/>
      <point x="519" y="546"/>
      <point x="480" y="585"/>
      <point x="434" y="585" type="curve" smooth="yes"/>
      <point x="388" y="585"/>
      <point x="349" y="546"/>
      <point x="349" y="500" type="curve" smooth="yes"/>
      <point x="349" y="485" type="line"/>
      <point x="313" y="485" type="line" smooth="yes"/>
      <point x="308" y="485"/>
      <point x="299" y="484"/>
      <point x="293" y="483" type="curve" smooth="yes"/>
      <point x="184" y="456" type="line" smooth="yes"/>
      <point x="166" y="452"/>
      <point x="142" y="435"/>
      <point x="132" y="420" type="curve" smooth="yes"/>
      <point x="71" y="325" type="line" smooth="yes"/>
      <point x="64" y="315"/>
      <point x="58" y="297"/>
      <point x="57" y="285" type="curve" smooth="yes"/>
      <point x="50" y="178" type="line" smooth="yes"/>
      <point x="49" y="170"/>
      <point x="50" y="157"/>
      <point x="53" y="149" type="curve" smooth="yes"/>
      <point x="84" y="39" type="line" smooth="yes"/>
      <point x="89" y="21"/>
      <point x="106" y="-1"/>
      <point x="122" y="-10" type="curve" smooth="yes"/>
      <point x="212" y="-65" type="line" smooth="yes"/>
      <point x="221" y="-70"/>
      <point x="238" y="-76"/>
      <point x="249" y="-77" type="curve" smooth="yes"/>
      <point x="349" y="-84" type="line"/>
      <point x="349" y="-100" type="line" smooth="yes"/>
      <point x="349" y="-146"/>
      <point x="388" y="-185"/>
    </contour>
  </outline>
</glyph>
<glyph name="sterling" format="1">
  <advance width="651"/>
  <unicode hex="00A3"/>
  <outline>
    <contour>
      <point x="131" y="-79" type="curve" smooth="yes"/>
      <point x="521" y="-79" type="line" smooth="yes"/>
      <point x="564" y="-79"/>
      <point x="601" y="-42"/>
      <point x="601" y="1" type="curve" smooth="yes"/>
      <point x="601" y="44"/>
      <point x="564" y="81"/>
      <point x="521" y="81" type="curve" smooth="yes"/>
      <point x="269" y="81" type="line"/>
      <point x="391" y="295" type="line" smooth="yes"/>
      <point x="394" y="301"/>
      <point x="398" y="312"/>
      <point x="400" y="321" type="curve"/>
      <point x="471" y="321" type="line" smooth="yes"/>
      <point x="514" y="321"/>
      <point x="551" y="358"/>
      <point x="551" y="401" type="curve" smooth="yes"/>
      <point x="551" y="444"/>
      <point x="514" y="481"/>
      <point x="471" y="481" type="curve" smooth="yes"/>
      <point x="411" y="481" type="line"/>
      <point x="423" y="671" type="line"/>
      <point x="553" y="728" type="line" smooth="yes"/>
      <point x="593" y="745"/>
      <point x="612" y="793"/>
      <point x="594" y="833" type="curve" smooth="yes"/>
      <point x="577" y="873"/>
      <point x="529" y="892"/>
      <point x="489" y="874" type="curve" smooth="yes"/>
      <point x="314" y="798" type="line" smooth="yes"/>
      <point x="289" y="788"/>
      <point x="268" y="757"/>
      <point x="266" y="730" type="curve" smooth="yes"/>
      <point x="250" y="481" type="line"/>
      <point x="171" y="481" type="line" smooth="yes"/>
      <point x="128" y="481"/>
      <point x="91" y="444"/>
      <point x="91" y="401" type="curve" smooth="yes"/>
      <point x="91" y="358"/>
      <point x="128" y="321"/>
      <point x="171" y="321" type="curve" smooth="yes"/>
      <point x="221" y="321" type="line"/>
      <point x="62" y="41" type="line" smooth="yes"/>
      <point x="29" y="-17"/>
      <point x="65" y="-79"/>
    </contour>
  </outline>
</glyph>
<glyph name="section" format="1">
  <advance width="864"/>
  <unicode hex="00A7"/>
  <outline>
    <contour>
      <point x="157" y="125" type="curve" smooth="yes"/>
      <point x="462" y="223" type="line" smooth="yes"/>
      <point x="496" y="235"/>
      <point x="517" y="261"/>
      <point x="521" y="290" type="curve"/>
      <point x="590" y="182" type="line" smooth="yes"/>
      <point x="614" y="145"/>
      <point x="666" y="134"/>
      <point x="704" y="158" type="curve" smooth="yes"/>
      <point x="741" y="182"/>
      <point x="752" y="234"/>
      <point x="728" y="272" type="curve" smooth="yes"/>
      <point x="563" y="527" type="line" smooth="yes"/>
      <point x="554" y="540"/>
      <point x="535" y="555"/>
      <point x="520" y="560" type="curve" smooth="yes"/>
      <point x="353" y="616" type="line"/>
      <point x="440" y="712" type="line"/>
      <point x="636" y="666" type="line"/>
      <point x="652" y="587" type="line" smooth="yes"/>
      <point x="660" y="543"/>
      <point x="705" y="514"/>
      <point x="748" y="523" type="curve" smooth="yes"/>
      <point x="792" y="531"/>
      <point x="821" y="576"/>
      <point x="812" y="619" type="curve" smooth="yes"/>
      <point x="786" y="750" type="line" smooth="yes"/>
      <point x="780" y="778"/>
      <point x="753" y="806"/>
      <point x="724" y="813" type="curve" smooth="yes"/>
      <point x="431" y="883" type="line" smooth="yes"/>
      <point x="405" y="889"/>
      <point x="369" y="878"/>
      <point x="351" y="858" type="curve" smooth="yes"/>
      <point x="162" y="649" type="line"/>
      <point x="159" y="647"/>
      <point x="155" y="644"/>
      <point x="152" y="642" type="curve" smooth="yes"/>
      <point x="132" y="625"/>
      <point x="122" y="598"/>
      <point x="124" y="573" type="curve"/>
      <point x="124" y="554"/>
      <point x="132" y="536"/>
      <point x="146" y="522" type="curve"/>
      <point x="296" y="342" type="line"/>
      <point x="107" y="281" type="line" smooth="yes"/>
      <point x="65" y="267"/>
      <point x="40" y="220"/>
      <point x="54" y="178" type="curve" smooth="yes"/>
      <point x="68" y="136"/>
      <point x="115" y="111"/>
    </contour>
  </outline>
</glyph>
<glyph name="guillemotleft" format="1">
  <advance width="663"/>
  <unicode hex="00AB"/>
  <outline>
    <contour>
      <point x="579" y="-86" type="curve" smooth="yes"/>
      <point x="624" y="-41"/>
      <point x="624" y="35"/>
      <point x="579" y="80" type="curve" smooth="yes"/>
      <point x="548" y="112" type="line"/>
      <point x="486" y="220" type="line"/>
      <point x="579" y="314" type="line" smooth="yes"/>
      <point x="624" y="359"/>
      <point x="624" y="435"/>
      <point x="579" y="480" type="curve" smooth="yes"/>
      <point x="534" y="525"/>
      <point x="458" y="525"/>
      <point x="413" y="480" type="curve" smooth="yes"/>
      <point x="394" y="462" type="line"/>
      <point x="390" y="469"/>
      <point x="385" y="475"/>
      <point x="379" y="480" type="curve" smooth="yes"/>
      <point x="334" y="525"/>
      <point x="258" y="525"/>
      <point x="213" y="480" type="curve" smooth="yes"/>
      <point x="84" y="352" type="line" smooth="yes"/>
      <point x="58" y="326"/>
      <point x="44" y="277"/>
      <point x="52" y="242" type="curve" smooth="yes"/>
      <point x="95" y="56" type="line" smooth="yes"/>
      <point x="100" y="38"/>
      <point x="114" y="12"/>
      <point x="127" y="-1" type="curve" smooth="yes"/>
      <point x="213" y="-86" type="line" smooth="yes"/>
      <point x="258" y="-131"/>
      <point x="334" y="-131"/>
      <point x="379" y="-86" type="curve" smooth="yes"/>
      <point x="385" y="-81"/>
      <point x="390" y="-75"/>
      <point x="394" y="-68" type="curve"/>
      <point x="413" y="-86" type="line" smooth="yes"/>
      <point x="458" y="-131"/>
      <point x="534" y="-131"/>
    </contour>
  </outline>
</glyph>
<glyph name="degree" format="1">
  <advance width="384"/>
  <unicode hex="00B0"/>
  <outline>
    <contour>
      <point x="133" y="273" type="curve" smooth="yes"/>
      <point x="177" y="280" type="line" smooth="yes"/>
      <point x="179" y="280"/>
      <point x="183" y="281"/>
      <point x="185" y="282" type="curve" smooth="yes"/>
      <point x="230" y="299" type="line" smooth="yes"/>
      <point x="234" y="300"/>
      <point x="239" y="303"/>
      <point x="242" y="305" type="curve" smooth="yes"/>
      <point x="281" y="335" type="line" smooth="yes"/>
      <point x="284" y="338"/>
      <point x="289" y="344"/>
      <point x="291" y="348" type="curve" smooth="yes"/>
      <point x="317" y="393" type="line" smooth="yes"/>
      <point x="319" y="396"/>
      <point x="321" y="401"/>
      <point x="321" y="405" type="curve" smooth="yes"/>
      <point x="331" y="453" type="line" smooth="yes"/>
      <point x="332" y="455"/>
      <point x="332" y="458"/>
      <point x="332" y="460" type="curve" smooth="yes"/>
      <point x="334" y="512" type="line" smooth="yes"/>
      <point x="334" y="514"/>
      <point x="334" y="516"/>
      <point x="334" y="518" type="curve"/>
      <point x="334" y="523" type="line" smooth="yes"/>
      <point x="334" y="693" type="line" smooth="yes"/>
      <point x="334" y="710"/>
      <point x="321" y="727"/>
      <point x="305" y="733" type="curve" smooth="yes"/>
      <point x="255" y="750" type="line" smooth="yes"/>
      <point x="249" y="752"/>
      <point x="239" y="752"/>
      <point x="233" y="751" type="curve" smooth="yes"/>
      <point x="192" y="742" type="line" smooth="yes"/>
      <point x="190" y="742"/>
      <point x="186" y="741"/>
      <point x="184" y="740" type="curve" smooth="yes"/>
      <point x="142" y="721" type="line" smooth="yes"/>
      <point x="138" y="720"/>
      <point x="133" y="716"/>
      <point x="131" y="714" type="curve" smooth="yes"/>
      <point x="95" y="682" type="line" smooth="yes"/>
      <point x="92" y="679"/>
      <point x="88" y="673"/>
      <point x="86" y="669" type="curve" smooth="yes"/>
      <point x="63" y="623" type="line" smooth="yes"/>
      <point x="62" y="620"/>
      <point x="60" y="615"/>
      <point x="60" y="611" type="curve" smooth="yes"/>
      <point x="52" y="563" type="line" smooth="yes"/>
      <point x="51" y="562"/>
      <point x="51" y="559"/>
      <point x="51" y="557" type="curve" smooth="yes"/>
      <point x="50" y="503" type="line"/>
      <point x="50" y="353" type="line" smooth="yes"/>
      <point x="50" y="344"/>
      <point x="55" y="332"/>
      <point x="61" y="325" type="curve" smooth="yes"/>
      <point x="95" y="286" type="line" smooth="yes"/>
      <point x="104" y="277"/>
      <point x="121" y="271"/>
    </contour>
    <contour>
      <point x="134" y="503" type="line"/>
      <point x="135" y="552" type="line"/>
      <point x="142" y="592" type="line"/>
      <point x="158" y="625" type="line"/>
      <point x="182" y="647" type="line"/>
      <point x="214" y="661" type="line"/>
      <point x="239" y="666" type="line"/>
      <point x="250" y="663" type="line"/>
      <point x="250" y="523" type="line" smooth="yes"/>
      <point x="250" y="521"/>
      <point x="250" y="519"/>
      <point x="250" y="518" type="curve"/>
      <point x="250" y="514" type="line" smooth="yes"/>
      <point x="248" y="467" type="line"/>
      <point x="241" y="429" type="line"/>
      <point x="222" y="396" type="line"/>
      <point x="195" y="375" type="line"/>
      <point x="160" y="362" type="line"/>
      <point x="143" y="359" type="line"/>
      <point x="134" y="369" type="line"/>
    </contour>
  </outline>
</glyph>
<glyph name="plusminus" format="1">
  <advance width="678"/>
  <unicode hex="00B1"/>
  <outline>
    <contour>
      <point x="339" y="108" type="curve" smooth="yes"/>
      <point x="387" y="108"/>
      <point x="428" y="149"/>
      <point x="428" y="197" type="curve" smooth="yes"/>
      <point x="428" y="308" type="line"/>
      <point x="539" y="308" type="line" smooth="yes"/>
      <point x="587" y="308"/>
      <point x="628" y="349"/>
      <point x="628" y="397" type="curve" smooth="yes"/>
      <point x="628" y="445"/>
      <point x="587" y="486"/>
      <point x="539" y="486" type="curve" smooth="yes"/>
      <point x="428" y="486" type="line"/>
      <point x="428" y="597" type="line" smooth="yes"/>
      <point x="428" y="645"/>
      <point x="387" y="686"/>
      <point x="339" y="686" type="curve" smooth="yes"/>
      <point x="291" y="686"/>
      <point x="250" y="645"/>
      <point x="250" y="597" type="curve" smooth="yes"/>
      <point x="250" y="486" type="line"/>
      <point x="139" y="486" type="line" smooth="yes"/>
      <point x="91" y="486"/>
      <point x="50" y="445"/>
      <point x="50" y="397" type="curve" smooth="yes"/>
      <point x="50" y="349"/>
      <point x="91" y="308"/>
      <point x="139" y="308" type="curve" smooth="yes"/>
      <point x="250" y="308" type="line"/>
      <point x="250" y="197" type="line" smooth="yes"/>
      <point x="250" y="149"/>
      <point x="291" y="108"/>
    </contour>
    <contour>
      <point x="139" y="-92" type="curve" smooth="yes"/>
      <point x="539" y="-92" type="line" smooth="yes"/>
      <point x="587" y="-92"/>
      <point x="628" y="-51"/>
      <point x="628" y="-3" type="curve" smooth="yes"/>
      <point x="628" y="45"/>
      <point x="587" y="86"/>
      <point x="539" y="86" type="curve" smooth="yes"/>
      <point x="139" y="86" type="line" smooth="yes"/>
      <point x="91" y="86"/>
      <point x="50" y="45"/>
      <point x="50" y="-3" type="curve" smooth="yes"/>
      <point x="50" y="-51"/>
      <point x="91" y="-92"/>
    </contour>
  </outline>
</glyph>
<glyph name="acute" format="1">
  <advance width="692"/>
  <unicode hex="00B4"/>
  <outline>
    <contour>
      <point x="74" y="846" type="curve" smooth="yes"/>
      <point x="118" y="780"/>
      <point x="211" y="762"/>
      <point x="278" y="806" type="curve" smooth="yes"/>
      <point x="578" y="1006" type="line" smooth="yes"/>
      <point x="644" y="1050"/>
      <point x="662" y="1143"/>
      <point x="618" y="1210" type="curve" smooth="yes"/>
      <point x="574" y="1276"/>
      <point x="481" y="1294"/>
      <point x="414" y="1250" type="curve" smooth="yes"/>
      <point x="114" y="1050" type="line" smooth="yes"/>
      <point x="48" y="1006"/>
      <point x="30" y="913"/>
    </contour>
  </outline>
</glyph>
<glyph name="paragraph" format="1">
  <advance width="576"/>
  <unicode hex="00B6"/>
  <outline>
    <contour>
      <point x="388" y="-138" type="curve" smooth="yes"/>
      <point x="463" y="-138"/>
      <point x="526" y="-75"/>
      <point x="526" y="0" type="curve" smooth="yes"/>
      <point x="526" y="40" type="line" smooth="yes"/>
      <point x="526" y="53"/>
      <point x="522" y="75"/>
      <point x="518" y="87" type="curve" smooth="yes"/>
      <point x="318" y="637" type="line" smooth="yes"/>
      <point x="262" y="790"/>
      <point x="50" y="753"/>
      <point x="50" y="590" type="curve" smooth="yes"/>
      <point x="50" y="0" type="line" smooth="yes"/>
      <point x="50" y="-75"/>
      <point x="113" y="-138"/>
      <point x="188" y="-138" type="curve" smooth="yes"/>
      <point x="227" y="-138"/>
      <point x="263" y="-121"/>
      <point x="288" y="-94" type="curve"/>
      <point x="313" y="-121"/>
      <point x="349" y="-138"/>
    </contour>
  </outline>
</glyph>
<glyph name="guillemotright" format="1">
  <advance width="638"/>
  <unicode hex="00BB"/>
  <outline>
    <contour>
      <point x="392" y="-58" type="curve" smooth="yes"/>
      <point x="564" y="113" type="line" smooth="yes"/>
      <point x="577" y="127"/>
      <point x="588" y="153"/>
      <point x="588" y="172" type="curve" smooth="yes"/>
      <point x="588" y="230" type="line" smooth="yes"/>
      <point x="588" y="249"/>
      <point x="577" y="275"/>
      <point x="564" y="289" type="curve" smooth="yes"/>
      <point x="392" y="460" type="line" smooth="yes"/>
      <point x="360" y="492"/>
      <point x="306" y="492"/>
      <point x="274" y="460" type="curve" smooth="yes"/>
      <point x="258" y="445"/>
      <point x="250" y="425"/>
      <point x="250" y="403" type="curve"/>
      <point x="192" y="460" type="line" smooth="yes"/>
      <point x="160" y="492"/>
      <point x="106" y="492"/>
      <point x="74" y="460" type="curve" smooth="yes"/>
      <point x="42" y="428"/>
      <point x="42" y="374"/>
      <point x="74" y="342" type="curve" smooth="yes"/>
      <point x="214" y="201" type="line"/>
      <point x="74" y="60" type="line" smooth="yes"/>
      <point x="42" y="28"/>
      <point x="42" y="-26"/>
      <point x="74" y="-58" type="curve" smooth="yes"/>
      <point x="106" y="-90"/>
      <point x="160" y="-90"/>
      <point x="192" y="-58" type="curve" smooth="yes"/>
      <point x="250" y="-1" type="line"/>
      <point x="250" y="-22"/>
      <point x="258" y="-43"/>
      <point x="274" y="-58" type="curve" smooth="yes"/>
      <point x="306" y="-90"/>
      <point x="360" y="-90"/>
    </contour>
    <contour>
      <point x="402" y="188" type="line"/>
      <point x="401" y="201"/>
      <point x="400" y="210"/>
      <point x="396" y="219" type="curve"/>
      <point x="414" y="201" type="line"/>
    </contour>
  </outline>
</glyph>
